<?xml version="1.0" standalone="no"?>
<!DOCTYPE svg PUBLIC "-//W3C//DTD SVG 1.1//EN" "http://www.w3.org/Graphics/SVG/1.1/DTD/svg11.dtd" >
<svg xmlns="http://www.w3.org/2000/svg">
<metadata></metadata>
<defs>
<font id="dreameronebold" horiz-adv-x="1173" >
<font-face units-per-em="2048" ascent="1638" descent="-410" />
<missing-glyph horiz-adv-x="679" />
<glyph horiz-adv-x="2048" />
<glyph horiz-adv-x="2048" />
<glyph unicode="&#xd;" horiz-adv-x="2048" />
<glyph unicode=" "  horiz-adv-x="679" />
<glyph unicode="&#x09;" horiz-adv-x="679" />
<glyph unicode="&#xa0;" horiz-adv-x="679" />
<glyph unicode="!" horiz-adv-x="679" d="M246 258q0 -119 2 -133q0 -51 2 -59q6 -41 61 -66q37 -12 76 -12q53 0 53 51v10q2 45 2 92v97q-23 70 -36 69l-93 29q-35 0 -45 -6q-16 0 -19 -14.5t-3 -57.5zM262 1522q0 -47 2 -107v-59q0 -59 2 -131v-62q2 -27 2 -86q2 -49 2 -92q2 -16 2 -67q2 -33 2 -74 q0 -88 -6 -203v-23l-2 -45q-2 -82 -2 -106q4 -31 51 -66q49 -27 68 -26q8 0 41 16v15q6 16 6 28q0 285 6 475q6 205 21 297q10 125 20 166q6 31 6 64q2 10 2 18q-2 68 -61 113q-68 37 -102 41q-18 0 -43 -17q-16 -16 -17 -69z" />
<glyph unicode="&#x22;" horiz-adv-x="802" d="M66 1542q0 -31 16 -90q23 -59 61 -145q41 -82 60 -129q4 -10 6 -13q16 -39 29 -59q10 -23 24 -62q8 -23 10 -26q35 -63 76 -64q2 0 6 2h6q49 10 50 43q0 23 -27 52q0 2 -4 16q-23 100 -37 160q-8 27 -31 123l-4 16q-8 47 -35 133q0 4 -2 10v7q-45 96 -77 106q-27 6 -46 6 h-12q-8 -2 -12 -2q-43 -12 -53 -57q-4 -10 -4 -27zM377 1548q0 -31 16 -75q33 -104 60 -166q45 -92 59 -129l6 -13q53 -119 66 -147q35 -63 71 -64q2 0 4 2h7q45 10 45 50q0 18 -11 45q-27 78 -49 176q-2 8 -6 33q-2 12 -6 32q-6 23 -12 49q-4 18 -6 29q-4 16 -17 57l-20 70 l-6 23q-37 88 -74 102q-27 8 -49 8q-15 0 -25 -4q-41 -20 -51 -59v-6q-2 -8 -2 -13z" />
<glyph unicode="#" horiz-adv-x="1300" d="M68 477h254l-70 -477h174l66 477h253l-69 -477h168l74 477h247v152h-227l39 262h248v149h-226l74 476h-174l-70 -478h-251l73 478h-176l-67 -476h-271v-149h244l-41 -262h-272v-152zM516 629l39 260h252l-43 -260h-248z" />
<glyph unicode="$" horiz-adv-x="1300" d="M117 242q0 -117 69 -191q66 -82 246 -84q45 0 119 6q4 0 16 2q47 8 64 15v-123q0 -55 35 -55h-11q6 -2 19 -2q27 0 49 16q23 10 35 35v178q184 106 297 256q123 164 123 323q0 88 -45 140q-41 63 -158 94q-70 23 -121 33l-12 2q-23 4 -60 14q-14 4 -24 6v467 q152 -8 221 -71q86 -78 111 -109q18 6 47 47q4 8 4 41q-2 117 -92 184q-80 61 -213 62q-51 0 -74 -8h-4v18v59q0 29 -17 50h-24h-4q-27 0 -51 -15q-31 -20 -31 -55v-96q-160 -63 -271 -189q-131 -137 -135 -305q0 -150 119 -199q86 -35 287 -61v-559q-12 -2 -27 -2h-49 q-109 0 -223 29q-119 39 -166 122q-49 -8 -49 -57v-18zM410 1049q0 104 69 192q53 84 152 117v-430l-166 33q-31 14 -39 28q-16 23 -16 60zM758 195v510q100 -16 160 -58q61 -45 63 -133q0 -106 -63 -201q-49 -78 -160 -118z" />
<glyph unicode="%" horiz-adv-x="2039" d="M152 887q0 -184 79 -281q80 -102 234 -102q193 0 315 114q129 119 135 365q0 223 -90 313q-86 98 -270 99q-184 0 -295 -135q-108 -131 -108 -373zM334 965q0 154 59 237q59 76 139 76q84 0 142 -70q57 -78 59 -270q-2 -168 -55 -246q-49 -67 -137 -67q-100 0 -150 80 q-57 78 -57 260zM575 -33q0 -33 17 -55q35 -29 47 -29h4q20 0 78 86l8 15q18 39 35 69q55 102 121 226l63 120q92 193 203 392q12 20 59 106q18 33 43 76q33 55 64 112q6 8 45 80l6 13q41 74 62 106q47 95 47 107q0 10 -11 36q-6 10 -6 13l-10 12q-45 31 -64 31 q-6 -4 -20 -17q-6 -4 -10 -8q-8 -8 -25 -37l-4 -6l-2 -4q-61 -117 -84 -166q-14 -23 -67 -131q-16 -39 -62 -137q-47 -98 -63 -137q-86 -164 -338 -613q-45 -76 -99 -166l-10 -18q-27 -57 -27 -76zM1120 348q0 -182 82 -278q80 -103 234 -103q186 0 313 115q131 115 137 364 q0 219 -92 314q-86 96 -270 96q-186 0 -293 -135q-111 -129 -111 -373zM1305 426q0 156 61 236q55 78 137 77q92 0 144 -67q51 -78 57 -273q-6 -172 -55 -245q-50 -70 -138 -70q-102 0 -149 78q-57 82 -57 264z" />
<glyph unicode="&#x26;" horiz-adv-x="1667" d="M129 252q0 -145 92 -205q82 -63 228 -63q160 0 356 67q168 59 291 164q164 -160 235 -211q92 -61 127 -61q57 2 101 53q35 43 40 90q0 49 -20 49q-10 8 -37 8q-37 0 -100 45q-70 49 -187 166q133 154 168 236q41 94 41 164q-4 86 -41 120q-39 44 -96 44q-45 0 -45 -46v-8 q2 -4 2 -8q8 -29 8 -76q0 -39 -22 -135q-25 -96 -101 -196q-121 139 -161 190l-33 45q-72 88 -131 172q244 205 321 305q88 125 88 232q-6 104 -77 147q-63 43 -187 43q-152 0 -334 -110q-180 -115 -202 -320q0 -61 28 -131q20 -53 113 -195q-283 -207 -367 -313 q-98 -125 -98 -262zM367 313q0 61 61 168q63 119 231 252l-6 8q78 -106 135 -176q14 -20 97 -114l76 -91q4 -4 16 -18q21 -25 37 -43q-100 -80 -203 -119q-121 -49 -240 -49q-100 0 -153 49q-51 51 -51 133zM678 1186q6 109 86 190q76 82 158 88q45 0 73 -32q31 -27 33 -93 q0 -90 -49 -170q-49 -86 -201 -213q-35 51 -71 127q-29 68 -29 103z" />
<glyph unicode="'" horiz-adv-x="483" d="M90 1563q0 -37 12 -84q12 -43 37 -111q12 -35 29 -72q8 -16 16 -41q2 -6 4 -10q14 -39 39 -106q37 -100 49 -127q37 -49 64 -49l8 2l4 2q35 4 35 45q0 2 -2 12t-2 16q-20 127 -45 248q0 2 -6 35q-10 57 -15 90q-2 18 -14 66q-6 29 -6 30q0 14 -6 27q-18 63 -45 90 q-27 31 -62 31q-14 0 -26 -4q-49 -14 -66 -62v-12q-2 -12 -2 -16z" />
<glyph unicode="(" horiz-adv-x="679" d="M125 629q0 -270 104 -529q109 -270 306 -485l90 78q-182 221 -256 424q-33 102 -54 245q-18 121 -18 277q4 295 100 541q107 229 271 422l-33 36q-2 6 -6 13q-8 8 -19 28q-8 12 -12 19q-152 -164 -315 -475q-145 -291 -158 -594z" />
<glyph unicode=")" horiz-adv-x="679" d="M10 -297l70 -92q182 211 319 483q145 279 154 580q0 254 -96 506q-127 313 -346 551q0 -41 -2 -70q-4 -6 -11 -12l-10 -9q-25 -18 -39 -24q193 -238 266 -455q68 -229 68 -499q-2 -289 -107 -521q-100 -239 -266 -438z" />
<glyph unicode="*" horiz-adv-x="929" d="M152 1057q0 -29 24 -60q27 -37 53 -45q16 0 66 31l14 14q20 20 103 97l-15 -15q-4 -27 -6 -53q-4 -16 -4 -22q-8 -51 -8 -97q0 -49 16 -63q20 -20 51 -21h5h6h12h8q37 0 53 17q18 12 19 67q-2 37 -12 111l-2 16l-5 31v10q6 -6 25 -18l51 -51q4 -4 8 -9q4 -4 25 -20 q41 -25 53 -25q39 8 62 47q16 27 22 54q0 37 -53 75q-8 6 -80 52q-16 10 -61 39l2 -2v-3q51 33 88 56q41 27 57 37q47 33 47 67q-2 35 -26 68q-39 39 -66 41q-20 -6 -92 -72q-43 -43 -66 -63v2q4 33 11 51q10 41 12 125q0 47 -21 65q-10 17 -69 17q-41 0 -64 -19 q-16 -16 -16 -65q0 -57 14 -138l4 -38l-2 4q0 2 -2 4q-61 55 -76 69v5q-74 51 -86 51q-27 -2 -57 -43q-23 -49 -22 -64q0 -31 45 -67q4 -2 18 -13q12 -8 33 -20q63 -43 90 -60q-98 -66 -125 -79q-61 -43 -61 -78z" />
<glyph unicode="+" horiz-adv-x="1396" d="M102 578h510v-578h170v578h506v184h-506v581h-170v-581h-510v-184z" />
<glyph unicode="," horiz-adv-x="679" d="M-47 -356q10 -18 17 -22.5t16 -4.5q10 -4 22 -4q23 0 41 12q14 0 47 51q2 2 4 7q123 135 228 297q123 178 135 317q-4 72 -47 115q-43 39 -86 45q-25 0 -43 -21l-2 -4q-6 -23 -6 -37q0 -16 -13 -88q0 -10 -6 -28q-16 -98 -63 -218q-96 -207 -164 -284q-72 -104 -80 -133z " />
<glyph unicode="-" horiz-adv-x="927" d="M70 489q0 -35 14 -53q24 -65 104 -69h111q96 2 158 2q137 0 159 2h78h23h59q72 16 80 37q0 20 -12 69q-16 63 -60 64q-84 0 -125 -2q-78 -4 -225 -4q-141 0 -219 4q-23 2 -80 2h-26q-39 -14 -39 -52z" />
<glyph unicode="." horiz-adv-x="679" d="M227 82q0 -47 60 -78q47 -20 106 -20q35 0 47 18q12 23 13 45v217q-10 41 -60 70q-44 24 -110 28q-29 0 -47 -24q-8 -12 -9 -43v-213z" />
<glyph unicode="/" horiz-adv-x="927" d="M66 74q0 -35 26 -70q25 -29 68 -37q27 0 114 166q70 170 177 438q74 205 165 420q84 207 129 303q37 86 72 168q12 25 12 29q27 71 31 94q-2 41 -35 72q-35 29 -63 29q-33 0 -70 -58q-33 -63 -59 -137q-27 -68 -60 -160q-2 -8 -18 -51q-6 -14 -12 -33q0 -2 -8 -22 q-33 -92 -58 -154q-29 -78 -63 -170l-8 -22q-51 -125 -136 -322l-20 -51q-63 -172 -84 -221l-4 -9q-53 -86 -70 -122q-27 -61 -26 -80z" />
<glyph unicode="0" horiz-adv-x="1300" d="M106 637q0 -352 117 -506q117 -164 324 -164q231 0 422 160q203 164 221 571q0 365 -117 533q-121 164 -348 164q-264 0 -438 -209q-175 -205 -181 -549zM305 649q0 299 94 488q88 139 269 141q143 -2 233 -158q90 -151 92 -458q-2 -303 -92 -437q-86 -123 -239 -123 q-162 0 -254 136q-98 139 -103 411z" />
<glyph unicode="1" horiz-adv-x="739" d="M139 1149q0 -29 19 -55q23 -18 41 -28.5t45 -10.5q12 0 30 4q20 6 34 20.5t32 40.5q27 42 45 54q0 -25 -4 -54q0 -80 -4 -133q-2 -45 -6 -131q-8 -156 -13 -244q-4 -39 -6 -112q-2 -53 -4 -72l-2 -45q-6 -92 -6 -123q-6 -150 -6 -176q8 -49 88 -78q61 -20 84 -20 q20 0 35 10q16 16 16 45q-2 6 -6 49q-6 49 -6 260q0 311 6 508q6 188 18 307q10 117 21 154l2 27q4 25 4 45v6q0 41 -37 41q-10 0 -31 -11q-2 -2 -8 -6q-10 -6 -14 -10q-8 -8 -35 -31q-2 -4 -41 -37q-2 -2 -12 -8q-29 -20 -53 -39q-61 -25 -132 -55q-47 -18 -61 -24 q-33 -31 -33 -68z" />
<glyph unicode="2" horiz-adv-x="1300" d="M80 121q0 -68 37 -98q37 -39 123 -39q203 0 534 24q397 29 445 121q0 23 -3.5 35t-17.5 18h-6q-10 2 -18 2h-23q-20 -2 -25 -2q-4 0 -20 -2q-10 0 -27 -2q-18 -2 -55 -6q-61 -8 -154 -12q-109 -8 -204 -8q-92 0 -125 2q-43 2 -88 6q-76 0 -84 4q2 14 104 67 q86 49 272 181q170 125 279 260q123 150 131 332q0 180 -100 286q-51 51 -129 80t-209 45q-14 0 -41 2q-23 2 -39 2q-174 0 -303 -54t-191 -128l-2 -4q-20 -37 -28.5 -57.5t-8.5 -45.5q0 -18 5 -40q8 -27 36.5 -61t63.5 -58q43 -31 63 -31q27 0 47 41q29 31 29 63v11 q-2 6 -2 10q0 12 2 39q0 4 2 18q39 55 72 88t68.5 51.5t81.5 25.5t116 11q115 -12 182 -116q61 -94 62 -234q-6 -176 -125 -309q-129 -141 -289 -240q-154 -94 -293 -168q-145 -86 -145 -110z" />
<glyph unicode="3" horiz-adv-x="1300" d="M45 43q0 -8 2 -16q0 -80 84 -142q92 -63 209 -63q242 6 494 182q264 184 288 455q0 127 -75 203q-39 76 -173 83q63 33 107 82q121 86 127 269q-2 150 -125 229q-55 33 -117.5 48.5t-167.5 21.5q-76 -2 -127 -9.5t-110 -27.5q-160 -115 -172 -221q0 -39 24 -76 q31 -37 78 -37q58 16 162 176q33 39 64.5 54.5t89.5 23.5q90 0 139 -49q49 -51 51 -144q0 -8 2 -16v-8q0 -100 -94 -201q-98 -102 -457 -108q-37 0 -37 -39q-2 -10 -2 -29q0 -18 2 -29v-12q8 -27 51 -70q20 6 72 17q6 2 35 8l61 12q47 12 129 19q6 2 21 2q119 -6 168 -53 q49 -49 49 -148q-2 -186 -119 -309q-111 -119 -325 -129q-156 10 -236 49l-61 31q-10 6 -25 14q-29 16 -31 20q-53 -10 -53 -49v2q-2 -8 -2 -16z" />
<glyph unicode="4" horiz-adv-x="1300" d="M135 479q0 -68 29 -115t92 -55h18q18 -2 25 -2h16q12 2 19 2q47 4 102 23q178 47 271 84q55 20 92 33l4 4q6 0 6 -47q-4 -96 -6 -181v-30q0 -2 -2 -60q-2 -59 -2 -78q2 -47 61 -71q43 -18 78 -19q20 0 43 15q14 20 14 49v489q76 35 122 61.5t95 59.5q20 18 34 44t14 46 q0 8 -5 17q-14 20 -61 20q-24 0 -55 -6q-8 -4 -11 -4q-68 -27 -120 -43q2 41 4 71q2 14 2 19q8 123 8 153q0 61 -64 93q-51 29 -81 28h-15q-37 0 -37 -49l-8 -383q-162 -63 -279.5 -94t-189.5 -39q-37 0 -50 4t-13 14t10 31q0 2 2 6v6q0 14 12 35q20 39 66 105q10 16 31 49 q49 84 88 143q47 94 73 150q37 47 72 94q29 35 35 43q4 4 10 16q2 4 4 11q4 8 6 14q8 23 8 57q-2 49 -34 99q-31 41 -74 51q-8 0 -37 -17l-6 -6l-4 -6q-6 -10 -8 -14q-12 -20 -17 -29l-340 -733l-6 -12q-6 -14 -10 -21q-10 -25 -12 -31q-16 -23 -17 -61v-16q-2 -10 -2 -17z " />
<glyph unicode="5" horiz-adv-x="1300" d="M33 31l2 -6q0 -27 31 -58q35 -47 108 -84q74 -35 166 -39q260 12 522 217q270 207 291 474q0 190 -104 278q-104 86 -281 86q-76 0 -178 -22q-61 -10 -150 -50l23 416q14 29 43 29q18 0 43 2h20q29 4 62 4q16 2 31 2q25 2 30 2q63 0 135 10q14 2 15 2q35 4 55 6 q12 2 25 3q49 6 61 8q82 12 117 78q33 63 33 108l-7 29q-18 18 -47 18q-86 -47 -194 -76q-94 -31 -256 -57q-33 -6 -109 -12q-4 0 -16 -2q-31 -4 -49 -6q-35 -2 -144 -2l-4 -3q-14 -2 -25.5 -11t-23.5 -36q0 -43 -2 -86v-20q-4 -82 -4 -105q-2 -20 -2 -49q-2 -55 -6 -110 q-4 -25 -4 -56v-6q-4 -37 -4 -55q-6 -86 -7 -115q-2 -31 -2 -82q0 -43 9 -49q16 -16 38 -16q27 6 166 98q96 74 260 92q115 -2 179 -69q63 -66 63 -183q0 -197 -121 -342q-129 -162 -413 -168q-127 0 -224 25q-82 23 -104 29q-47 0 -47 -41z" />
<glyph unicode="6" horiz-adv-x="1300" d="M70 313q0 -164 110 -256q100 -90 301 -90q274 2 477 191q211 186 218 460q0 174 -109 252q-106 80 -303 80q-92 0 -207 -28q-90 -23 -178 -70l31 -31q141 160 309 316q152 145 221 157h2q4 -2 6 -2q23 -10 29 -10q45 0 45 31q2 3 2 28q-2 47 -31 103q-39 59 -88 69 q-131 -45 -463 -446q-332 -408 -372 -754zM266 422q4 207 123 307q125 100 291 100q152 0 225 -73q74 -76 74 -246q-2 -150 -107 -270q-106 -119 -288 -123q-139 0 -226 80q-88 80 -92 225z" />
<glyph unicode="7" horiz-adv-x="1300" d="M96 1354q0 -10 6 -39q14 -68 45 -105q29 -37 74 -57q10 -4 37 -4q10 -2 57 -2q188 0 379 16q145 6 283 29q-197 -197 -397 -539q-240 -391 -256 -557q0 -82 28 -141q37 -80 99 -86q31 0 53 51q6 8 6 25q18 55 22 94q29 115 60 203q45 137 133 323q104 233 182 363 q78 96 144 155q20 16 41 37q43 43 53 49q49 43 53 58q0 35 -12 73q-23 45 -62 46q-4 0 -65 -7q-111 -6 -273 -6q-236 0 -356 10q-131 8 -190 23q-55 8 -72 18l-14 7q-11 4 -23 4q-14 0 -24.5 -9.5t-10.5 -31.5z" />
<glyph unicode="8" horiz-adv-x="1300" d="M74 315q0 -176 131 -262q117 -86 336 -86q276 2 446 137q182 133 189 363q0 168 -127 248q-25 66 -62 67q29 29 41 90q78 109 78 230q0 156 -98 223q-83 70 -273 70q-236 0 -387 -111q-150 -111 -153 -280q0 -115 63 -203q20 -72 72 -82q-117 -55 -166 -139 q-90 -123 -90 -265zM285 385q4 133 102 215q100 82 262 88q154 0 238 -65q76 -63 78 -209q-6 -145 -105 -226q-98 -86 -246 -86q-133 0 -229 74q-96 68 -100 209zM403 1020q6 125 78 186q76 70 187 72q109 -2 172 -61q68 -55 69 -156q-4 -121 -82 -184q-80 -70 -194 -70 q-94 0 -160 57q-63 51 -70 156z" />
<glyph unicode="9" horiz-adv-x="1300" d="M111 772q0 -154 96 -256q86 -102 285 -108q104 0 241 43q113 37 244 127h-59q-127 -203 -326 -381q-207 -193 -311 -205h-31q-39 0 -39 -43q0 -18 22 -64q41 -72 113 -78q193 37 526 472q313 428 349 755q-2 178 -109 271q-108 90 -303 90q-297 -6 -496 -201 q-197 -186 -202 -422zM322 840q6 199 124 305q121 115 283 117q147 -2 219 -86q76 -86 76 -226q-8 -201 -145 -303q-133 -102 -291 -102q-119 0 -195 78q-72 84 -71 217z" />
<glyph unicode=":" horiz-adv-x="679" d="M242 221q0 -106 2 -119q0 -8 2 -18v-14q6 -45 59 -70q37 -12 80 -12q51 0 51 51v12q2 41 2 84q0 53 -2 105v14q-10 53 -39 53l-92 29q-55 0 -61 -37v-6q-2 -16 -2 -72zM242 674q0 -106 2 -119q0 -10 2 -20v-19q6 -45 59 -67q43 -16 80 -17q51 0 51 51v13q2 41 2 90 q0 51 -2 104v19q-8 49 -37 49l-92 33q-63 0 -63 -46v-2q-2 -14 -2 -69z" />
<glyph unicode=";" horiz-adv-x="679" d="M-53 -305v-12q2 -10 2 -13q18 -23 39 -22q18 0 55 30l4 7l2 2q31 27 37 41q70 74 190 247q121 195 136 289q-2 59 -54 101q-31 31 -86 45q-45 0 -69 -129q-14 -88 -97 -287q-55 -129 -112 -207q-47 -66 -47 -92zM242 674q0 -106 2 -119q0 -10 2 -20v-19q6 -45 59 -67 q43 -16 80 -17q51 0 51 51v13q2 41 2 90q0 51 -2 104v19q-8 49 -37 49l-92 33q-63 0 -63 -46v-2q-2 -14 -2 -69z" />
<glyph unicode="&#x3c;" horiz-adv-x="1396" d="M102 584l1186 -621v207l-952 504l952 500v210l-1186 -626v-174z" />
<glyph unicode="=" horiz-adv-x="1396" d="M102 336h1186v184h-1186v-184zM102 825h1186v189h-1186v-189z" />
<glyph unicode="&#x3e;" horiz-adv-x="1396" d="M102 -37l1186 621v174l-1186 626v-210l955 -502l-955 -502v-207z" />
<glyph unicode="?" horiz-adv-x="1048" d="M123 1274q0 -53 28.5 -83t59.5 -32q47 14 158 160q37 53 97 90t128 37q6 0 14 -2h13q88 -10 165 -82q39 -43 39 -105q0 -20 -4 -40q-16 -84 -91 -182.5t-208 -198.5l2 -11q8 -90 12.5 -143t4.5 -123q0 -111 -13 -258q-41 115 -56 170t-15 88q0 37 20 64q10 14 67.5 67 t132.5 116.5t135 114t73 56.5q57 53 89 115.5t44 126.5q4 25 4 47q0 102 -68 170q-63 70 -146 101.5t-179 31.5q-78 0 -153 -18.5t-138 -47.5q-178 -66 -215 -209v-10v-10zM348 96q2 -18 8 -55q4 -27 6 -39v-20q2 -8 3 -13v-10v-8q8 -49 53 -72q30 -27 63 -41q29 -12 51 -12 q29 0 29 22q0 18 -26 52q-14 33 -23 82q-4 18 -6 28q0 33 6 74q2 8 4 20q10 25 14 74q4 33 9 51l-80 -4q-35 -4 -64 -14t-37 -25.5t-8 -42.5l-2 -20v-27z" />
<glyph unicode="@" horiz-adv-x="1841" d="M176 772q4 -311 211 -553q215 -244 584 -252q172 6 278 45q119 41 203 101l-63 102q-53 -45 -189 -98q-98 -33 -215 -33q-299 6 -450 207q-162 199 -162 454q4 348 157 562q154 213 424 219q274 -12 435 -203q162 -193 163 -405q-2 -174 -75 -318q-31 -68 -55.5 -94.5 t-63.5 -36.5q-10 -4 -19 -4q-12 0 -24 20q-6 8 -6 47v21q-2 8 -2 14q0 20 2 39v41q0 12 -2 39q0 23 -2 51q0 43 -2 86v25q0 6 -5 43q-2 20 -4 49q-10 92 -12 119q0 10 -4 53l-4 47q-6 92 -6 105l-195 -60l-10 70q-2 -63 -12 -86q-25 6 -54 6q-43 0 -110 -16q-14 -10 -43 -23 q-41 -18 -70 -45t-65 -98q-51 -96 -83 -192.5t-55 -207.5q-8 -59 -8 -94q0 -43 11.5 -82t39.5 -86q49 -31 82 -44t68 -13q29 0 67 8q57 14 93.5 32.5t68.5 53.5q18 20 44 45t67 60q2 -14 2 -31q2 -37 14 -51q23 -41 49.5 -57.5t79.5 -16.5q197 4 307 190q106 178 107 396 q-6 322 -205 522q-203 197 -504 203q-354 -12 -563 -265q-211 -248 -215 -610zM723 623q0 29 6 67q12 49 29 111q8 37 13 56.5t13.5 33.5t75.5 110q23 27 41.5 37.5t46.5 16.5q31 6 47 16q31 0 45 -14q33 -31 60 -103q23 -94 22 -161q0 -100 -49 -181q-55 -55 -100 -89 t-103 -68q-29 -8 -41 -9q-31 0 -53 31q-53 53 -53 146z" />
<glyph unicode="A" horiz-adv-x="2039" d="M84 -180q0 -2 2 -6v-9q6 -55 86 -120q74 -55 131 -56q88 6 234 246q145 248 301 633l276 61q127 33 206 66t79 70q-8 36 -45 36h-2l-138 -12l-139 -4q-115 -4 -139.5 -5t-28.5 -3l211 583q127 -240 202 -444.5t130 -390.5l12 -45q6 -27 16.5 -70t22.5 -87t24.5 -82 t22.5 -60q27 -66 86 -66q43 0 99 35q78 35 88 82q0 2 -4 10q-10 20 -23 29q-2 2 -10 2l-8 2q-63 119 -115 297q-55 190 -100 324.5t-84 232.5t-76 174t-88 164q-53 82 -83 123t-51.5 62.5t-42 30.5t-55.5 17q-70 16 -137 17q-80 0 -104 -23q-39 -6 -39 -49q0 2 4 2q2 2 4 2 q4 -33 13 -41t28 -8q25 0 90 -33q41 -16 64.5 -39.5t25.5 -60.5q-39 -100 -182 -467q-57 -150 -81 -211l-24 -61q-162 -16 -221 -17q-102 0 -164 39q39 96 72 136t86 40q35 0 84 -16l-432 -246q80 6 80 21v2l-2 2q12 -100 71 -148q51 -37 123 -37q23 0 45 5l78 10 q31 4 60.5 9t40.5 7q-125 -285 -248 -446q-129 -180 -187 -193q-23 0 -47 10q-47 16 -63 17q-10 0 -21.5 -8.5t-11.5 -22.5v-6q-2 -4 -2 -6z" />
<glyph unicode="B" horiz-adv-x="1794" d="M-6 1423q0 -49 39 -77q41 -29 63 -29q47 0 111 45q39 27 139 63q0 -145 -6 -462q0 -117 -2 -166q0 -203 -10 -381q-4 -51 -9 -154q-2 -12 -2 -31v-16q-2 -12 -2 -14q-2 -8 -2 -17q-51 8 -94 23l-8 2q-14 4 -16 4q-35 6 -39 6q-18 4 -19 4q-41 0 -41 -37v-16 q4 -119 142 -160q109 -43 317 -43q309 0 662 133q373 141 409 471q0 188 -153 275q-82 92 -240 92q68 37 106 92q127 113 134 240q0 154 -134 239q-131 96 -505 99q-109 0 -199 -4q-27 0 -57 -7q-2 0 -3 -2q-12 25 -75 56q-74 33 -111 35q-29 -10 -39 -37q0 -6 -2 -13 q-2 -14 -2 -18l-2 -43q-137 -18 -227 -49q-117 -37 -123 -103zM485 162q0 23 11 121q6 66 12 170q2 18 6 88q2 55 4 80q10 139 12 196q6 143 25 367q8 72 14 145v10q12 109 13 131q35 6 86 13h6q53 6 104 6q205 0 338 -70q115 -63 121 -198q0 -129 -115 -195 q-131 -74 -460 -74q-55 0 -80 -24q-39 -27 -39 -105q0 -18 4 -26q0 -25 39 -25q4 0 43 6l78 10q90 23 297 25q184 0 284 -63q88 -59 88 -189q0 -201 -135 -311q-137 -115 -446 -115q-35 0 -131 6q-16 2 -35 2l-82 11q-14 2 -43 6q-10 0 -19 2z" />
<glyph unicode="C" horiz-adv-x="1794" d="M100 399q6 -250 179 -340q76 -45 182 -69q106 -23 233 -23q381 12 742 156q369 162 387 227q0 25 -15 51q-27 25 -45 25q-20 0 -104 -47q-41 -27 -180 -92q-127 -63 -273 -94q-158 -41 -370 -41q-291 0 -387 96q-86 84 -87 203q0 2 3 8v8v12q0 219 190 553 q201 350 662 389q215 -6 264 -53q51 -45 80 -63q41 0 59 43v4q4 29 4 43q-2 115 -111 170q-100 43 -247 43q-442 -37 -799 -461q-348 -420 -367 -748z" />
<glyph unicode="D" horiz-adv-x="1794" d="M-96 1436q8 -53 33 -82q41 -37 67 -37q23 0 115 47q41 23 155 57q0 -139 -2 -247q0 -225 -2 -291q0 -248 -6 -406q0 -27 -2 -59v-19q0 -45 -2 -116v-50v-6q-4 -45 -4 -65q-61 6 -104 28q-70 31 -97 33q-47 0 -47 -33q-2 -6 -2 -28q0 -109 82 -148q63 -47 240 -47 q375 0 815 238q465 242 504 770q-6 334 -295 485q-285 147 -680 148q-84 0 -105 -2q-16 0 -37 -2l-10 -2q-6 -2 -10 -3q-2 25 -66 54q-69 33 -112 33q-8 0 -25 -7h-8q-6 -2 -8 -2q-20 -18 -21 -59l-2 -35q-141 -20 -237 -59q-121 -53 -127 -88zM434 139v17q23 457 35 635 l12 194q2 39 4 80q18 317 25 393q43 4 86 6l41 2q90 9 143 9q346 -6 477 -160q127 -152 127 -397q-27 -489 -346 -631q-305 -137 -579 -137h-25v2v-13z" />
<glyph unicode="E" horiz-adv-x="1794" d="M70 418q0 -111 30 -195q33 -82 101 -145q133 -129 465 -129q274 0 555 63q285 74 510 181q53 27 69 38q27 20 27 62q0 29 -2 33q0 25 -41 24q-12 0 -98 -41l-7 -2q-20 -10 -96 -37q-33 -12 -53 -20l-49 -19q-70 -25 -287 -79q-164 -35 -344 -35q-289 0 -406 98 q-113 98 -112 266q0 260 219 588q213 322 635 356q201 -6 301 -53q43 -14 53 -22q23 -8 55 -23q17 -6 19 -6q41 0 49 37v2q4 12 4 35q-6 123 -133 180q-111 51 -264 51q-401 -31 -789 -416q-387 -399 -411 -792zM401 690h60q92 -2 155 -2l39 -2q49 -4 176 -8q37 -4 91 -4 q51 -2 137 -6q23 0 65 -2q20 -2 25 -2q98 -6 127 -7q133 0 184 56q45 51 45 125q0 23 -4 32q0 18 -12 22.5t-49 4.5q-41 0 -133 -12q-121 -10 -260 -29l-11 -2q-158 -18 -311 -31q-152 -12 -301 -16z" />
<glyph unicode="F" horiz-adv-x="1546" d="M27 1485l2 -4q0 -37 24 -68q25 -33 72 -33q39 0 76 4h10q47 10 96 17q-6 0 -8 -6v30q-2 -197 -10 -335v-11q-4 -137 -13 -311q-2 -16 -2 -27q-6 -111 -14 -342v-12l-2 -102q-2 -137 -2 -189q2 -57 70 -102q57 -27 118 -27q43 0 56 17q18 18 18 57q0 33 -4 65q-2 27 -4 46 q-4 49 -6 71q-6 92 -12 215q-4 41 -9 156q-2 70 -2 72v233v229q0 51 2 123v45l2 31l2 37q2 23 2 31l3 18q0 -6 -11 -10q109 0 273 -10q33 -4 123 -9q98 -8 141 -12q111 -8 203 -24q66 -8 112 -9q98 0 140 54q49 51 49 127q0 14 -4 26q0 37 -54 37q-18 0 -110 -8l-13 -2 q-45 -6 -84 -6q-100 -10 -143 -13q-59 -2 -244 -12l-61 -4l-113 -4q-197 -6 -202 -6h6q0 57 -62 84q-59 35 -94 35h-6h-33v-15q-2 -18 -2 -35l-2 -61q-18 0 -55 6l-21 2q-68 6 -98 6q-51 0 -70 -14q-31 -10 -30 -49v-2zM477 723q145 0 254 -8q139 -4 225 -15q115 -6 185 -12 q63 -8 108 -8q74 4 99 57q26 41 26 85q0 28 -8 48q-12 20 -51 21h-43q-47 -8 -64 -8q-35 -6 -176 -21l-31 -4q-6 0 -75 -6q-111 -8 -170 -12q-141 -9 -264 -13z" />
<glyph unicode="G" horiz-adv-x="1914" d="M53 401q6 -248 160 -340q139 -94 360 -94q272 2 519 131q227 115 438 299v17q10 -27 31 -78q18 -53 38 -137q10 -45 15.5 -92t5.5 -117q-12 -113 -18 -187q-2 -12 -7 -51q-4 -47 -8 -63v-4q-6 -35 -14 -43q-6 4 -12 4q-2 0 -7 -2h-6q-31 6 -121 47q-20 10 -47 20 q-59 27 -71 33q-33 14 -129 51q-4 0 -29 10q-45 25 -72 25q-10 0 -16 -4q-31 -12 -31 -57q0 -14 4 -33q6 -35 25 -68q20 -37 45 -51q113 -39 172 -55l18 -6q53 -14 78 -21q80 -14 137 -14q6 0 19 2h18q57 6 84 22q66 31 107 115q27 70 39 135q12 59 26 174l11 92q8 74 8 117 q0 33 -4 68q-6 55 -21 125q-8 39 -37 147l-20 80l-27 182q-2 45 -59 82q-39 23 -111 23q-43 0 -49 -11q-20 -10 -20 -57q0 -25 16 -129q12 -70 16 -104l2 -6q-18 -74 -256 -244q-242 -176 -518 -199q-152 0 -280 78q-125 72 -138 246q0 266 232 588q231 324 733 360 q119 0 201 -18q90 -23 135 -43q20 -8 65 -31l17 -8q4 -2 6 -4q35 -25 51 -25q29 0 39 37q4 6 4 33q0 125 -117 192q-113 66 -303 68q-410 -18 -850 -371q-438 -354 -477 -836z" />
<glyph unicode="H" horiz-adv-x="1794" d="M-49 795q0 -98 69 -144q63 -47 146 -47q31 0 80 6q4 2 14 2v-4q-2 -10 -2 -24l-2 -62v-114v-60q-2 -45 -2 -53q-6 -129 -6 -223v-113q2 -33 53 -63q55 -25 74 -25q12 0 49 18q12 20 12 56v278q0 182 2 223q0 121 2 146l2 31h-14l111 12q135 16 178 20q94 8 201 23 q10 2 20 2q43 4 61 6q143 14 187 25q74 10 112 24q41 23 41 56q0 35 -24 49h-43h-37h-49h-33q-68 -6 -102 -6q-53 -4 -232 -9h-67q-127 -4 -301 -4q0 102 4 178q2 113 10 193q10 90 12 162l2 35q2 66 2 81q0 68 -75 105q-61 33 -132 33q-27 0 -41 -11q-18 -18 -18 -36 q0 -4 2 -13q0 -8 2 -12q2 -2 2 -4q6 -29 12 -53q6 -47 13 -150l2 -80q0 -88 6 -211l4 -217q-49 0 -68 2q-35 2 -73 11q-100 25 -164 81v-32q-2 -33 -2 -64v-24zM1311 1530q2 0 4 16q2 14 4 21q2 -10 2 -39q4 -12 8 -37q2 -23 12 -152l2 -24q4 -125 7 -328q-2 -45 -2 -147 q-2 -82 -2 -148q-2 -43 -3 -90q0 -27 -2 -90q0 -68 -2 -90q-2 -55 -2 -217v-131q0 -55 52 -82q39 -25 75 -25q37 0 58 31q12 12 12 76q0 61 2 223q0 23 2 113q2 61 2 127q2 244 10 393q2 117 17 313q0 61 6 180q0 16 2 41v9q-12 86 -98 112q-74 23 -107 23q-12 0 -29 -6 q-30 -21 -30 -72z" />
<glyph unicode="I" horiz-adv-x="1388" d="M-84 1556q0 -31 37 -120q49 -100 176 -107h4l68 2q113 4 151 8q129 2 215 11q94 12 181 16q10 0 22 2q49 4 74 6l-6 2h-9v-438q0 -78 -12 -223q-4 -63 -16 -137q-2 -25 -6 -62q-4 -43 -9 -74q-10 -86 -20 -137q-4 -29 -12 -72q-4 -29 -17 -94q-2 -6 -2 -12t-2 -12 q-6 2 -24 6l-21 4q-49 12 -88 25q-33 8 -86 30q-55 20 -86 25l-18 4q-43 6 -74 8q-39 2 -135 2h-41q-47 -12 -74 -20.5t-47 -16.5q-4 -4 -12 -10q-37 -31 -50.5 -44t-25.5 -32q-23 -49 -23 -104q0 -45 9 -94l34 -35q14 2 60 24q25 14 30 17q29 16 105 39h4q59 18 100 24 q41 10 105 10q82 -8 129 -14q37 -4 125 -14q8 0 24 -2q139 -16 267 -35q41 -8 66.5 -16.5t49.5 -20.5q20 -6 47 -14q14 -4 21.5 -6t42.5 -5q35 14 48 25.5t13 30.5q0 16 -8 39q-10 20 -23.5 28.5t-39.5 18.5q-37 14 -60 26q-25 8 -78 25q-74 20 -122 39q37 121 61 227l10 45 q25 102 33 154q16 84 31 178q2 10 6 53q8 68 14 125q23 178 29 367q8 115 8 158q100 20 119 32q41 23 41 66q0 37 -29 47q-4 0 -8 2h-18l-15 -2h-4q-37 -4 -53 -8q-4 -2 -15 -2q-10 0 -16 -2q-2 0 -4 -2q0 -2 -2 -2q-4 55 -68 81q-44 31 -110 37q-43 0 -53 -55 q-4 -37 -5 -78q-182 6 -313 19q-14 2 -51 6q-39 6 -53 8q-109 12 -166 23l-96 16l-95 16q-63 16 -90 17q-33 0 -41 -23q-8 -8 -8 -29z" />
<glyph unicode="J" horiz-adv-x="1546" d="M70 78q0 -29 6 -58q12 -53 45 -108q29 -43 96 -117q45 -51 111 -86q96 -53 209 -61h20q14 -2 21 -2q70 0 145 16q131 29 258 96q61 37 95 64.5t59 64.5q37 49 66.5 130t70.5 239q0 4 8 45q23 109 29 170q20 111 32 279q6 109 7 223q4 61 4 129q0 25 2 43q2 53 2 67 q2 88 8 185v16l2 37q0 12 -16 12h39q16 -2 38 -2q47 0 78 6q45 18 45 60q0 39 -20 51q-12 4 -49 4q-10 0 -25 -2h-45q-25 -6 -45 -6q-4 59 -68 86q-53 27 -106 27q-35 0 -49 -39v-13q-2 -12 -2 -28v-27q2 -2 2 -6q-227 0 -428 14q-174 14 -258 29q-6 2 -15 2q-88 16 -110 24 q-41 14 -62 15q-31 0 -41 -29q-4 -6 -4 -35q0 -115 72 -155q53 -41 186 -41q76 0 170 10q47 2 207 16q37 4 62 7q102 10 129 10q66 14 92 14v-309q0 -47 2 -72v-61q0 -154 -3 -261.5t-14 -203.5q-8 -96 -28 -211q-25 -139 -45 -217q-33 -127 -66 -176q-35 -61 -112 -113 q-98 -37 -177 -55q-92 -20 -157 -21q-82 0 -113 39q-23 18 -49.5 57t-46.5 82q-16 47 -22.5 78t-10.5 74v16q-2 10 -2 15q0 43 12 82q12 45 47 84q-18 27 -18 45q0 16 12 24h-94q-35 -8 -86 -35q-49 -41 -66 -92q-29 -59 -32 -92q-4 -29 -4 -53z" />
<glyph unicode="K" horiz-adv-x="1667" d="M227 1583q0 -8 2 -18q0 -25 2 -43q0 -20 7 -64q0 -35 6 -78q2 -49 6 -90q6 -92 6 -129q6 -131 6 -301v-47q-2 -31 -2 -55q0 -35 -2 -84v-19q0 -59 -2 -104q0 -18 -2 -35q-2 -47 -2 -59l-4 -127l-2 -64q-2 -43 -2 -198q6 -57 43 -78q39 -23 94 -23q39 0 47 13q18 6 18 49 v417l232 177l133 -138q139 -137 252 -254q98 -98 158 -155q27 -27 59 -62l18 -18q76 -74 117 -107q38 -32 70 -32h2q57 6 119 49q76 59 77 80q0 33 -22 43q-6 6 -43 6q-33 0 -201 158q-197 176 -559 573q160 117 379 326q242 231 266 358q0 90 -30 164q-43 84 -68 86 q-25 0 -64 -51q-6 -14 -8 -23q-25 -59 -41 -90q-35 -72 -104 -174q-88 -125 -176 -232q-152 -176 -289 -292q-113 -104 -277 -230q0 10 7 66v22q2 121 10 244l2 16q0 8 4 72q8 174 10 219q0 33 2 121l2 66q2 20 2 59q-6 53 -102 100q-76 33 -115 37q-41 0 -41 -35v-12z" />
<glyph unicode="L" horiz-adv-x="1546" d="M86 184q0 -72 59 -139q61 -76 213 -78q197 6 551 45q283 35 570 84h6q2 2 10 4q16 8 18 11q18 6 19 43q0 20 -6 28q-10 29 -45 29h-2q-12 -2 -23 -2h-18h-4q-76 -10 -123 -10q-68 -8 -287 -15h-492q0 297 11 465q4 135 16 324q6 59 12 141q4 55 7 92l4 86q4 78 6 142 q-16 78 -103 129q-90 41 -135 45q-35 0 -55 -17v-8q-2 -15 -2 -31q31 -72 53 -295q16 -250 16 -581q-2 -31 -2 -105q-2 -55 -2 -102v-27q-2 -29 -2 -51q0 -25 -2 -55v-27v-20l-2 -39q-2 -35 -2 -45q-2 -6 -2 -19q-61 6 -117 27q-72 23 -106 27q-37 0 -37 -31q-2 -6 -2 -25z " />
<glyph unicode="M" horiz-adv-x="2160" d="M-215 -350q6 -49 43 -115q49 -74 121 -90h8q33 0 123 129q117 254 184.5 419t110.5 299t71.5 262t81.5 378q10 55 37 180l418 -1046q29 -43 37 -52l8 -2q23 -12 35 -12q27 0 59 31q4 10 19 39q14 31 22 51q12 35 68 153l2 7l18 36q4 8 13 29q25 53 51 113q2 4 49 104 q25 53 53 115q102 236 150 338q37 86 86 196q2 2 4 5q2 2 2 4q29 63 35 71q0 6 -2 11q-8 0 -21 -17l2 -6q2 -29 10 -80q2 -4 5 -24q6 -43 6 -48q4 -33 12 -94q2 -20 2 -22q4 -49 18 -138q0 -4 5 -32l6 -39q2 -29 8 -84l4 -29l18 -143q18 -152 21 -185q12 -92 35 -241 q8 -68 28 -111q14 -43 70 -43q53 6 115 33q84 49 90 76q0 6 -2 12v6l-10 33h-31h-8h-7q-10 0 -26 68q-33 90 -80 493l-86 862q-14 27 -72 41q-35 10 -73 17q-20 0 -37 -9q-10 -6 -27 -38l-4 -11l-547 -1216q-4 -4 -8 -12q2 -4 4 -9v15l-453 1173q-41 59 -159 96 q-107 33 -152 33q-27 0 -45 -18q-12 -14 -12 -56q10 -45 57 -69q27 -14 66 -55q12 -12 32 -56l3 -2l4 -8q27 -55 34 -70q-111 -473 -194.5 -757.5t-155.5 -432.5q-59 -125 -103 -208.5t-72 -130t-46 -65.5t-31 -19q-10 4 -24 8q-14 2 -27 2h-33q-2 -6 -8 -12q-8 -12 -8 -31z " />
<glyph unicode="N" horiz-adv-x="1794" d="M-119 -467q18 -37 92 -88q80 -41 127 -41q4 0 15 2h-2q12 2 26.5 19.5t35 58.5t52 111.5t78.5 189.5q37 150 55.5 249t29.5 210.5t17.5 265.5t10.5 420l2 33q0 59 2 100t8 106l651 -1087q37 -57 85 -92t94 -35q53 0 97 47t73 148q27 123 42 207.5t24 166.5t14.5 166 t13.5 244q6 129 8 160l14 305q-10 72 -75.5 125t-131.5 61q-39 0 -47 -8q-23 0 -22 -59q76 -127 94 -416q4 -72 6 -155t2 -173q0 -176 -10 -321.5t-37 -225.5q-29 -96 -43 -96q-8 0 -25 43l-831 1376q-23 33 -60.5 56.5t-85 39t-90 23.5t-77.5 8q-4 0 -9 2h-8q-16 0 -24 -8 q-25 -12 -25 -39q0 -29 66 -84q35 -25 52 -39t39.5 -37.5t50.5 -58.5t75 -98q-12 -141 -25 -324q-14 -184 -22 -262q-25 -256 -65 -471t-89 -364q-68 -180 -96.5 -241t-44.5 -63q-4 0 -11 2h-6q-14 6 -28 7h-11q-10 -2 -14 -2q-27 -23 -31 -54q-6 -2 -6 -10z" />
<glyph unicode="O" horiz-adv-x="2039" d="M82 510q4 -274 176 -410q168 -133 449 -133q537 12 888 332q350 326 363 737q-2 254 -148 398q-144 155 -402 155h-3q-274 -6 -477 -125q-215 -131 -223 -266q0 -47 18 -59q18 -21 47 -21q31 4 78 68q12 23 74 108l2 2l6 7q57 63 139 108q94 45 231 45q201 -2 312 -135 q121 -137 123 -373q-2 -332 -222 -590q-219 -201 -641 -206q-133 0 -231 24q-96 25 -168 70q-137 98 -143 332q29 446 303 714q279 268 487 275q51 0 60 22v35q6 -2 6 -6q0 37 -35 59h-2q-8 2 -16 2q-20 6 -37 7q-244 -12 -615 -347q-367 -334 -399 -829z" />
<glyph unicode="P" horiz-adv-x="1667" d="M-55 1417q0 -31 26 -78q37 -53 68 -55q18 0 78 33q31 18 151 69q-2 -133 -26 -587q-4 -82 -15 -252l-2 -37q-8 -135 -20 -360q-4 -61 -6 -95q10 -49 92 -92q65 -24 111 -24h4q45 0 45 4q2 0 2 41v6q-2 6 -2 12t-2 14v7q0 8 -3 34l-2 41l-2 37q-4 139 -4 219v385 q0 106 2 260v97q0 80 4 211q4 41 5 75q2 16 2 39l2 19h2q102 23 182 33q123 14 199 16q258 0 397 -84q125 -84 125 -238q-2 -266 -133 -417q-131 -94 -365 -95q-121 0 -219 31q-8 2 -39 12q-25 6 -35 9q-23 8 -45 14l-8 2q-41 0 -51 -25q-12 -14 -12 -43q6 -63 98 -125 q88 -55 217 -59q264 8 549 227q289 233 307 545q0 199 -195 287q-176 78 -540 78q-135 -4 -254 -17q-16 -2 -37 -4q-68 -8 -98 -12q-8 -2 -17 -2q-10 0 -18 -2q0 37 -51 69q-49 44 -90 46q-51 0 -52 -52v-6q-2 -20 -2 -82q-68 -10 -186 -35l-16 -4q-117 -29 -121 -90z" />
<glyph unicode="Q" horiz-adv-x="1859" d="M-43 514q6 -279 178 -410q168 -133 449 -133q145 4 245 27q18 -31 43 -64q35 -33 60.5 -55t46.5 -41q10 -10 34.5 -31.5t49.5 -46.5q53 -39 102 -61.5t115 -42.5q98 -31 197 -31q162 6 256 78q12 16 22 31q35 45 51.5 71.5t28.5 67.5q16 33 16 82q0 66 -49 123 q-10 -14 -24 -37q-25 -35 -44.5 -65.5t-50.5 -79.5q-45 -39 -73.5 -56.5t-85.5 -32.5q-63 -8 -103.5 -11t-91.5 -3q-78 10 -115 27q-49 33 -78.5 56.5t-84.5 74.5q-12 10 -29 24q-33 33 -45 52q283 76 496 276q350 326 362 737q-2 254 -147 398q-145 154 -406 155 q-274 -8 -477 -127q-213 -125 -225 -264q0 -37 20 -57q18 -23 47 -23q25 2 76 68q20 33 84 119q55 63 139 104q92 47 232 47q199 -2 311 -135q119 -137 121 -373q-2 -311 -221 -549q-162 -190 -463 -229q-2 6 -6 23q-6 23 -17 65q-18 88 -41 144q-47 92 -98 124 q-35 29 -70 38.5t-90 9.5q-41 -8 -70.5 -18.5t-70.5 -31.5q-37 -41 -60.5 -83t-23.5 -89q2 -4 6 -24q8 -45 17.5 -68.5t30 -45t62.5 -45t117 -56.5q98 35 151.5 71.5t53.5 71.5q0 37 -70.5 67.5t-216.5 49.5q33 16 56 16q39 0 71 -45q31 -47 43.5 -76.5t28.5 -101.5 q2 -4 6 -8t6 -8q4 2 9 2q-156 0 -262.5 23.5t-178.5 70.5q-72 49 -106.5 130t-36.5 202q12 221 86 395q74 182 215 319q141 135 269 204t261 71q47 0 56 18q8 25 8 33q0 39 -31 57q-4 0 -18 4q-25 6 -39 7q-248 -12 -615 -347q-147 -133 -249 -311q-131 -233 -152 -518z" />
<glyph unicode="R" horiz-adv-x="1794" d="M-33 1403q0 -51 33 -84q27 -27 66 -27q43 0 102 35q45 27 145 64q-14 -209 -22 -379q-2 -27 -6 -105q-6 -109 -11 -186l-4 -90q-14 -233 -14 -309v-29q-2 -20 -2 -25q-2 -74 -2 -157q0 -63 57 -97q49 -30 126 -30h5q29 0 49 12q14 10 15 59q0 12 -2 31q0 10 -2 20v7 q0 33 -2 63q0 41 -2 62q0 82 -7 192v74q-2 111 -2 186q0 84 2 184v91q0 55 3 182q2 25 2 53q6 104 6 178v13q2 18 2 30q0 6 2 13v2q16 2 35 6q29 6 67 12l62 10q115 23 223 25q186 0 342 -74q137 -61 149 -196q-6 -164 -147 -275q-141 -113 -387 -117q-96 0 -139 17 q-4 0 -11 2l-10 2q-49 12 -74 12q-43 0 -84 -37q-43 -45 -43 -63t17 -39l12 -12t12 -13q8 -6 21 -18l8 -8l178 -158q94 -84 283 -254q27 -23 55 -49q10 -10 53 -49q31 -29 60 -56q55 -51 125 -114q29 -25 32 -29q82 -74 117 -94q33 -27 66 -27q51 6 116 66q66 70 70 88 q0 45 -39 45h-26h-13q-39 0 -166 98q-150 106 -637 574q406 10 590 184q211 176 211 387q0 176 -176 254q-158 72 -489 72q-43 0 -136 -2q-25 -2 -40 -2h-29q-86 -6 -119 -13q-6 0 -27 -4q-57 -6 -79 -12q-20 0 -39 -2q6 -2 12 -2q0 35 -53 63q-58 35 -95 35 q-31 -14 -36 -27q-12 -25 -13 -34l-2 -64q-223 -41 -266 -61q-78 -18 -78 -80z" />
<glyph unicode="S" horiz-adv-x="1667" d="M-68 207q0 -150 138 -238q131 -78 350 -78q334 2 692 201q354 201 385 526q-6 172 -203 244q-152 55 -405 78q-254 27 -389 59q-147 31 -154 127q0 100 127 217q72 72 180 105q88 27 205 33q137 0 236 -29q100 -33 151 -66q53 -33 84 -63q47 -39 64 -39q41 0 49 51 q4 17 4 35q-6 147 -141 215q-119 68 -285 68q-182 -6 -358 -68q-131 -45 -248 -117q-301 -180 -320 -424q6 -174 201 -233q186 -51 401 -66q223 -12 391 -61q147 -43 160 -182q-10 -211 -207 -309q-98 -47 -227 -76q-125 -27 -291 -27q-141 0 -282 27q-147 31 -207 84 q-6 0 -13 2h-2q-14 57 -47 57q-37 0 -37 -35v-2q-2 -8 -2 -16z" />
<glyph unicode="T" horiz-adv-x="1308" d="M-109 1499q2 -35 56 -113q55 -76 137 -81q164 12 330 32q6 0 96 11q70 6 96 10q-12 -131 -26.5 -244t-36.5 -252q-6 -70 -12.5 -118t-14.5 -109q-8 -74 -14.5 -127t-12.5 -131q0 -51 2.5 -84t7.5 -59.5t15 -55t31 -78.5q96 -74 154.5 -102.5t127.5 -28.5q47 0 121 15 q-35 33 -94 67q-39 25 -64.5 46.5t-56.5 60.5q-29 49 -38 85t-9 99q0 45 4 141l2 15q14 117 20.5 173t12.5 144l8 62q14 109 19 147l2 12q18 125 24 193q0 6 4 35q8 78 13 116q6 0 28 6q221 39 351 68q84 25 231 59q78 18 115 29q6 4 10 6q20 10 24 13l7 14q8 14 8 20 q0 10 -17 35l-2 4q-16 10 -47 11q-2 0 -16 -5q-33 -4 -49 -8q-33 -6 -131 -20q-8 -2 -19 -4q-31 -2 -96 -13q-82 -12 -131 -16q-150 -20 -252 -27q-2 45 -33 72q-43 29 -90 29q-43 -16 -55 -82q0 -6 -2 -17q-2 -12 -2 -18q-109 -4 -281 -4q-150 4 -217 8q-35 2 -88 4 q-35 2 -43 2q-33 4 -53 4q-25 0 -39 -14q-14 -16 -15 -37z" />
<glyph unicode="U" horiz-adv-x="1794" d="M156 383q0 -215 75 -309q78 -106 215 -107q248 2 480 299q197 240 344 676q27 -205 49 -364.5t51 -341.5q20 -133 21 -138q25 -98 44 -143t42 -61q16 0 28 2q53 2 125 45q88 47 94 100q-6 41 -51 49q-10 0 -28 23q-18 25 -30.5 43t-22 42.5t-18.5 57.5t-22 90 q-2 12 -4 35q-27 219 -37 344q-18 215 -24 403q-6 106 -12 207q0 23 -5 84v6q-4 37 -75 82q-66 39 -99 45q-47 0 -47 -55v-10q-2 -25 -2 -41q-14 -389 -243 -809q-221 -401 -435 -436q-102 0 -155 67q-61 72 -62 199q0 129 25 283q39 231 53 299q6 27 25 122q10 47 28 132 l4 30q27 100 29 164q0 74 -74 119q-63 35 -137 41q-29 0 -43 -15q-23 -12 -22 -43q0 -4 12 -30l4 -10v-3q10 -31 10 -81q0 -25 -10 -138q-2 -14 -4 -39q-4 -20 -4 -28l-10 -78q-6 -47 -13 -84q-6 -41 -18 -127q-10 -61 -31 -258q-6 -51 -6 -55q-14 -141 -14 -285z" />
<glyph unicode="V" horiz-adv-x="1546" d="M-10 1567l2 -4q0 -59 55 -60q18 -4 57 -51q18 -12 31 -41q6 -12 19 -47q6 -16 10 -25q8 -16 14 -30q23 -68 51 -152l21 -55l2 -6q10 -27 20 -62q41 -117 107 -289l57 -163l33 -90q51 -135 63 -170q10 -29 43 -125q16 -47 21 -62q4 -8 12 -31l2 -10q20 -61 39 -98 q25 -29 58 -29q162 78 507 699q336 567 377 794q-6 80 -84 182q-80 98 -141 105q-33 0 -43 -18l-2 -7q-6 -18 -6 -24q0 -14 20 -74q16 -45 19 -135q-31 -313 -248 -760q-209 -440 -295 -487q2 2 2 6q-8 20 -20 41l-437 1227q-23 59 -102 90q-61 24 -158 24h-8q-70 0 -80 -16 l-6 -6q-12 -27 -12 -41z" />
<glyph unicode="W" horiz-adv-x="2287" d="M18 1575q0 -33 39 -59q31 -16 47 -41q27 -27 50 -76q12 -31 32 -115l13 -51l12 -59q37 -166 55 -277q14 -66 99 -481q4 -14 6 -31l16 -76q33 -162 53 -239q29 -102 88 -103q41 0 90 60q49 76 105 194q8 20 41 88l20 45l25 54q39 92 63 143q25 51 48 102q41 88 71 154 q72 164 109 237q4 -12 18 -61q4 -16 8 -33q4 -4 9 -18q0 -4 2 -8q35 -111 73 -228q6 -20 33 -106q2 -4 12 -41q16 -45 27 -80q0 -2 2 -6q4 -14 6 -19q12 -39 37 -114q14 -41 14 -43q43 -152 86 -238q53 -82 95 -82q45 0 84 33q14 14 24 29q23 18 41 41q152 180 336 544 q182 373 197 719q-2 162 -50 250q-53 115 -147 115q-49 0 -55 -23q-12 -12 -13 -41q0 -10 17 -102l4 -25q18 -84 20 -274q-8 -326 -106 -590q-102 -260 -199 -375q-2 -2 -10 -8q-6 -6 -10 -8q-6 -6 -10 -12l-7 -7q-10 -10 -16 -10q-14 4 -23 25q-18 33 -22 55q-4 10 -4 12 q-55 162 -94 287l-15 49q-27 80 -94 307l-8 25q-43 135 -80 256q-2 8 -16 51q-14 41 -19 49q-2 20 -2 31h-22q-2 2 -6 2q-4 2 -27 2q-41 0 -62 -12q-33 -18 -38 -27q-4 -4 -25 -49l-10 -20q-6 -8 -13 -25q-12 -27 -49 -104q-27 -61 -49 -105q-6 -23 -43 -98l-8 -19 q-33 -72 -64 -143q-20 -45 -45 -100q-47 -109 -65 -148q-33 -82 -57 -151q-25 -41 -37 -58q-4 -29 -9 -28q12 0 15 -2q-4 4 -8 22l-2 2l-230 1141q-2 37 -16 53q-12 27 -31 41q-39 45 -121 68q-70 18 -125 18q-33 0 -55 -6q-25 -18 -25 -49z" />
<glyph unicode="X" horiz-adv-x="1667" d="M-74 -152q2 -23 37 -102q37 -72 66 -100q25 8 75 80l11 18q20 41 35 70l16 39q37 66 184 284l33 47q131 190 408 553q47 -59 145 -198l20 -29q35 -43 52 -70q6 -10 14 -18q55 -76 70 -98l14 -19q74 -76 104 -110l21 -66q23 -31 57 -76l8 -10q37 -37 56 -49q31 -27 84 -27 q66 6 125 33q72 37 81 78q0 27 -55 49q-37 10 -74 47q-29 20 -57 53q-20 20 -59 68l-15 14q-68 74 -133 162q-8 8 -22 31q-12 18 -25 33q-20 29 -26 34q-37 51 -52 72l-53 76q-23 29 -59 82q-10 16 -43 57q-8 12 -21 33q-12 16 -16 24q14 16 55 62q53 59 90 98 q70 78 191 191q111 104 184 147q84 61 150 62h12h14l29 14q-2 35 -51 119q-55 72 -129 80q-47 -8 -115 -70q-18 -18 -43 -45q-43 -47 -62 -66l-12 -14q-16 -18 -31 -37q-12 -14 -36 -43q-16 -18 -19 -20q-16 -18 -74 -86q-4 -6 -18 -23q-6 -8 -8 -10q-29 -37 -33 -41 q-20 -27 -68 -82q-45 -51 -59 -74q-25 -20 -41 -47l-18 29q-33 53 -52 84q-10 12 -38 61q-18 31 -31 51q-33 53 -45 72l-25 39q-16 29 -49 78q-20 31 -27 43q-45 68 -49 76q-51 47 -135 69q-84 20 -209 27q-25 0 -61 -8q-49 0 -49 -43q0 -27 75 -70q57 -29 177 -154 q2 0 4 -6q18 -23 34 -45q6 -6 37 -45l6 -8l46 -66q23 -27 49 -63q16 -23 18 -25l45 -59q43 -61 72 -102q37 -55 84 -115v-6q-90 -100 -135 -158q-78 -90 -189 -215l-43 -51q-94 -115 -166 -201l-8 -10q-43 -49 -76 -86q-37 -49 -82 -113l-49 -61q-43 -68 -43 -99z" />
<glyph unicode="Y" horiz-adv-x="1546" d="M16 1698q0 -25 2 -48.5t7 -35.5q18 -12 53 -62.5t90 -160.5q27 -61 50.5 -112.5t49 -100t54 -101.5t67.5 -123q23 -25 51 -61q43 -51 73 -84t71 -74t107.5 -99t166.5 -144q-49 -86 -84 -143.5t-61.5 -96.5t-47 -65.5t-51.5 -63.5q-20 -25 -36 -43l-342 -395 q-20 -16 -21 -37q0 -10 4 -27q10 -25 17 -37q29 -66 45 -116t24 -119q8 72 36 118t71 80q27 4 69 19q35 12 51 16q59 16 94.5 33.5t73.5 44.5q47 31 92.5 46t139.5 20q47 0 129 -37t235 -121q152 -80 267.5 -136.5t236.5 -103.5q86 -33 177 -61.5t208 -63.5q109 -33 139 -43 q117 -41 194 -58t130 -17q61 0 119 24q74 31 134 77t79 118q18 45 18 82q0 35 -14 54t-31 28q-6 4 -14 4q-23 0 -103 -66l-16 -14q-137 -137 -272 -137q-43 0 -84 14q-131 63 -302 141t-378 165t-403.5 158.5t-336.5 104.5q-100 23 -163 23q-41 0 -88.5 -7.5t-112.5 -21.5 q-29 -23 -76 -68q-51 -49 -65 -49q-18 0 -19 60l2 6q0 8 26.5 51t76 115.5t129.5 185.5t108 154q102 143 187 264l28 45q82 123 142.5 220t128 219t114.5 235.5t51 191.5q-6 98 -83 199q-90 94 -134 100q-63 0 -63 -28q0 -20 22 -68q20 -51 21 -129q-2 -145 -86 -372.5 t-225 -481.5q-168 143 -297 298t-211 280.5t-121 202.5t-51 106q-43 63 -91.5 99t-117.5 56q-31 10 -56 11q-4 -4 -4 -37z" />
<glyph unicode="Z" horiz-adv-x="1667" d="M4 104q0 -29 9.5 -51t35 -40.5t75.5 -31t128 -14.5q33 0 149 41q109 39 195 61.5t176 22.5q66 0 141.5 -33.5t212.5 -113.5q139 -80 254 -137.5t254 -110.5q131 -49 271.5 -93t263.5 -79t205 -55.5t90 -20.5q47 0 103 16.5t108.5 46t90.5 70.5t50 88q25 59 25 92 t-26 57.5t-85 45.5q-47 -100 -145.5 -163.5t-171.5 -76.5q-8 0 -17 -2h-18q-66 0 -134.5 27.5t-181.5 87.5q-113 59 -176 88q-129 55 -261 110.5t-276.5 111.5t-265 97t-204.5 62q-39 12 -105 12q-53 0 -112.5 -6t-129.5 -16q-39 -6 -59 -9q-20 0 -51 -2h-35q-74 0 -84 17 q-4 6 -4 10q0 8 23 20q18 10 20 13q92 76 158.5 125t154.5 110q104 74 179 133.5t182 159.5q23 20 41 39q94 86 174 163t164 165t140 165.5t58 120.5q-2 127 -227 179q-100 20 -239.5 31.5t-288.5 11.5q-248 0 -459 -33q-244 -43 -264 -223q0 -4 2 -27v-27q2 0 2 17h6 q4 2 8 2q8 0 74 -2l55 -2q63 27 158.5 54.5t216.5 51t245 37.5t234 14q121 0 173 -9t52 -29q-4 -41 -40.5 -105.5t-96 -141.5t-127 -151t-133.5 -133q-63 -66 -133 -130t-149.5 -132t-163.5 -135.5t-242 -190.5q-45 -37 -125 -100t-103.5 -89t-23.5 -61z" />
<glyph unicode="[" horiz-adv-x="679" d="M252 -354h385v121h-227v1771h227v119h-385v-2011z" />
<glyph unicode="\" horiz-adv-x="927" d="M66 1585q0 -31 28 -100q20 -51 25 -60q10 -23 26 -65q10 -25 15 -37q41 -104 82 -180q10 -25 32 -78q10 -29 25 -61l23 -56q4 -12 10 -24q96 -238 117 -295l40 -103q66 -166 91 -225q70 -170 96 -227q49 -106 88 -107q31 0 67 33q27 39 29 72q0 4 -6 20q-2 6 -8 21 q0 6 -15 37q-6 16 -22 55q-4 6 -10 22q-8 16 -27 62l-6 12q-37 72 -98 213q-6 16 -31 80q-56 129 -74 180q-70 162 -139 348l-12 31q-25 68 -39 111q-12 33 -21 57q-23 61 -33 88q-16 43 -57 141q-2 6 -8 19q-2 6 -6 14t-6 14q-55 88 -80 89q-55 -6 -72 -37q-25 -33 -24 -64 z" />
<glyph unicode="]" horiz-adv-x="679" d="M43 -233v-121h383v2011h-383v-119h225v-1771h-225z" />
<glyph unicode="^" horiz-adv-x="1396" d="M188 379h189l317 717l322 -717h186l-436 985h-141z" />
<glyph unicode="_" d="M0 -129v-188h1171v188h-1171z" />
<glyph unicode="`" horiz-adv-x="555" d="M92 1313q12 -86 131 -215q119 -123 189 -140q27 0 43 9q27 0 26 51q0 41 -53 80q-33 18 -121 176q-6 10 -14 33l-12 30q-18 37 -23 49q-41 66 -74 74q-35 -8 -67 -57q-25 -59 -25 -90z" />
<glyph unicode="a" horiz-adv-x="1300" d="M100 231q0 -109 68 -176q74 -70 242 -71q201 2 344 84q113 59 184 137q14 -76 31 -152q23 -109 67 -110q12 0 74 22q2 0 14 6q10 4 13 6q76 45 82 80q0 47 -41 47l-4 2t-5 3q-41 88 -69 342q-31 313 -31 362q-53 -47 -94 -61q-16 -10 -35 -15q-16 20 -53 58 q-64 59 -168 65q-209 -12 -406 -205q-201 -190 -213 -424zM324 295q6 178 102 299q92 125 244 131q72 -2 110 -25q47 -18 76 -41q20 -27 35 -100q14 -61 20 -143q0 -25 -4 -62q-10 -35 -35 -59q-35 -45 -141 -109q-104 -66 -227 -69q-74 0 -127 47t-53 131z" />
<glyph unicode="b" d="M-137 1591q0 -16 8 -37q14 -33 57 -104q10 -14 15 -23l2 -2q31 -23 52 -35t52 -18q23 6 47 6q31 0 62 -10l-2 -43q-4 -139 -9 -221q-4 -55 -10 -225q-2 -51 -2 -70v-8v-96q-2 -92 -2 -160q0 -350 66 -465t174 -115h18q2 2 4 2q221 2 449 166q227 162 241 418 q-2 139 -84 201q-72 74 -219 75q-158 -6 -317 -100q-150 -92 -211 -166h37q0 92 12 283q2 45 16 211q4 49 5 51l6 57q0 4 4 25q4 41 6 55q20 154 25 189q-45 27 -125 69q-45 25 -72 39q-57 31 -90 57q-23 20 -39 50q-8 35 -8 108q-76 -16 -111 -47q-18 -18 -37 -55 q-20 -39 -20 -62zM291 461q57 70 174 143q119 82 240 88q72 0 114 -55q41 -61 43 -158q-2 -133 -82 -239q-74 -98 -213 -105q-141 0 -205 76q-72 84 -71 250z" />
<glyph unicode="c" d="M88 246q0 -152 107 -215q98 -63 286 -64q258 6 449 82q199 86 209 152q0 49 -25 49q-14 6 -29 6q-25 -4 -155 -82q-127 -72 -291 -72q-168 0 -250 64q-78 57 -78 176q4 164 113 264q100 100 252 107q125 -6 198 -33q18 -6 60 -18q41 -14 49 -15q33 0 41 31q8 10 8 45 q0 63 -53 113q-49 47 -178 49q-242 -12 -465 -187q-232 -184 -248 -452z" />
<glyph unicode="d" horiz-adv-x="1300" d="M88 223q0 -113 59 -172q65 -67 209 -67h4q158 4 332 61q145 53 246 111v-15v-37q-2 -59 -2 -102q10 -45 51 -78q43 -37 88 -37q41 0 41 43v54l-8 536q0 176 6 354q6 158 19 336q2 25 2 33q4 99 4 146q0 41 -16.5 74.5t-51.5 52.5q-23 12 -80 36q-31 12 -41 19 q-51 27 -92 59q-20 18 -39 47q-6 47 -6 111q-74 -16 -108 -47q-25 -20 -41 -58q-20 -37 -21 -59q0 -16 8 -37q20 -45 74 -127q4 -2 6 -4q31 -23 50.5 -34t47.5 -17q29 -10 64 -10q20 0 45 4q4 -43 6 -148l2 -49v-24q2 -63 2 -111q0 -33 2 -70v-63v-170q-16 14 -63 41 q-80 49 -193 55q-244 -12 -424 -223q-178 -207 -182 -414zM311 326q0 170 86 311q82 86 238 88q100 0 182 -31q80 -20 131 -80l-12 -325q-63 -43 -178 -96q-117 -55 -246 -62q-106 0 -156 51q-45 51 -45 144z" />
<glyph unicode="e" d="M88 233q4 -186 131 -233q80 -35 197 -35h28q12 2 21 2q244 4 444 60q215 61 232 120q0 23 -8 39q-4 4 -5 4q-20 20 -32 21q-20 0 -64 -21q-2 0 -8 -4q-4 -2 -6 -2q-55 -23 -84 -30q-88 -29 -135 -35q-51 -16 -172 -17q-184 0 -262 62q-66 51 -66 158h4q4 2 6 2 q25 6 47 10q23 4 35 6q18 4 55 12q29 4 58 15q4 2 20 2q10 0 21 2q29 4 61 10h6q18 4 45 8q14 4 31 6q39 8 43 8q2 2 8 3q2 0 6 2q72 14 185 36q16 2 22 5q55 23 56 57q0 14 -13 29q-2 23 -14 22q0 88 -8 129q-16 66 -37 92q-49 70 -199 70q-385 -27 -524 -264 q-125 -219 -125 -351zM303 444q4 109 107 185q102 94 243 100q74 -2 103 -39q28 -40 28 -100q0 -24 -4 -37v-8h-2q-6 -2 -26 -10l-25 -5q-33 -6 -39 -8l-29 -6q-78 -20 -153 -31q-8 -2 -37 -6q-111 -23 -166 -35z" />
<glyph unicode="f" horiz-adv-x="679" d="M-326 -713v-6q0 -16 16.5 -42.5t45.5 -57.5q55 -55 129 -86q49 -23 90 -25q121 6 195 45q72 37 108 101q35 51 51 114q16 49 33 140v6q14 80 20.5 138t16.5 196q6 102 14 237q6 123 8 154q4 27 5 141q2 45 8 104q4 55 4 72v111q154 12 227 35q106 25 107 77q0 39 -4 39 q0 6 -60 6q-2 -6 -35 -8h-16q-51 -2 -137 -2l-74 2l4 2l4 2q6 219 23 387q14 147 35 254q41 160 120 160q51 -6 84 -29q43 -35 80 -36q33 0 51 34q8 23 9 58q0 84 -43 98q-39 23 -74 23q-72 0 -152 -52q-82 -41 -145 -114q-84 -90 -127 -213q-45 -113 -49 -283 q-2 -68 -2 -211v-27q2 -23 2 -40q-25 0 -82 10q-55 10 -68 10q-45 0 -51 -31l-4 -16q-2 -12 -2 -16q0 -49 27 -82q31 -35 71 -39l103 -2v-27l-2 -152q-2 -72 -5 -178q-2 -76 -2 -88q-6 -246 -6 -409q-6 -220 -10 -314q-2 -20 -2 -49q-2 -43 -6 -61q-4 -39 -25 -60 q-20 -14 -65 -24q-29 -6 -64 -6q-37 0 -76 6l-88 14l-100 16q-55 -4 -88 -4q-8 0 -20 2h-5q0 -2 -2 -4z" />
<glyph unicode="g" horiz-adv-x="1300" d="M100 266q0 -131 72 -209q77 -73 215 -73h4q174 6 344 94q121 55 197 127q0 4 2 20v21q2 -18 2 -160q-6 -401 -121 -518q-94 -109 -184 -109h-8h-9q-133 0 -231 74q-98 76 -98 215v35q0 41 -37 41q-35 0 -90 -78q-39 -66 -45 -131q6 -96 116 -188q113 -96 273 -103 q170 2 270 62q100 61 150 125q100 113 159 309q53 195 54 436q0 233 4 334q2 47 2 129v35q0 41 -39 41q-18 0 -90 -45q-10 -4 -33 -19q-20 -14 -29 -18q2 -2 6 -2q-59 59 -131 92q-77 43 -186 45q-182 -12 -360 -203q-166 -178 -179 -379zM299 395q4 129 98 215 q99 86 230 86q61 0 149 -20q94 -23 131 -64q23 -29 25 -71q6 -57 6 -86q0 -43 -8 -70q-10 -27 -47 -70q-78 -84 -168 -118q-102 -45 -187 -45q-121 6 -176 69q-53 72 -53 174z" />
<glyph unicode="h" horiz-adv-x="1124" d="M-145 1561q0 -16 8 -35q16 -39 67 -121l4 -6q29 -25 51.5 -38t55.5 -20q25 18 47 19q28 0 53 -25v-4v-28q6 -168 9 -320q-2 -92 -3 -254q0 -211 -2 -250q-2 -31 -2 -92q0 -63 -2 -94q-2 -51 -2 -98l-2 -58q0 -33 -2 -57v-6v-19q-2 -14 -2 -16q0 -31 60 -55 q53 -16 110 -17q47 256 182 488q121 205 197 223q12 0 18 -33q20 -37 41 -125l4 -16q14 -72 35 -156q4 -18 6 -31q31 -139 54.5 -246.5t38.5 -166.5l6 -23q18 -66 39 -155l2 -7q20 -90 75 -90q53 0 111 49q66 66 68 93q-2 31 -64 71q-10 6 -21.5 32t-26.5 82t-33.5 147.5 t-45.5 230.5q-29 193 -76 371q-47 143 -157 143q-121 -2 -260 -174q-98 -113 -181 -297q0 -33 2 -72l2 29q2 84 3 110l4 95q2 37 4 135q4 115 6 180q6 96 6 184q4 100 8 213l2 41v13q2 45 2 98q-49 31 -135 76q-43 23 -59 30q-63 37 -90 60q-25 23 -39 47q-4 20 -6 45t-2 63 q-78 -16 -107 -47q-23 -12 -41 -55q-20 -39 -20 -61z" />
<glyph unicode="i" horiz-adv-x="555" d="M129 836q0 -16 18 -72q10 -51 13 -135v-21v-73v-168q0 -139 4 -316q6 -41 55 -65q43 -18 76 -19q16 0 33 8q23 10 22 39q0 66 -2 82v31q-2 37 -2 66q0 35 2 83v54q2 27 4 53q4 78 6 102q4 41 4 84q4 33 5 74q2 14 2 66q2 31 2 65q-10 43 -80 74q-66 35 -113 37h-12h-14 q-23 -14 -23 -49zM160 1358q0 -12 2 -64q2 -16 2 -39q0 -18 2 -38q4 -63 6 -82q2 -35 53 -66q34 -22 80 -22h4h4q41 0 41 43q4 10 4 122v54q0 6 -2 28l-2 6q0 8 -2 19v4q-6 16 -30 33q0 4 -29 14q-37 23 -86 25h-10h-2q-35 0 -35 -37z" />
<glyph unicode="j" horiz-adv-x="491" d="M-338 -754q0 -27 59 -47l316 129q78 51 135 109q35 35 59 76q14 18 26.5 46.5t35.5 90.5l8 24q18 100 33 228q14 104 18 200q45 469 45 664q-6 51 -96 82q-74 33 -133 37q-14 0 -33 -11q-12 -4 -18 -18t-6 -25q2 -35 49 -75q25 -23 26 -92v-349q0 -121 -12 -262 q-8 -123 -33 -307q-25 -131 -63 -205q-35 -49 -94 -88l-152 -76q-80 -41 -125 -71q-45 -39 -45 -60zM186 1358q0 -31 4 -98q2 -29 3 -43q4 -68 6 -84q4 -39 57 -64q32 -22 76 -22h4q23 0 36 11t13 38v116v72q-4 14 -8 33q-2 16 -4 16q-12 18 -58 37q-35 21 -82 25h-22 q-2 -4 -10 -13q-14 -16 -15 -24z" />
<glyph unicode="k" d="M-145 1561q0 -16 8 -35q16 -39 67 -121l4 -6q29 -25 51.5 -38t55.5 -20q29 6 57 7q35 0 66 -9q68 -4 95.5 -13t27.5 -21q0 -18 -68 -70q-51 -41 -78 -68v-1112q0 -43 47 -67q41 -20 80 -21q8 0 19 2h10q8 16 16 25v229l142 72q109 -96 174 -158q63 -61 155 -141 q18 -12 29 -23q102 -94 137 -123.5t47 -37.5q51 -39 90 -39q59 6 105 69q43 72 45 131q-78 0 -117 17q-27 12 -59.5 39.5t-114.5 105.5q-55 59 -180 172q-70 66 -88 82l-12 12q-14 12 -23 21q96 66 199 147q143 106 155 211q0 39 -14 84q-29 74 -59 76q-25 0 -88 -70 q-45 -70 -109 -145q-63 -90 -180 -195q-82 -80 -234 -178q0 74 4 242v37q8 254 13 387q0 31 6 149q6 141 6 203q0 31 -35 55.5t-96 57.5q-37 18 -51 26q-63 37 -90 60q-25 23 -39 47q-4 20 -6 45t-2 63q-78 -16 -107 -47q-23 -12 -41 -55q-20 -39 -20 -61z" />
<glyph unicode="l" horiz-adv-x="555" d="M-145 1561q0 -16 8 -35q16 -39 67 -121l4 -6q29 -25 51.5 -38t55.5 -20q31 -6 63 -6q39 0 74 8q16 -2 23 -18q0 -12 2 -33v-32q0 -53 -8 -117l-84 -1110v-8v-11q0 -51 27.5 -107.5t77.5 -107.5t113.5 -87t131.5 -48q33 -4 59 -4q53 0 81 18.5t42 57.5q6 12 16 47 q16 43 27 67q-20 47 -47 48q-10 0 -33 -15q-10 -6 -12 -8q-53 -10 -98 -10q-66 0 -115 21.5t-72 72.5l84 1405q-25 57 -72 85t-116 48q-35 12 -45 16q-43 20 -90 56q-25 23 -39 47q-4 20 -6 45t-2 63q-78 -16 -107 -47q-23 -12 -41 -55q-20 -39 -20 -61z" />
<glyph unicode="m" horiz-adv-x="1667" d="M150 82q0 -68 47 -74q23 -8 55 -8q33 0 55 41q4 27 6 41q53 215 166 391q98 113 180 119q27 0 33 -25q12 -70 13 -116q-2 -84 -13 -191l-4 -33q-4 -43 -4 -57q-2 -14 -4 -47q-2 -25 -4 -35q8 -61 51 -76q2 -2 10 -2q6 0 13 -2q23 -8 32 -8q63 0 64 68q6 33 39 112 q80 176 178 312q76 113 127 118q39 -4 63 -98q16 -51 66 -276q6 -27 10 -52q8 -43 25 -135q2 -12 4 -20q12 -82 67 -90q45 6 109 38q63 43 78 99q-12 43 -60 43q-4 0 -8 43q-29 90 -45 192q-12 68 -24 131l-7 45q-10 57 -30 146q-18 53 -43 94q-23 29 -58 37q-20 6 -47 6 q-72 -4 -137 -53q-57 -47 -98 -98q-86 -98 -144 -195q-35 -39 -53 -72q0 -6 6 -24l4 86q4 92 6 123q0 78 -20 139q-31 59 -104 59q-70 -2 -154 -63q-90 -76 -123 -117q-76 -92 -117 -160q2 25 6 76q0 8 3 16v13l2 22q18 129 18 156q-10 59 -59 92q-58 33 -113 35 q-16 0 -33 -10q-18 -12 -18 -45q0 -10 6 -72q4 -49 6 -154v-12q-2 -145 -12 -231q-8 -145 -12 -242z" />
<glyph unicode="n" d="M150 121q0 -45 43 -70q35 -20 75 -20q43 0 56 49l4 16q2 4 2 15q4 23 8 30q84 238 192 387q96 133 158 134q25 0 37 -21q29 -55 39 -113l6 -24q27 -117 35 -162q29 -143 49 -246l6 -20q10 -41 14 -58q20 -51 70 -51q51 6 103 37q63 51 67 94q-4 23 -51 41q-8 0 -19 60 q0 2 -6 30q-6 33 -8 45q-23 131 -37 193l-2 8q-12 61 -18 98q-8 41 -17 68l-6 25q-8 33 -14 57q-4 8 -4 10q-6 33 -35 68q-6 10 -33 28q-23 16 -78 19q-133 -2 -274 -170q-103 -102 -201 -301q0 -20 6 -94q2 14 5 34q4 35 4 48q6 76 16 159l6 66q4 39 8 69q2 10 2 21 q4 25 9 92l2 25q-8 23 -76 69q-70 29 -100 33q-37 -6 -37 -31q-2 -4 -2 -26q0 -31 8 -82q8 -55 10 -191q-2 -215 -12 -295l-2 -30q-8 -88 -8 -123z" />
<glyph unicode="o" d="M88 311q0 -178 102 -250q105 -77 279 -77h4q313 8 465 180q147 160 147 340q-2 158 -106 239q-92 82 -291 84q-236 -2 -412 -139q-184 -141 -188 -377zM285 406q4 123 90 200q78 76 215 82q147 0 219 -76q78 -74 80 -202q-2 -129 -86 -213q-74 -80 -203 -80 q-111 0 -213 78q-96 70 -102 211z" />
<glyph unicode="p" horiz-adv-x="1300" d="M180 -573q2 -47 51 -76q43 -27 72 -27h25q4 2 8 6l8 8l10 13l31 925v11l-2 6q0 18 16 106q18 111 101 213q66 66 133 97q80 39 166 41q90 0 135 -25q49 -76 51 -223q-2 -190 -86 -289q-84 -96 -237 -96q-127 4 -166 22l-2 2q-14 6 -29 17q-20 8 -31 16q-39 0 -51 -20 q-8 -12 -8 -35q0 -63 82 -115q70 -37 180 -37q201 8 385 213q176 195 188 428q0 143 -80 213q-78 74 -219 78q-137 0 -286 -65q-106 -41 -219 -154q0 -4 2 -12v-9q2 18 2 91q-12 47 -74 94q-61 37 -100 41q-31 0 -43 -33v-2q-7 -15 -7 -33t2 -39q0 -16 5 -45l2 -37 q0 -12 2 -26v-8v-787q0 -133 -7 -281q-10 -137 -10 -167z" />
<glyph unicode="q" horiz-adv-x="1300" d="M88 258q0 -125 80 -203q83 -71 221 -71h4q174 4 326 61q109 31 174 88q-16 -104 -43 -224t-76 -321q-20 -104 -39.5 -175.5t-38.5 -131.5q-16 -51 -16 -61q0 -4 2 -6v-5q12 -35 24.5 -53t30.5 -37q25 -14 82 -14q35 47 103 86q29 20 89 53t109 54q29 12 70 23t86 19.5 t86 13.5t63 5q84 10 116 22.5t32 34.5q0 2 2 6t2 9q0 23 -31 37l-53 2q-61 4 -111 4q-14 0 -34 -2h-25q-47 -2 -111.5 -14.5t-109.5 -24.5q-12 -4 -45 -17q-39 -16 -66 -24q-2 -2 -6 -2l-4 -2q-4 -2 -10 -4q-35 -8 -58 -13q-2 0 -4 2q4 0 4 -4q2 41 7.5 80t23.5 121 q10 51 29 127q23 92 37 157.5t41 196.5q10 72 22 152q16 123 30.5 204.5t49.5 217.5l-10 18q-23 35 -34 58.5t-11 37.5q0 29 45 31q-6 8 -23 25q-27 31 -47 41q-45 31 -98 36q-33 0 -49 -28q0 -2 -2 -10q-2 -10 -4 -27l4 -51q-37 33 -48.5 43t-25.5 22q-68 57 -168 64 q-197 -14 -389 -211q-197 -203 -205 -416zM311 342q4 152 99 276q45 63 91 92t122 31q84 -10 119.5 -19t88.5 -38q49 -37 101 -100l-17 -260q-33 -43 -70.5 -77t-90.5 -67q-113 -59 -222 -63q-119 4 -170 69q-51 66 -51 156z" />
<glyph unicode="r" horiz-adv-x="927" d="M164 723q2 -10 2 -14q6 -66 20 -123q2 -14 13 -76q8 -57 10 -72q16 -139 18 -241l2 -52q2 -82 4 -106q6 -49 48 -59q23 -8 71 -9q47 6 47 86q0 53 27 144q53 139 98 229q37 78 72 154q10 -12 51 -25q49 -35 117 -35h16q10 2 17 2q53 6 86 27q18 10 28.5 25.5t14.5 29.5 q-8 45 -37 45h-8q-8 -2 -13 -2q-23 4 -41 19q-49 53 -77 139q-27 82 -31 109q-2 12 -8 24q-4 6 -6 14h-37q-61 -10 -97 -82q-28 -55 -28 -106q0 -21 4 -45q-14 -27 -51 -94q-43 -84 -50 -94q-35 -39 -57 -80q0 6 -2 10q-2 72 -6 174q-2 39 -2 70q-12 37 -62 65 q-41 16 -92 17q-47 -10 -51 -27q-10 -10 -10 -31v-10z" />
<glyph unicode="s" horiz-adv-x="1048" d="M109 150q0 -102 75 -146q57 -37 226 -37q199 0 350 78q170 80 178 268q-6 121 -119 170q-117 39 -213 52q-119 10 -207 30q-66 14 -71 66q0 49 49 80q47 37 162 39q158 -12 227 -54q8 -4 31 -18q2 0 8 -4l24 -12q41 -21 45 -21q37 6 50 49q0 4 2 8q0 12 2 25v6 q0 57 -54 107q-49 47 -194 49q-174 0 -356 -76q-188 -80 -201 -262q10 -117 117 -150q95 -30 208 -30h7q100 -2 202 -27q74 -18 76 -82q0 -100 -35 -158q-25 2 -137 2q-156 4 -260 58l-43 24q-80 35 -104 41q-16 0 -29.5 -13t-13.5 -32v-12q-2 -10 -2 -18z" />
<glyph unicode="t" horiz-adv-x="679" d="M-70 1303q0 -16 9 -37q14 -37 65 -113l8 -14q57 -45 105 -56q33 -6 65 -6q39 0 74 8q-10 0 -13 -24.5t-3 -75.5q0 -66 -2 -149v-45q-23 0 -68 4q-20 4 -37 4q-61 6 -80 6q-27 0 -37 -14l-2 -3q-10 -18 -10 -32q0 -27 25 -66q31 -51 69 -51l142 2v-96q2 -80 2 -146 q0 -14 -2 -49q-2 -84 -2 -112q-2 -27 -5 -64q-2 -27 -2 -33q-2 -16 -2 -26q0 -33 -4 -54q0 -49 11.5 -78.5t50.5 -48.5q12 0 30 3q16 2 29 2q27 4 48.5 10t54 19.5t83 39t123.5 68.5q-145 0 -183 -1t-66 -3v94q4 18 4 59q0 14 -2 29v35q-2 51 -2 117q-2 37 -3 57q0 49 5 180 v12q147 16 215 35q73 29 73 71q0 34 -14 40q-8 14 -41 14q-18 -6 -117 -12q-41 -6 -98 -8q-16 -2 -25 -2q5 188 17 284q0 16 -19.5 41t-49.5 50.5t-58.5 46t-52.5 36.5q-49 23 -93 58q-20 20 -36 47q-4 20 -6.5 45.5t-2.5 64.5q-74 -16 -108 -47q-25 -20 -41 -57 q-20 -37 -21 -59z" />
<glyph unicode="u" d="M111 227q0 -70 24 -129q29 -100 139 -106q145 8 295 151q117 104 187 256v-20q6 -37 10 -72q8 -45 10 -57q12 -72 27 -144q0 -6 4 -18q2 -6 2 -8q12 -61 27 -100q25 -49 63 -50q20 4 94 47l13 9q12 10 18 12q16 12 20 16q27 20 31 25q0 6 -2 20t-2 15v8q-14 31 -53 31 q-39 18 -68 223q-39 246 -39 328q0 29 2 32q0 4 2 29v27q-63 0 -114 -17q-43 -14 -66 -86q-49 -203 -168 -342q-111 -141 -215 -147q-37 0 -49 33q-22 39 -22 104v6q6 111 36 238q25 92 39 157l2 9q-6 41 -77 84q-41 18 -84 28q-27 0 -36 -7t-9 -24q-5 -8 -5 -43 q-2 -43 -6 -122v-5q-2 -20 -2 -26q-8 -84 -14 -113q-8 -61 -10 -143v-6v-21l-2 -41q-2 -33 -2 -41z" />
<glyph unicode="v" horiz-adv-x="1048" d="M23 776q0 -29 32 -47l4 -2q8 -4 19 -20l4 -5q41 -49 88 -167q47 -123 90 -250q2 -8 8 -25q49 -150 72 -203q55 -115 98 -120q86 29 320 311q219 276 243 442q0 51 -45 137q-57 86 -92 91q-14 0 -22 -13.5t-17 -40.5q-6 -2 -6 -26q-18 -258 -141 -476q-115 -215 -156 -227 q-14 6 -35 78q-8 23 -16 45q-43 121 -59 172q-37 123 -74 227l-23 60q-20 53 -28 65q-25 33 -101 41h-30l-25 2q-23 2 -25 2q-18 0 -34 -2h-6q-43 -8 -43 -49z" />
<glyph unicode="w" horiz-adv-x="1667" d="M45 836q0 -12 43 -72q27 -37 82 -164q43 -104 80 -211q16 -51 37 -121q20 -63 28 -90q25 -82 56 -160q35 -79 77 -79h1q33 8 104 139q51 70 117 176q51 106 96 188q0 2 4 7q2 6 6 12q29 74 33 74q2 0 18 -70q6 -16 9 -16q10 -27 14 -41q43 -115 55 -138q35 -80 86 -168 q53 -125 111 -135q100 12 287 264q176 238 194 480q-6 119 -74 168q-70 55 -100 55q-14 0 -31 -12q-10 -8 -14 -19q0 -16 6 -41q2 -12 4 -26q2 -10 2 -15q4 -16 8 -92q0 -6 2 -37q-6 -176 -75 -356q-59 -158 -119 -170q-27 4 -64 88q-33 63 -90 211l-4 12q-8 20 -16 41 q-31 80 -51 137q-12 29 -19 50q-55 119 -80 124q-29 -6 -90 -116l-6 -15q-10 -25 -18 -39q-8 -16 -37 -75q-33 -63 -43 -88q-68 -141 -107 -215q-33 -80 -47 -80q4 0 6 2q-18 41 -30 80q-43 129 -60 184q-6 18 -8 27q-74 205 -102 290q-14 68 -88 82q-76 18 -115 19 q-35 0 -39 -2q-39 0 -39 -47z" />
<glyph unicode="x" d="M72 -117q0 -23 26 -73q31 -37 64 -48q31 0 80 64q33 55 67 131l4 10q55 121 95 193q33 63 106 180q137 -207 211 -295q94 -106 141 -106q33 0 92 20q70 35 80 70q0 29 -106 121q-84 59 -297 342q135 135 250 178q147 59 155 108q-2 41 -28 76q-35 41 -70 45h-8 q-29 0 -105 -53q-70 -37 -258 -260l-186 239q-39 39 -78 47q-37 12 -86 13q-53 0 -90 -11q-59 -16 -59 -51q0 -39 110 -118q82 -53 262 -271q-55 -72 -69 -92q-29 -35 -92 -119l-58 -80q-141 -190 -153 -260z" />
<glyph unicode="y" d="M29 -659q0 -37 30 -70q27 -33 68 -41q39 10 117 41q33 14 96 34.5t117 35.5q29 8 72.5 11t91.5 3q47 0 89 -3t58 -5q41 -10 63 -11q51 0 58 46q0 2 2 8q2 4 2 8q0 27 -31 35l-43 12q-125 29 -166 33q-45 6 -118 6q-20 0 -66 -2q-27 -2 -41 -2q-10 -2 -39 -6 q-55 -10 -80 -15q0 -2 -6 -2q-39 -8 -53 -8q20 0 20 -10q-4 0 -4 -2q4 35 62 149q23 39 41 71t45.5 77t74 113.5t93.5 138.5q133 166 217 283.5t135 209.5q23 57 37 96t23.5 75t14.5 64.5t11 80.5q0 4 2 26v25q0 135 -53 217q-63 96 -178 121q-72 0 -132 -25 q-61 -20 -88 -61q-12 -16 -22 -64l-2 -12q0 -78 8 -109q14 -41 33 -49q2 0 8 -2h8q20 0 49 29q16 27 41 47l4 2q39 29 64 37l4 2q29 8 51 8q29 -4 41 -12q39 -35 49.5 -54.5t12.5 -60.5q-4 -70 -26 -148.5t-67 -172.5q-61 -109 -109 -184.5t-112 -157.5q-18 41 -45 108 l-18 43q-12 33 -43 105l-29 63l-4 10q-16 31 -45 107q-2 6 -6 16q-6 16 -10 23q-6 14 -23 51q-16 33 -18 43q-35 66 -84 92q-61 27 -113 27q-35 0 -72 -13q-53 -12 -59 -53q0 -27 33 -51l24 -25q4 -4 8 -10q6 -4 9 -8q121 -162 206 -358q98 -213 144 -363 q-33 -49 -70 -102.5t-89 -127t-77.5 -110.5t-48.5 -70l-4 -4q-131 -184 -143 -249z" />
<glyph unicode="z" d="M72 63q0 -61 86 -79q66 -16 215 -17q317 6 510 43q223 49 241 96q0 12 -2 29v8q-20 16 -53 17q-68 -6 -135 -17l-39 -2q-121 -6 -170 -6q-74 0 -229 8h-7q-139 6 -155 31q4 16 92 51q2 2 6 2q37 23 53 33q137 80 193 113q252 150 307 198q66 59 66 117v17q-2 -1 -2 -5 q0 82 -111 121q-90 37 -418 39q-199 0 -250 -29q-41 -23 -77 -61q-29 -43 -35 -53q-18 -31 -19 -53q0 -10 2 -17v-2q8 -35 47 -35q12 0 80 19q29 12 115 41l29 10q66 20 172 41q88 20 159 20q37 0 62 -12l4 -2q4 0 4 -2q-12 -63 -111 -141q-90 -78 -249 -191 q-154 -100 -256 -176q-125 -100 -125 -154z" />
<glyph unicode="{" horiz-adv-x="679" d="M47 647q172 -29 227 -100q33 -59 33 -150v-405q0 -186 74 -262q74 -84 281 -84v84q-106 18 -158 75q-39 57 -39 187v387q0 117 -35 186q-14 61 -51 84q35 23 47 82q39 72 39 195v387q0 125 37 182q45 61 160 80v82q-195 0 -279 -84q-76 -76 -76 -260v-387 q0 -127 -33 -181q-61 -63 -227 -98z" />
<glyph unicode="|" horiz-adv-x="477" d="M129 1616q0 -31 2 -78v-33q0 -117 8 -196q4 -82 6 -152l13 -461q2 -160 2 -344q0 -182 4 -350q2 -76 6 -190l2 -60q6 -117 45 -129q2 0 10 -2h11q23 0 55 10q29 16 53 58v59q-2 2 -2 19q0 25 -4 73v13q0 14 -4 67v14q-6 63 -10 232v16q-2 39 -2 70l-2 70q-3 91 -3 124 q-4 135 -4 375q-4 231 -6 329.5t-2 154.5q0 20 2 45v24q2 70 2 154q0 33 -4 145v27v35q-18 100 -41 108q-23 4 -39 4q-27 0 -43 -12q-37 -18 -49 -53q-4 -8 -5 -29.5t-1 -73.5v-63z" />
<glyph unicode="}" horiz-adv-x="679" d="M14 -270v-84q201 0 283 123q74 63 74 223v405q0 98 28 150q59 72 230 100q-158 33 -226 101q-32 45 -32 178v387q0 184 -74 260q-86 84 -283 84v-82q113 -18 164 -82q37 -55 37 -180v-387q0 -129 37 -195q8 -59 41 -82q-35 -27 -45 -84q-20 -37 -27 -88q-6 -37 -6 -98 v-387q0 -127 -41 -187q-55 -57 -160 -75z" />
<glyph unicode="~" horiz-adv-x="1396" d="M143 598l129 -147q35 104 93 170q35 43 100 47q55 0 110 -23q59 -31 105 -61q49 -33 117 -64q59 -25 133 -24q98 0 170 57q74 59 147 190l-125 142q-47 -104 -110 -170q-37 -35 -72 -35t-90 20q-10 6 -51 27q-4 2 -29 14q-29 12 -37 19l-35 16q-35 18 -84 41l-14 6 q-72 27 -143 27q-92 0 -172 -55q-76 -60 -142 -197z" />
<glyph unicode="&#xa1;" horiz-adv-x="679" d="M193 -526q4 -63 63 -109q65 -41 100 -41q18 0 43 17q10 10 17 67q0 41 -2 90q0 61 -2 88q-2 72 -6 160q0 6 -3 29q-2 43 -2 176v135q0 102 7 201q2 92 6 176q-2 31 -58 67q-8 2 -20 7q-31 14 -43 14q-41 0 -41 -4q-2 0 -2 -51q-2 -72 -2 -134q-4 -268 -8 -335l-4 -78 q-6 -76 -11 -129q-4 -61 -6 -86q-8 -59 -20 -172q-6 -61 -6 -88zM236 825q0 -8 2 -22v-17v-92q0 -61 20 -65q2 0 4 -2q8 -2 10 -4q8 -4 25 -9l12 -4q4 -2 25 -8q23 -8 31 -10h47q23 18 22 78q0 78 -2 139v16q-2 12 -2 39q-8 39 -59 64q-39 23 -82 22q-41 0 -51 -57v-8 q-2 -12 -2 -33v-27z" />
<glyph unicode="&#xa2;" horiz-adv-x="1300" d="M141 248q0 -150 111 -217q86 -63 252 -64q-4 -20 -8 -33q-10 -31 -11 -40q-2 -10 -4 -23q-4 -12 -4 -14q-2 -10 -2 -17l-2 -4q0 -39 2 -39q0 -2 39 -2q31 0 47 17q16 12 23 30l28 125q164 6 342 76q213 72 238 156q0 23 -12 43l-19 10h-18q-25 0 -62 -23q-2 0 -8 -4 t-8 -4q-47 -29 -86 -47q-27 -14 -129 -53q-63 -18 -160 -19h-51h-12q10 0 14 -16l145 621q102 -8 162 -31q16 -6 43 -19q35 -14 47 -14q39 0 47 43v6q2 14 2 29q0 82 -65 123q-63 41 -172 41q-8 0 -31 -4h-6h-8q-6 -2 -23 -7l39 11q6 29 19 67l2 11q0 2 2 8v8v4q0 41 -37 41 q-12 0 -37 -10l-6 -2q-27 -12 -27 -23q-2 -2 -2 -10q-2 -16 -4 -23q-2 -6 -8 -20q-2 -8 -2 -10q-2 -10 -4 -19q-8 -41 -10 -49q-223 -59 -388 -227q-172 -168 -178 -383zM367 338q4 160 104 258q82 96 203 109l-139 -586q-90 20 -125 80q-43 59 -43 139z" />
<glyph unicode="&#xa3;" horiz-adv-x="1300" d="M86 131q0 -74 57 -117q47 -47 140 -47q186 0 372 17q78 6 209 18q49 4 103 8q49 6 63 6q119 10 184 33q51 20 52 72q0 14 -2 22q0 14 -9.5 17.5t-31.5 3.5h-13q-4 -2 -10 -2q-53 0 -162 -6q-94 -4 -243 -4q-70 0 -136 4q-49 2 -143 6q-12 2 -63 2q-45 0 -58 2h-51h98 q37 37 66 98q78 102 84 228l-4 40q-4 55 -6 76q-2 10 -7 37q-4 29 -6 37q12 2 27 2q10 0 43 4q41 4 55 4h45q43 4 78 8q14 2 23 2q68 6 108 21q49 20 49 59q0 29 -14 43l-8 4l-6 5q-18 8 -25 8q-117 0 -178 2h-84q-78 2 -133 2l-4 76q0 240 86 387q78 135 213 141 q164 -23 172 -152q12 -179 86 -202q55 0 86 57q20 47 24 121q0 117 -65 213q-68 96 -223 96q-186 0 -381 -131q-205 -137 -224 -434q0 -12 3 -55l2 -21q2 -16 2 -35q4 -18 6 -57v10q10 -8 18 -8l-31 4q-55 8 -63 10q-10 2 -39 4q-29 4 -43 7q-29 0 -43 -15q-12 -8 -12 -39 q0 -25 22 -88q35 -70 80 -71q39 0 76 4h4q43 0 66 2q2 -14 14 -58q6 -25 12 -49q2 -14 6 -24q2 -8 2 -11q16 -86 19 -143q0 -70 -78 -137q-80 -68 -192 -68q-27 0 -35 -4q-20 0 -24.5 -8t-4.5 -37z" />
<glyph unicode="&#xa4;" horiz-adv-x="1300" d="M55 143l125 -143l125 143q61 -59 141 -88q90 -39 201 -39t201 39q80 27 141 88l123 -143l125 143l-117 140q49 63 78 170q33 102 33 227q0 119 -35 229q-31 98 -78 164l119 139l-125 144l-123 -144q-51 49 -131 84q-100 43 -213 43q-102 0 -207 -43q-86 -37 -133 -84 l-125 144l-125 -144l119 -139q-47 -61 -76 -162q-31 -119 -30 -233q0 -135 28 -223q33 -109 80 -172zM252 682q4 188 113 330q106 135 280 143q178 -10 285 -143q115 -141 117 -334q-2 -199 -121 -336q-106 -131 -281 -137q-162 4 -276 135q-113 139 -117 342z" />
<glyph unicode="&#xa5;" horiz-adv-x="1300" d="M-150 1452q0 -45 33 -45q12 -4 25 -4q14 0 57 -62q68 -70 187 -317l165 -356h-149q-35 0 -57 -23q-25 -18 -25 -55q0 -18 4 -27l2 17q8 -49 43 -50h250l100 -215h-317q-41 0 -59 -22q-23 -25 -23 -57q0 -18 8 -33l2 -4q16 -18 41 -19h412l31 -61q-12 -20 -58 -99 q-23 -37 -43 -73q-6 -12 -8 -17q-72 -123 -123 -182q-6 -10 -18 -18q-2 0 -6 -4t-9 -7l-4 -2q-8 -6 -12 -6h-14h-17q-25 -16 -24 -49q0 -33 39 -63q45 -23 88 -23q57 4 100 64q23 29 53 92l236 448h368q25 0 56 21q25 20 30 57q0 23 -10 37q-16 20 -47 20h-330l103 215h203 q37 0 59 29q20 27 22 47q0 29 -10 43q-20 18 -47 19h-166q115 262 174 419q72 195 74 248q-8 90 -94 168q-92 80 -131 80q-14 0 -21 -2q-14 0 -17 -10t-3 -33q0 -20 22 -80q16 -45 21 -135q-2 -113 -49 -291q-43 -168 -119 -364h-299l-305 700q-37 88 -111 113 q-55 25 -186 24q-47 0 -66 -8q-31 -10 -31 -45zM602 530h193q-16 -43 -39 -81q-39 -89 -68 -134h12z" />
<glyph unicode="&#xa6;" horiz-adv-x="555" d="M193 -33h169v686h-169v-686zM193 1030h169v688h-169v-688z" />
<glyph unicode="&#xa7;" horiz-adv-x="1300" d="M164 586q0 -184 121 -260q43 -29 131 -54q70 -14 174 -14q141 0 217 -49q63 -51 63 -160q-4 -104 -67 -158q-74 -63 -189 -63q-127 8 -200 86q-68 86 -68 188q0 23 -2 29q0 37 -43 37q-23 0 -78 -94q-45 -41 -47 -101q2 -143 123 -215q115 -63 272 -63q195 6 344 123 q158 129 166 282q-2 113 -84 191q-31 53 -79 65q10 6 57 70q143 104 158 317q-6 135 -115 215q-94 68 -230 123q-131 51 -221 107q-78 51 -84 137q6 92 84 148q78 53 131 53q131 -18 166 -131q47 -153 76 -176q55 0 80 63q18 43 18 115q0 125 -65 182q-55 66 -205 68 q-178 -6 -322 -115q-154 -113 -159 -285q18 -162 159 -223h70q-84 0 -188 -106q-152 -109 -164 -332zM389 649q0 109 70 189q67 80 186 80q113 -2 195 -70q80 -63 80 -176q0 -133 -82 -203q-76 -74 -213 -74q-115 0 -172 64q-63 74 -64 190z" />
<glyph unicode="&#xa8;" horiz-adv-x="555" d="M23 1341q0 -164 2 -178q0 -8 2 -20v-17q4 -41 57 -61q31 -16 80 -16q43 0 49 30q6 16 6 43v138v43q-6 43 -12 51q-4 10 -43 22q-8 4 -21 8q-6 2 -26 7l-17 4q-2 4 -16 6h-6q-27 0 -47 -25q-8 -16 -8 -35zM334 1341q0 -158 2 -172q2 -16 2 -43q4 -39 59 -61q31 -16 78 -16 q51 0 51 32q4 10 4 41v138v43q-6 43 -12 51q-4 10 -43 22l-16 8q-8 2 -33 9l-14 2q-2 4 -17 6h-6q-27 0 -47 -25q-8 -16 -8 -35z" />
<glyph unicode="&#xa9;" horiz-adv-x="1671" d="M94 805q6 -342 207 -586q207 -244 533 -252q315 6 526 246q203 229 215 592q-6 346 -211 588q-207 242 -533 254q-309 -8 -518 -246q-207 -231 -219 -596zM254 803q6 299 174 491q167 195 403 201q236 -6 408 -199q166 -186 178 -493q-6 -283 -170 -484 q-168 -199 -413 -202q-248 4 -408 202q-168 201 -172 484zM309 649q14 -76 32.5 -111.5t80.5 -86.5q55 -39 111.5 -55.5t148.5 -16.5q260 6 444 82q18 6 25 6q49 12 76.5 24.5t66.5 45.5q27 33 41.5 56t22.5 58q-25 37 -51 37q-23 0 -70 -37q-20 -14 -31 -20l-4 -8 q-16 -25 -28.5 -36.5t-32.5 -15.5q-80 -27 -151.5 -42t-149.5 -15q-168 0 -252 66q-78 57 -78 174q6 166 117 266q41 45 101 70.5t136 31.5q121 -6 205 -30q8 -2 21 -13q12 -10 22 -12q33 -18 66 -18q14 0 32.5 27.5t18.5 41.5q-8 2 -8 15q0 39 -13.5 62.5t-40.5 47.5 q-53 49 -178 51q-248 -12 -475 -190q-115 -88 -160 -194.5t-45 -260.5z" />
<glyph unicode="&#xaa;" horiz-adv-x="864" d="M100 1006q0 -80 58 -121q45 -39 155 -39q113 0 215 45q82 29 127 72l-8 53l10 -47q14 -80 19 -92q29 -53 49 -54q31 0 72 21q57 41 57 59q0 23 -5 30t-28 7l2 2h-4q-25 12 -37 143q-25 188 -24 287q-27 -23 -82 -45q-8 -4 -21 -4q4 -2 11 -2q-35 37 -62 51q-39 23 -92 23 q-131 0 -264 -121q-136 -116 -148 -268zM285 1044q0 78 61 152q58 70 162 82q43 0 57 -6q18 -12 25 -19q14 -16 28 -92q2 -8 3 -37q0 -35 -13 -57q-37 -41 -102 -72q-76 -31 -119 -30q-39 0 -76 26q-27 25 -26 53z" />
<glyph unicode="&#xab;" horiz-adv-x="1048" d="M80 473l416 -461l104 97l-321 358l346 311l-97 105zM391 473l414 -461l104 97l-323 358l342 311l-94 105z" />
<glyph unicode="&#xac;" horiz-adv-x="1351" d="M104 842h1029v-561h110v690h-1139v-129z" />
<glyph unicode="&#xad;" horiz-adv-x="927" d="M70 489q0 -35 14 -53q24 -65 104 -69h111q96 2 158 2q137 0 159 2h78h23h59q72 16 80 37q0 20 -12 69q-16 63 -60 64q-84 0 -125 -2q-78 -4 -225 -4q-141 0 -219 4q-23 2 -80 2h-26q-39 -14 -39 -52z" />
<glyph unicode="&#xae;" horiz-adv-x="1671" d="M94 805q4 -338 207 -586q209 -244 533 -252q315 6 526 246q207 238 215 592q-6 324 -209 547q-203 279 -535 295q-309 -8 -518 -246q-209 -231 -219 -596zM254 803q6 299 174 491q165 195 403 201q233 -6 408 -199q166 -186 178 -493q-6 -283 -170 -484 q-172 -199 -413 -202q-246 4 -408 202q-168 201 -172 484zM481 1255q0 -51 16.5 -65t49.5 -14q23 0 37 -2h12l-14 -617q4 -84 10 -117.5t26 -58.5l25 -31l143 -51l-28 96q-4 29 -5 66t-1 96l-2 139l10 -4l71 -24q33 -10 61 -48t62 -100q27 -49 35 -57q31 -39 57.5 -62.5 t59.5 -40.5l197 -59l-76 109q-8 12 -23 26q-78 96 -119 162q-27 74 -55.5 112t-87.5 46q68 35 88.5 50t46.5 48v2q51 78 51 174q-2 119 -79 187q-74 61 -201 61l-76 2h-49l-4 33l-10 71q-66 -12 -90.5 -30.5t-24.5 -65.5q-6 0 -29 4q-23 2 -35 2q-20 0 -32.5 -8t-16.5 -31z M729 1174l86 -3q61 0 105 -32q35 -37 36 -119q0 -84 -34 -135q-6 -6 -17 -23q-12 -20 -24.5 -33.5t-40.5 -29.5l-43 -17l-45 -12h-4z" />
<glyph unicode="&#xaf;" horiz-adv-x="1122" d="M0 1868h1120v98h-1120v-98z" />
<glyph unicode="&#xb0;" horiz-adv-x="952" d="M127 1249q6 -188 104 -286q106 -106 242 -107q143 0 246 107q102 113 102 288q0 172 -102 283q-109 111 -246 113q-133 -2 -237 -105q-102 -109 -109 -293zM266 1249q4 111 66 176q61 68 141 70q82 -2 141 -68q66 -70 70 -178q-2 -109 -68 -176q-53 -66 -141 -65 q-90 0 -143 65q-61 70 -66 176z" />
<glyph unicode="&#xb1;" horiz-adv-x="1351" d="M104 0h1137v125h-1137v-125zM104 707h517v-476h108v476h512v124h-512v476h-108v-476h-517v-124z" />
<glyph unicode="&#xb2;" horiz-adv-x="864" d="M39 608q0 -37 29 -59q18 -23 108 -23q279 0 428 21q211 29 219 78q0 25 -3 33t-17 14h-23q-4 0 -90 -6t-250 -7h-20q-8 0 -19 -2h-12h-27q-14 2 -36 2q-43 0 -47 -4q0 4 57 25q59 27 178 108q98 82 182 199q84 78 90 168q0 113 -75 178q-74 61 -217 62q-174 0 -285 -99 q-115 -96 -119 -247q0 -72 47 -117q45 -39 113 -39q51 0 84 16q53 25 55 56q0 33 -14 47h-21h-10q-31 0 -49 16q-20 12 -21 55q4 74 58 138q51 63 119 71q59 -2 96 -51q37 -41 39 -121q0 -74 -43 -139q-55 -80 -189 -164q-184 -111 -239 -133q-76 -33 -76 -76z" />
<glyph unicode="&#xb3;" horiz-adv-x="864" d="M25 582q0 -78 65 -115q51 -39 137 -39q166 4 336 115q180 121 193 295q0 100 -80 139q6 35 12 35q2 12 2 47q57 63 58 141q-2 104 -91 152q-70 43 -190 43q-143 -2 -248 -70q-113 -75 -119 -143q0 -39 19 -68q18 -25 53 -24q45 6 123 112q47 80 176 92q51 0 78 11 q25 -45 24 -109q-2 -90 -86 -131q-37 -16 -98 -27q-51 -10 -158 -10q-37 0 -36 -35v-10q0 -41 10 -61q18 -33 45 -33q14 0 88 12q55 10 113 14q57 -2 92 -28q29 -20 30 -66q-2 -109 -81 -178q-84 -66 -195 -65q-86 4 -147 28q-51 27 -84 37q-27 0 -33 -7t-6 -26 q-2 -6 -2 -28z" />
<glyph unicode="&#xb4;" horiz-adv-x="555" d="M125 1018q0 -23 8 -37t19 -14q14 -8 38 -9q74 14 193 140q117 129 129 215q0 27 -25 61q-22 63 -71 86q-33 -14 -66 -74q-4 -6 -8 -18q-8 -18 -16 -33l-31 -61q-80 -152 -117 -176q-53 -39 -53 -80z" />
<glyph unicode="&#xb5;" horiz-adv-x="1126" d="M59 -541q4 -35 43 -69q43 -37 74 -39q20 0 27 63q4 92 4 207q0 131 10 217q0 6 2 10l2 27q8 96 12 133q10 -8 27 -8h23q150 12 288 158q141 150 213 331q55 -358 84 -464q18 -90 41 -91h4q25 8 82 41q61 43 70 52q0 18 -2 22q-2 10 -19 10q-63 31 -96 269 q-29 188 -39 315q0 27 6 51q2 14 3 19q-27 0 -58 -6q-27 -2 -55 -27q-27 -41 -57 -158q-33 -123 -156 -272q-63 -72 -121 -109q-61 -33 -109 -32q-49 0 -73 47q-27 41 -27 127q4 133 37 256q39 143 41 163q-6 16 -57 50q-47 25 -80 28q-10 0 -10 -12q-4 -8 -5 -41 q-4 -90 -6 -141q-8 -104 -16 -162q-6 -68 -14 -178q-8 -68 -13 -205q-2 -59 -12 -231q-14 -178 -29 -265q-6 -47 -22 -53q-16 -4 -17 -33z" />
<glyph unicode="&#xb6;" horiz-adv-x="1396" d="M106 1079q0 -281 130 -420q115 -143 333 -143l-2 -455q-2 -43 -5 -75.5t-11 -100.5v-10q-2 -8 -2 -16q0 -51 18 -113q18 -41 43 -65.5t64 -57.5l10 -8q35 -18 60.5 -26.5t58.5 -16.5q23 -4 35 -8l206 125q-66 4 -98.5 12t-73.5 27q-39 18 -67 28q-43 27 -58.5 63 t-15.5 97l6 1559h107v-134l-41 -1409q6 -76 21.5 -115.5t49.5 -80.5q33 -25 69 -31t89 -6l189 160q-125 0 -183.5 17.5t-58.5 55.5v1409q6 57 29 58q12 0 30 -15q35 49 77 66.5t108 19.5q-16 74 -72 138h-551q-350 0 -418 -84q-76 -78 -76 -445zM330 1077q0 223 67 316 q59 82 172 82v-824q-100 0 -159 103q-80 109 -80 323z" />
<glyph unicode="&#xb7;" horiz-adv-x="512" d="M86 479q0 -41 25 -78q27 -35 84 -34q61 0 84 34q27 41 26 86q-10 57 -35 80q-34 29 -75 37q-41 -8 -76 -37q-33 -31 -33 -88z" />
<glyph unicode="&#xb8;" horiz-adv-x="555" d="M51 -332l53 -86q100 55 185 125q61 63 63 113q-8 70 -61 106q-33 16 -35 43q0 16 6 51q20 31 94 82h-135q-23 -27 -49 -63q-12 -16 -33 -43q-6 -10 -10 -14q-33 -59 -33 -82q8 -45 64 -97q35 -23 37 -36q-4 -10 -31 -25q-27 -27 -115 -74z" />
<glyph unicode="&#xb9;" horiz-adv-x="864" d="M80 1108q2 -33 41 -92q47 -37 80 -39q61 12 184 123q43 31 90 71l2 3q2 -12 2 -44q-2 -82 -12 -219q-2 -39 -6 -118q-2 -66 -4 -88v-13q0 -16 -2 -28q-2 -63 -2 -80q14 -37 65 -54q37 -14 64 -14h10q23 0 32 3t13 18v51q-6 0 -6 8q-6 35 -6 160q0 168 6 286q2 123 10 187 l4 45q2 16 4 33q4 20 4 26h6q0 39 -4 55.5t-18 16.5q-9 4 -25 4q-8 0 -67 -35q-4 0 -13 -8q-2 -2 -6 -4t-51 -35l-92 -61q-2 -2 -6 -4q-14 -10 -27 -17q-23 -14 -51 -31q-76 -45 -104 -61q-51 -23 -115 -45z" />
<glyph unicode="&#xba;" horiz-adv-x="786" d="M111 1065q0 -115 71 -170q59 -49 172 -49q201 0 312 92q109 90 114 248q0 104 -73 162q-70 47 -201 47q-145 -2 -262 -82q-127 -90 -133 -248zM268 1126q4 70 56 107q59 43 122 45q74 0 125 -43q51 -39 52 -109q0 -59 -45 -110q-55 -51 -129 -51q-49 0 -113 45 q-61 37 -68 116z" />
<glyph unicode="&#xbb;" horiz-adv-x="1048" d="M115 115l94 -105l448 408l-421 469l-97 -105l320 -354zM416 115l100 -105l447 408l-420 471l-94 -107l319 -354z" />
<glyph unicode="&#xbc;" horiz-adv-x="4710" d="M35 -16h4639v1960h-4639v-1960zM57 4v1917h4594v-1917h-4594zM80 301q0 -66 92 -158q90 -94 160 -94h4034q61 0 158 92q94 92 94 158v1329q0 78 -108 172q-102 88 -178 88h-3965q-82 0 -185 -90q-102 -90 -102 -174v-1323zM102 313v1301q0 80 97 166q94 84 178 84h3942 q82 0 178 -86q96 -88 97 -162v-1307q0 -61 -84 -149q-86 -88 -156 -88h-4012q-70 0 -154 86q-86 84 -86 155zM197 614q0 -215 114 -215q137 0 199 117q47 86 47 215q0 80 -57 258q-78 248 -189 248q-20 0 -50 -21.5t-42 -41.5q129 -45 201 -207q55 -127 55 -260 q0 -262 -110 -263q-57 0 -72 93q-4 25 -4 67q0 78 14 167t35 120q4 6 27 29q18 18 28 29.5t10 17.5q-115 -6 -170 -156q-37 -100 -36 -197zM420 1436q27 16 31 51q2 33 10 41h86q-4 -16 -25 -55q-23 -43 -35 -79t-12 -81q0 -63 12.5 -82t63.5 -19q111 0 141 70 q20 45 41 101.5t35 105.5l31 84h-78v-19q2 -39 2 -59q0 -43 -4 -78q-6 -74 -34 -122t-83 -48q-57 0 -57 101q0 104 92 223h-207q0 -6 -4 -39q-4 -45 -5 -60.5t-1 -35.5zM604 907q16 -16 23 -39q37 14 71 21v-45q-4 -193 -4 -303q0 -29 2 -84v-45h56q23 88 65 262 q52 155 146 180v102q-47 -8 -73 -35.5t-50 -95.5q-23 -61 -43 -90q-10 68 -11 221q-123 -49 -182 -49zM823 1282q0 -70 60 -70q39 0 75 52l23 34l35 56q4 -18 4 -47q0 -25 -2 -48.5t-6 -48.5v-8l4 2q41 18 67.5 27.5t42.5 9.5q-45 20 -59 27q23 266 23 315q-92 0 -179 -94 q-88 -98 -88 -207zM883 1313q0 61 41 130.5t94 106.5q0 -4 8 -16q8 -13 8 -31q0 -27 -12 -62.5t-32.5 -72.5t-42 -65.5t-36.5 -42.5q-29 29 -28 53zM1022 631q0 -231 158 -232q20 0 50 11.5t59.5 32t49 47t19.5 53.5v63q-8 -14 -12 -22q-37 -66 -65 -96.5t-73 -30.5 t-74.5 52t-29.5 122q0 41 8 47q25 10 102 22q43 8 69 13.5t34 13.5q18 18 18 90q0 152 -121 152q-109 0 -159 -148q-33 -94 -33 -190zM1116 715v71q0 14 8.5 39t21.5 50.5t29.5 42t32.5 16.5q25 0 41.5 -36.5t16.5 -61.5q0 -55 -28 -78t-122 -43zM1139 1534q8 -2 35 -6 q31 -4 34 -8l-8 -70q-12 -98 -15 -133t-3 -70q2 -33 30 -35q31 80 70 187q35 94 98 106v68q-61 -12 -69 -41q-18 -53 -37 -74q-18 82 -23 115l-39 -14q-27 -8 -47 -15.5t-26 -9.5zM1405 520q0 -121 65 -121q68 0 134 90q43 72 86 142q4 -37 4 -82q0 -37 -4 -94 q-2 -41 -2 -56q85 44 159 62q-6 6 -35 8t-34 8l22 490q-29 6 -55 6q-145 0 -252 -185q-88 -152 -88 -268zM1405 1532q63 -12 63 -129q0 -14 -3 -56t-5 -61q-6 -72 -6 -84q4 0 29 6q22 6 26 6q14 119 19.5 173.5t5.5 89.5q0 27 -3 47t-11 49q-72 -25 -115 -41zM1452 1714 q0 -16 8 -30.5t33 -14.5q11 0 27 4q8 2 14 18.5t6 30.5q0 2 -2 7v4q-2 12 -19.5 19t-37.5 7q-29 0 -29 -45zM1487 567q0 96 61 205q59 109 133 150q27 -41 27 -76q0 -86 -59 -207q-66 -129 -133 -147q-29 25 -29 75zM1569 1282q0 -70 57 -70q41 0 78 52q27 47 55 90 q6 -20 6 -56q0 -20 -2 -42.5t-6 -47.5v-6q4 2 10 4q37 16 62 25.5t43 9.5q-45 20 -60 27q23 266 23 315q-94 0 -178 -94q-88 -98 -88 -207zM1626 1313q0 25 14.5 61.5t37 72.5t46 64.5t39.5 38.5q0 -4 9 -16q6 -13 6 -31q0 -23 -12.5 -57.5t-32 -71.5t-41 -68.5t-35.5 -45.5 q-31 29 -31 53zM1860 918q27 -23 44 -30t38 -9q-2 -74 -6.5 -154t-4.5 -96q-6 -104 -6 -115q0 -41 17 -102h45q18 133 81.5 264t143.5 188l-37 -452h68q18 121 83.5 253t153.5 222q0 -139 -24 -488q112 29 112 80q-2 0 -12 -2q-14 -4 -23 -4q-6 0 -10 2l33 481h-88 q-111 -147 -182 -290q0 242 4 290h-78q-96 -127 -195 -290v28q-2 35 -2 51q0 70 4 199v12q-90 -39 -159 -38zM1888 1532q41 0 54 -12q0 -12 -3 -19q-8 -123 -8 -164q0 -49 9.5 -75.5t31.5 -49.5q18 145 135 281q0 -92 -3 -162.5t-9 -128.5q66 22 113 47q-31 4 -37 11 q-8 6 -8 34q0 262 -2 279q-39 -23 -78 -69t-88 -118q0 143 14 197q-59 -25 -121 -51zM2267 1475q0 -18 6 -29q76 152 76 162q0 12 -31 71q-51 -182 -51 -204zM2384 1239q51 -27 92 -27q117 0 117 111q0 23 -14.5 46.5t-34 40.5t-33.5 28.5t-21 15.5q-18 18 -18 49 q0 57 33 60q23 -23 32 -23l29 -47v80q-2 0 -16 6t-29 6q-37 0 -69.5 -32.5t-32.5 -71.5q0 -14 116 -187q0 -41 -65 -69q-41 20 -41 114q-4 0 -23 7q-18 6 -22 6v-113zM2615 915q57 0 82 -14l-43 -817q12 14 41 14q4 0 10 -2h13q2 12 12 137q6 88 14.5 187.5t16.5 184.5 t19 176t20 143q104 -1 104 32h-20q-12 -2 -19 -2q-47 0 -76 13v137q0 25 7.5 82t15.5 109.5t19.5 90t21.5 37.5q12 -16 23.5 -25t27.5 -9v90q-113 -39 -147 -133q-8 -16 -13.5 -59.5t-11.5 -115.5q-8 -82 -15 -137t-18 -80zM2931 596q0 -117 28.5 -157t110.5 -40 q221 0 221 326q0 244 -117 244q-141 0 -202 -144q-41 -94 -41 -229zM3013 1229h209q-39 20 -72 49q2 96 2 170q8 113 76 133q-123 0 -193 14q45 -41 70 -51q0 -131 -22.5 -211t-69.5 -104zM3023 631q0 82 14 160q25 131 80 131q92 -1 92 -232q0 -76 -14 -141 q-25 -115 -84 -115q-88 0 -88 197zM3244 1092q16 -2 31 -2q111 0 190 124q70 107 70 209q0 174 -127 174q-141 0 -141 -186q0 -152 110 -151q33 0 53 20q-104 8 -104 125q0 45 12 90q20 78 70 78q33 0 53 -66q16 -49 17 -90q0 -94 -62 -205q-66 -123 -154 -122q-4 0 -8 2 h-10zM3348 891q74 0 82 -12q0 -27 -3 -70t-9 -127q-6 -80 -8 -101.5t-2 -37.5q0 -82 24 -131h43q4 51 23.5 112.5t50.5 122t70 111.5t80 84q0 -102 -1 -158.5t-4.5 -88.5t-8.5 -58.5t-17 -73.5l-16 -62h6q4 -2 8 -2q33 0 82 23q78 37 90 39q-39 20 -66 28v467h-59 q-131 -162 -205 -303q0 53 3 122t7 143q2 49 3 51q-115 -57 -173 -78zM3547 1092q14 -4 29 -5q111 0 192 132q70 108 70 204q0 174 -129 174q-74 0 -111 -63q-29 -51 -28 -123q0 -152 110 -151q33 0 54 20q-104 8 -105 125q0 45 10 90q23 78 70 78q35 0 55 -66 q14 -49 15 -90q0 -102 -48 -188q-63 -113 -184 -137zM3873 915q47 0 69 -14q-10 -78 -10 -452q45 -39 92 -39q53 0 80 16q39 24 72 106l-43 52q0 -53 -24.5 -96.5t-61.5 -43.5q-16 0 -35 21v405q0 37 47 45q61 14 80 39h-14q-8 -2 -15 -2q-41 0 -75 15q0 25 -2 88v28 q-27 -12 -76 -12q0 -45 -25 -117zM3873 1110q0 -6 18 -25l266 500l-282 10q0 -68 4 -67q61 10 119 10q49 0 96 -8zM4211 436q78 -37 133 -37q20 0 50 13.5t56.5 37t44 55t17.5 68.5q0 66 -45 109q-88 80 -114 117t-26 59q0 25 26 50.5t46 25.5q10 -10 29 -41q29 -49 47 -64 v125q-6 0 -29 7q-33 8 -45 8q-63 0 -104 -45t-41 -107q0 -27 7 -47t23.5 -42.5t46 -54.5t82.5 -85l13 -13q16 -45 16 -61q0 -18 -31 -49t-69 -31q-37 0 -62.5 36t-25.5 75q0 12 8 45q2 14 2 16h-55q8 -14 8 -57q0 -41 -8 -113z" />
<glyph unicode="&#xbd;" horiz-adv-x="1916" d="M0 1108q2 -18 45 -90q51 -41 80 -41q55 12 182 123q68 49 94 76v-11q2 -18 2 -35q-6 -94 -12 -219q-8 -82 -12 -211v-8q-2 -41 -2 -104q6 -39 63 -58q31 -14 62 -14h10q23 0 32 3t13 18v51q-4 0 -6 8q-4 57 -4 160q0 80 4 258v30q2 104 14 183q2 47 6 78l2 14q2 10 2 14 h7q0 72 -23 72q-8 4 -24 4q-12 0 -84 -47q-25 -18 -113 -76q-20 -12 -47 -29q-12 -8 -19 -12q-16 -10 -39 -22q-27 -16 -45 -29q-23 -14 -57 -33l-14 -8q-61 -27 -117 -45zM498 -76q0 -16 30 -61q47 -33 64 -33q25 6 49 51q2 8 8 21l4 6l2 8l584 1448l4 12q6 12 10 15 q4 16 7 36l6 11q-10 41 -27 63q-20 23 -57 37q-29 -6 -49 -39q-14 -23 -17 -35l-600 -1476l-4 -8q0 -2 -2 -9q0 -6 -2 -8l-2 -8q-8 -23 -8 -31zM1014 70q0 -41 28 -62q29 -25 107 -24q242 0 428 18q215 29 221 82v41h-24q-6 2 -21 2h-6q-45 -6 -76 -8h-4q-76 -2 -252 -2h-20 h-31h-29h-37q-43 -2 -45 -8q0 6 58 24q43 23 180 111q100 72 180 157q82 90 88 207q0 113 -76 178q-63 61 -215 68q-178 -6 -284 -100q-115 -96 -119 -246q0 -86 47 -121q41 -37 113 -37q53 0 84 19q45 18 55 53q0 18 -12 35q-13 12 -33 12q-27 0 -49 16q-23 16 -23 56 q2 76 58 145q57 59 118 66q59 -2 97 -50q41 -49 43 -124q0 -70 -43 -136q-47 -72 -191 -168q-188 -113 -239 -133q-76 -39 -76 -71z" />
<glyph unicode="&#xbe;" horiz-adv-x="2697" d="M82 438q0 -57 31 -135l84 -125q-8 70 -9 119q0 82 27 156l39 -107q31 -72 57.5 -102.5t57.5 -30.5t86 37q37 51 47 81.5t16 98.5l31 379l2 -240v-20v-19q0 -80 13.5 -151.5t31.5 -114.5l22 -86l-147 -51l-205 -8q-18 -4 -18 -23q0 -29 49 -57.5t137 -32.5 q41 -29 93.5 -45t105.5 -16q106 0 176 59q94 0 136 15.5t42 37.5q0 16 -16 27l-187 35l-125 55l-34 92q0 2 -2 8q-25 84 -34 130.5t-9 105.5q0 4 2 27v32l-2 240l43 -365q4 -49 28.5 -92t77.5 -78q47 -39 93 -52t116 -13l39 16l39 31l63 -31q12 -4 23 -4q33 0 55.5 33 t22.5 70q0 20 -9 34q-41 53 -41 121q0 4 3 15v16l-105 -39q-29 -23 -45 -52.5t-16 -70.5q0 -6 2 -12v-14l26 -46l-24 -32l-43 -15q-12 2 -41 4q-35 2 -55.5 7.5t-45.5 23.5l-61 45q-43 49 -55.5 75t-12.5 60q-14 121 -24 192t-15 95q-2 27 -3 35t-5 45l70 -227 q16 -90 56 -127t83 -47q127 4 148 82q23 43 22 65q0 20 -20 45l-37 19q35 35 35 57q0 29 -76 43l-51 8q-8 -4 -17 -4q-20 0 -32.5 33t-16.5 112q-63 -39 -63 -112q0 -53 37 -121q49 -55 94 -55q31 0 67 24l45 -18q16 -12 17 -29q0 -8 -6 -27q-2 -2 -2 -4l-2 -6 q-18 -41 -48 -65.5t-100 -24.5q-45 20 -61.5 41t-36.5 68l-6 16l-93 289v-4q2 -2 2 -4q0 -20 -45 -21q-18 0 -33.5 5.5t-15.5 15.5q0 -66 -4 -125.5t-12 -137.5q-6 -68 -10 -106q-2 -12 -2 -37q-2 -45 -9.5 -72.5t-31.5 -62.5q-33 -57 -76 -57t-70 57l-71 168q47 27 58 49.5 t11 73.5t-55 51q-51 0 -111 -51l-35 -45q-25 -61 -24 -105zM289 86q0 6 14 8l176 6l139 56l-55 -90l-112 -39q-49 0 -105.5 21.5t-56.5 37.5zM485 14l99 39l49 99h16l31 -82l90 -56q-70 -45 -137 -45q-37 0 -72 12.5t-76 32.5zM532 885q0 -20 33 -21q37 0 37 21q0 2 -2 4v4 q12 39 38 60.5t81 35.5q4 0 26 2h27q74 0 125 -26q63 -29 125 -113l43 -66l70 -102l28 -45q25 -29 50.5 -84t43.5 -117q31 -86 31 -159q-4 -61 -14 -96.5t-37 -71.5q-29 -20 -78 -43q-29 -12 -35 -19q-14 -14 -14 -33q0 -14 11.5 -25t25.5 -11q12 0 20 6q86 29 127 69 q33 41 46.5 84t17.5 117q-6 76 -37 186q-18 59 -42 113.5t-46 93.5q-29 45 -45.5 70.5t-33.5 51.5t-36.5 50.5t-58.5 71.5q-23 49 -63 81t-93 52q-63 23 -133 23q-49 0 -84 -13q-57 0 -105.5 -44t-48.5 -87q0 -4 3 -8v-6v-4q-2 -2 -3 -2zM590 1167q76 0 133 -10 q37 -6 84 -20q41 -12 57 -13q12 0 25 4q16 16 16 50q-8 41 -51 63q133 51 203 51q29 0 55 -8q45 -12 77 -53t66 -148q4 -14 19 -41q20 -35 30.5 -73.5t10.5 -116.5l-4 -197l53 -243l39 243l-4 195q0 80 10 119t31 73q14 25 18 41q35 106 68 147.5t76 53.5q27 8 55 8 q70 0 203 -51q-43 -23 -52 -63q0 -33 17 -50q12 -4 24 -4q16 0 58 13q47 14 84 20q57 10 133 10q-29 12 -48.5 31t-37.5 41q-4 6 -15 23q-27 43 -47 53q-10 6 -26 6t-39 -6l-45 -41q-147 51 -224 51q-23 0 -43 -4q-57 -10 -103 -60.5t-99 -168.5l-37 424q12 -4 24 -5 q41 0 41 50q-14 72 -137 110q-27 6 -53 6q-47 0 -90 -20q-78 -37 -146 -148q39 29 84 43.5t84 14.5q35 0 52 -11q4 -2 12 -20q12 -29 26 -37q12 -8 29 -8q20 0 51 12l-20 -411q-53 119 -98 169t-105 60q-20 4 -43 4q-76 0 -223 -51l-45 41q-23 6 -39 6t-27 -6 q-20 -10 -47 -53q-10 -16 -14 -23q-16 -23 -37 -41t-49 -31zM664 154l104 -48l158 -30q33 -12 32 -25q0 -10 -27.5 -18t-82.5 -8l-23 2h-24l-105 59zM1358 256q8 -76 21.5 -119t45.5 -82q41 -41 127 -69q10 -6 21 -6q14 0 25.5 11t11.5 25q0 18 -15 33q-6 6 -34 19 q-49 23 -78 43q-27 37 -37 71.5t-14 96.5q0 74 30 159q18 61 44 116.5t50 84.5l31 45q18 29 36.5 57.5t31.5 44.5q39 59 43 66q61 84 125 113q51 27 127 26h24q23 -2 27 -2q55 -14 81 -35.5t38 -60.5v-4q-2 -2 -2 -4q0 -20 36 -21q33 0 33 21l-2 2v4t2 6v8q0 43 -48 87 t-105 44q-35 12 -84 13q-70 0 -133 -23q-53 -20 -93.5 -52t-62.5 -81q-33 -41 -56.5 -69.5t-39 -52t-32.5 -50.5t-46 -72q-23 -39 -46.5 -93t-41.5 -114q-29 -100 -41 -186zM1540 324q0 -37 22.5 -70t55.5 -33q10 0 22 4l64 31l39 -31l39 -16q70 0 116 13.5t93 51.5 q53 35 77.5 78t28.5 92l43 365l-2 -240q0 -14 2 -32v-27q0 -59 -9 -104.5t-34 -131.5q-2 -6 -2 -8l-35 -92l-125 -55l-186 -35q-16 -10 -16 -27q0 -23 42 -38t136 -15q70 -59 176 -59q53 0 105.5 16t93.5 45q88 4 137 33t49 57q0 18 -18 23l-205 8l-148 51l23 86 q18 43 32.5 115t14.5 151q0 6 -2 19v20l2 240l31 -379q6 -68 16 -98.5t47 -81.5q55 -37 86 -37t57.5 30.5t57.5 102.5l39 107q27 -74 26 -156q0 -49 -8 -119l84 125q31 78 31 135q0 43 -25 105l-35 45q-59 51 -110 51q-55 0 -55 -51t12 -73.5t57 -49.5l-72 -168 q-27 -57 -69 -57q-43 0 -76 57q-25 35 -32 62.5t-9 72.5q0 25 -2 37q-4 39 -10 106q-8 92 -12.5 144.5t-4.5 118.5q0 -10 -15 -15.5t-34 -5.5q-45 0 -45 21q0 2 2 4v4l-92 -289l-6 -16q-20 -47 -36.5 -67.5t-61.5 -41.5q-70 0 -99.5 24.5t-48.5 65.5l-2 6q0 2 -2 4 q-6 18 -6 27q0 16 16 29l45 18q37 -25 68 -24q45 0 94 55q37 68 37 121q0 74 -63 112q-8 -88 -20.5 -114.5t-45.5 -26.5l-51 -8q-76 -14 -76 -43q0 -23 35 -57l-37 -19q-20 -25 -20 -45q0 -23 22 -65q20 -78 148 -82q43 10 82.5 47t56.5 127l69 227v-12l-47 -355 q0 -35 -12 -60.5t-55 -74.5l-62 -45q-25 -18 -44 -23t-54 -8q-31 -2 -43 -4l-43 15l-25 32l27 46v14q2 6 2 12q0 41 -16.5 71t-44.5 52l-105 39v-16q2 -10 2 -15q0 -68 -41 -121q-8 -14 -8 -34zM1761 51q0 12 33 25l158 30l104 48l-33 -68l-104 -59h-25l-20 -2q-57 0 -85 8 t-28 18zM1950 14l90 56l31 82h16l49 -99l98 -39q-43 -23 -76.5 -34t-70.5 -11q-68 0 -137 45zM2101 156l140 -56l176 -6q14 -2 14 -8q0 -16 -56.5 -37.5t-105.5 -21.5l-112 39z" />
<glyph unicode="&#xbf;" horiz-adv-x="1048" d="M147 172q0 -174 95 -248q96 -80 272 -86q188 0 342 86q176 86 193 230q0 49 -23 82q-16 25 -36.5 34t-41.5 9q-37 -16 -141 -175q-74 -137 -262 -149q-88 2 -146 57q-18 27 -29.5 66t-11.5 94q4 53 22.5 98t55.5 113q25 31 43.5 50.5t50.5 53.5q20 18 50 50 q37 35 60.5 53t55.5 41q29 18 47 33q27 25 64 49q37 25 53 54.5t41 133.5q-8 41 -20.5 66.5t-36 48t-68.5 45t-119 49.5q18 -127 19 -186q0 -53 -12.5 -82t-45.5 -74q-16 -23 -26 -39q-8 -10 -39 -47q-35 -43 -57.5 -67.5t-51.5 -51.5q-55 -63 -94 -100t-88 -72 q-106 -78 -115 -219zM451 1556q0 -20 41 -59q18 -31 32 -80q4 -14 8 -26q0 -8 3 -27v-18v-25q-2 -14 -3 -25q-6 -27 -6 -71q-2 -35 -4 -54l80 9q10 4 21 8q29 8 41 16q43 16 43 47q0 10 -5 29q-4 25 -4 41q-10 47 -24 92q-2 14 -4 33q0 12 -2 16q-14 45 -60 66 q-32 25 -69 37q-35 8 -56 8q-33 0 -32 -17z" />
<glyph unicode="&#xc0;" horiz-adv-x="2039" d="M-20 -82q2 -59 69 -129q68 -68 125 -74q86 0 264 217q168 217 379 586l414 35h4q123 12 160 25q74 18 73 63q0 39 -38 47h-72h-119h-166h-88h-63q-4 0 -4 35l262 520q70 -131 131 -266q82 -172 166 -361q16 -39 32 -77q35 -84 41 -97q37 -76 49 -98q10 -25 19 -51 q29 -74 43 -113l18 -43q33 -68 58 -98q33 -39 71 -39q55 0 117 37q70 53 70 84q0 20 -33 47h-18q-78 98 -156 276q-63 125 -193 424q-4 10 -22 50q-39 92 -53 122q-10 27 -52 121q-37 86 -49 115q-82 180 -129 250q-51 39 -141 61q-100 21 -186 21q-39 0 -54 -9 q-39 0 -39 -51q0 -37 15 -37q10 -6 30 -6q18 0 89 -41q68 -35 108 -102q-31 -63 -76 -139l-10 -21q-35 -63 -65 -119l-31 -53q-4 -12 -17 -33q-2 -6 -4 -8q-41 -70 -86 -158q-23 -35 -63 -112l-17 -31q-135 0 -229 17q-76 6 -137 30q-37 12 -58 27l-6 4q-20 16 -37.5 24.5 t-25.5 10.5v-39q-4 -8 -4 -25v-24q0 -104 55 -154q53 -55 160 -55q137 0 160 2q12 6 22 6q-162 -268 -307 -414q-147 -166 -211 -168l-4 2q-27 6 -39 15q-45 25 -59 24q-27 0 -35 -18q-8 -4 -8 -35zM877 2075q12 -88 129 -213q125 -127 192 -138q25 0 45 9q23 18 23 47 q0 35 -56 80q-32 20 -118 180l-19 41q-8 18 -24 53l-9 18q-47 70 -73 70q-35 0 -66 -53q-25 -55 -24 -94z" />
<glyph unicode="&#xc1;" horiz-adv-x="2039" d="M-20 -82q2 -59 69 -129q68 -68 125 -74q86 0 264 217q168 217 379 586l414 35h4q123 12 160 25q74 18 73 63q0 39 -38 47h-72h-119h-166h-88h-63q-4 0 -4 35l262 520q70 -131 131 -266q82 -172 166 -361q16 -39 32 -77q35 -84 41 -97q37 -76 49 -98q10 -25 19 -51 q29 -74 43 -113l18 -43q33 -68 58 -98q33 -39 71 -39q55 0 117 37q70 53 70 84q0 20 -33 47h-18q-78 98 -156 276q-63 125 -193 424q-4 10 -22 50q-39 92 -53 122q-10 27 -52 121q-37 86 -49 115q-82 180 -129 250q-51 39 -141 61q-100 20 -186 21q-39 0 -54 -9 q-39 0 -39 -51q0 -37 15 -37q10 -6 30 -6q18 0 89 -41q68 -35 108 -102q-31 -63 -76 -139l-10 -21q-35 -63 -65 -119l-31 -53q-4 -12 -17 -33q-2 -6 -4 -8q-41 -70 -86 -158q-23 -35 -63 -112l-17 -31q-135 0 -229 17q-76 6 -137 30q-37 12 -58 27l-6 4q-20 16 -37.5 24.5 t-25.5 10.5v-39q-4 -8 -4 -25v-24q0 -104 55 -154q53 -55 160 -55q137 0 160 2q12 6 22 6q-162 -268 -307 -414q-147 -166 -211 -168l-4 2q-27 6 -39 15q-45 25 -59 24q-27 0 -35 -18q-8 -4 -8 -35zM969 1780q0 -33 24 -47q12 -8 41 -9q66 10 193 138q117 129 129 213 q-4 35 -25 65q-30 82 -67 82q-31 0 -72 -70l-4 -8l-10 -20q-18 -45 -37 -84q-86 -162 -119 -180q-53 -45 -53 -80z" />
<glyph unicode="&#xc2;" horiz-adv-x="2039" d="M-20 -82q2 -59 69 -129q68 -68 125 -74q86 0 264 217q168 217 379 586l414 35h4q123 12 160 25q74 18 73 63q0 39 -38 47h-72h-119h-166h-88h-63q-4 0 -4 35l262 520q70 -131 131 -266q82 -172 166 -361q16 -39 32 -77q35 -84 41 -97q37 -76 49 -98q10 -25 19 -51 q29 -74 43 -113l18 -43q33 -68 58 -98q33 -39 71 -39q55 0 117 37q70 53 70 84q0 20 -33 47h-18q-78 98 -156 276q-63 125 -193 424q-4 10 -22 50q-39 92 -53 122q-10 27 -52 121q-37 86 -49 115q-82 180 -129 250q-51 39 -141 61q-100 21 -186 21q-39 0 -54 -9 q-39 0 -39 -51q0 -37 15 -37q10 -6 30 -6q18 0 89 -41q68 -35 108 -102q-31 -63 -76 -139l-10 -21q-35 -63 -65 -119l-31 -53q-4 -12 -17 -33q-2 -6 -4 -8q-41 -70 -86 -158q-23 -35 -63 -112l-17 -31q-135 0 -229 17q-76 6 -137 30q-37 12 -58 27l-6 4q-20 16 -37.5 24.5 t-25.5 10.5v-39q-4 -8 -4 -25v-24q0 -104 55 -154q53 -55 160 -55q137 0 160 2q12 6 22 6q-162 -268 -307 -414q-147 -166 -211 -168l-4 2q-27 6 -39 15q-45 25 -59 24q-27 0 -35 -18q-8 -4 -8 -35zM741 1849l80 -114q70 55 174 166q72 68 107 106q0 8 -4 21l10 -13 q43 -51 59 -76q63 -78 189 -219l119 138q-197 223 -246 292q-41 49 -76 72q-27 0 -55 -27l-6 -6q-2 -2 -7 -6l-2 -2q-20 -25 -71 -82l-49 -49q-96 -102 -222 -201z" />
<glyph unicode="&#xc3;" horiz-adv-x="2039" d="M-20 -82q2 -59 69 -129q68 -68 125 -74q86 0 264 217q168 217 379 586l414 35h4q123 12 160 25q74 18 73 63q0 39 -38 47h-72h-119h-166h-88h-63q-4 0 -4 35l262 520q70 -131 131 -266q82 -172 166 -361q16 -39 32 -77q35 -84 41 -97q37 -76 49 -98q10 -25 19 -51 q29 -74 43 -113l18 -43q33 -68 58 -98q33 -39 71 -39q55 0 117 37q70 53 70 84q0 20 -33 47h-18q-78 98 -156 276q-63 125 -193 424q-4 10 -22 50q-39 92 -53 122q-10 27 -52 121q-37 86 -49 115q-82 180 -129 250q-51 39 -141 61q-100 20 -186 21q-39 0 -54 -9 q-39 0 -39 -51q0 -37 15 -37q10 -6 30 -6q18 0 89 -41q68 -35 108 -102q-31 -63 -76 -139l-10 -21q-35 -63 -65 -119l-31 -53q-4 -12 -17 -33q-2 -6 -4 -8q-41 -70 -86 -158q-23 -35 -63 -112l-17 -31q-135 0 -229 17q-76 6 -137 30q-37 12 -58 27l-6 4q-20 16 -37.5 24.5 t-25.5 10.5v-39q-4 -8 -4 -25v-24q0 -104 55 -154q53 -55 160 -55q137 0 160 2q12 6 22 6q-162 -268 -307 -414q-147 -166 -211 -168l-4 2q-27 6 -39 15q-45 25 -59 24q-27 0 -35 -18q-8 -4 -8 -35zM754 1845q0 -12 6 -28v-2q8 -27 47 -27q27 6 92 88q37 57 100 66 q70 -12 129 -56q82 -61 162 -65q70 8 148 90q72 90 71 133q-6 39 -20 45q-12 14 -37 14q-16 0 -70 -67l-4 -4q-31 -41 -78 -43q-49 4 -106 51q-72 59 -162 71q-135 -12 -209 -122q-70 -106 -69 -144z" />
<glyph unicode="&#xc4;" horiz-adv-x="2039" d="M-20 -82q2 -59 69 -129q68 -68 125 -74q86 0 264 217q168 217 379 586l414 35h4q123 12 160 25q74 18 73 63q0 39 -38 47h-72h-119h-166h-88h-63q-4 0 -4 35l262 520q70 -131 131 -266q82 -172 166 -361q16 -39 32 -77q35 -84 41 -97q37 -76 49 -98q10 -25 19 -51 q29 -74 43 -113l18 -43q33 -68 58 -98q33 -39 71 -39q55 0 117 37q70 53 70 84q0 20 -33 47h-18q-78 98 -156 276q-63 125 -193 424q-4 10 -22 50q-39 92 -53 122q-10 27 -52 121q-37 86 -49 115q-82 180 -129 250q-51 39 -141 61q-100 21 -186 21q-39 0 -54 -9 q-39 0 -39 -51q0 -37 15 -37q10 -6 30 -6q18 0 89 -41q68 -35 108 -102q-31 -63 -76 -139l-10 -21q-35 -63 -65 -119l-31 -53q-4 -12 -17 -33q-2 -6 -4 -8q-41 -70 -86 -158q-23 -35 -63 -112l-17 -31q-135 0 -229 17q-76 6 -137 30q-37 12 -58 27l-6 4q-20 16 -37.5 24.5 t-25.5 10.5v-39q-4 -8 -4 -25v-24q0 -104 55 -154q53 -55 160 -55q137 0 160 2q12 6 22 6q-162 -268 -307 -414q-147 -166 -211 -168l-4 2q-27 6 -39 15q-45 25 -59 24q-27 0 -35 -18q-8 -4 -8 -35zM866 2103q0 -162 2 -178q0 -10 2 -24v-9q6 -47 60 -67q41 -16 76 -17 q47 0 51 33q6 12 6 43v141v39q-4 45 -19 58q-16 12 -59 28q-16 2 -53 13l-12 4q-37 0 -48 -29q-6 -4 -6 -35zM1178 2103q0 -162 2 -178q0 -10 2 -24v-9q4 -41 59 -67q41 -16 78 -17q20 0 33.5 7.5t15.5 25.5q6 12 6 43v141v39q-4 41 -14 56q-4 2 -31 16q-14 8 -16 8l-17 4 l-4 2q-18 4 -35 11q-14 2 -20 6q-41 0 -51 -25q-8 -4 -8 -39z" />
<glyph unicode="&#xc5;" horiz-adv-x="2039" d="M-20 -82q2 -59 69 -129q68 -68 125 -74q86 0 264 217q168 217 379 586l414 35h4q123 12 160 25q74 18 73 63q0 39 -38 47h-72h-119h-166h-88h-63q-4 0 -4 35l262 520q70 -131 131 -266q82 -172 166 -361q16 -39 32 -77q35 -84 41 -97q37 -76 49 -98q10 -25 19 -51 q29 -74 43 -113l18 -43q33 -68 58 -98q33 -39 71 -39q55 0 117 37q70 53 70 84q0 20 -33 47h-18q-78 98 -156 276q-63 125 -193 424q-4 10 -22 50q-39 92 -53 122q-10 27 -52 121q-37 86 -49 115q-82 180 -129 250q-51 39 -141 61q-100 21 -186 21q-39 0 -54 -9 q-39 0 -39 -51q0 -37 15 -37q10 -6 30 -6q18 0 89 -41q68 -35 108 -102q-31 -63 -76 -139l-10 -21q-35 -63 -65 -119l-31 -53q-4 -12 -17 -33q-2 -6 -4 -8q-41 -70 -86 -158q-23 -35 -63 -112l-17 -31q-135 0 -229 17q-76 6 -137 30q-37 12 -58 27l-6 4q-20 16 -37.5 24.5 t-25.5 10.5v-39q-4 -8 -4 -25v-24q0 -104 55 -154q53 -55 160 -55q137 0 160 2q12 6 22 6q-162 -268 -307 -414q-147 -166 -211 -168l-4 2q-27 6 -39 15q-45 25 -59 24q-27 0 -35 -18q-8 -4 -8 -35zM926 1866q0 -109 65 -187q68 -76 166 -75q109 0 172 75q63 74 66 189 q-2 119 -68 186q-63 78 -170 80q-98 -4 -166 -76q-65 -81 -65 -192zM1053 1866q0 59 32 92q39 41 72 41q45 0 78 -41q33 -37 33 -92q-2 -51 -35 -92q-31 -35 -76 -35q-37 0 -72 37q-33 37 -32 90z" />
<glyph unicode="&#xc6;" horiz-adv-x="2287" d="M14 -61v-43q2 -45 54 -111q51 -70 110 -70l8 -2q37 0 125 111q68 92 244 555l57 190l385 27l-26 106h-316l144 490l213 -680q109 -340 219 -446q98 -100 293 -101h22h21q154 0 276 43q123 29 256 109q23 12 88 53l19 12l6 2q39 37 39 64q0 6 -2 16v10q-25 31 -43 31 q-4 0 -27 -10q-16 -6 -27 -10q-2 -2 -12 -6l-10 -5q-55 -35 -125 -63q-43 -29 -160 -70q-92 -25 -172 -24q-164 0 -268 98q-102 106 -107 305q0 184 37 346q37 152 107 287q139 285 430 307q109 -6 166 -41q80 -43 88 -45q49 0 49 27q4 8 4 31q-2 86 -78 151q-76 61 -205 64 q-287 -29 -514 -357q-209 -244 -243 -477l-140 479q-51 195 -120 258q-59 57 -174 58h-29q-45 0 -78 -4q-43 -12 -43 -60q0 -45 66 -63q39 -6 81 -54q16 -14 31 -36q6 -14 6 -27q-12 -51 -86 -283q-70 -219 -127 -370q-203 18 -272 59q-76 41 -92 57q-49 0 -49 -39v-16 q0 -117 59 -166q53 -53 156 -53q76 0 96 2q20 0 37 2v2q-63 -203 -191 -405q-113 -205 -180 -226q-6 0 -8 2q-14 8 -33 9h-35zM1303 723h73q31 -4 74 -8h6q94 -8 148 -17q27 -2 98 -6q53 -4 67 -4h162q70 0 103 94q27 41 26 70q0 37 -10 41q-8 12 -41 12h-22l-23 -2 q-33 -4 -45 -6l-41 -6q-94 -12 -143 -25q-100 -14 -174 -20q-16 -4 -35 -4q-92 -10 -193 -15z" />
<glyph unicode="&#xc7;" horiz-adv-x="1794" d="M100 399q6 -250 179 -340q76 -45 182 -69q106 -23 233 -23q39 0 142 6q23 0 45 2q27 4 75 13q-4 0 -8 2h-4q-12 -20 -18 -33l-4 -4q-27 -53 -27 -78q0 -47 59 -96q35 -20 39 -35q-2 -12 -28 -27q-33 -27 -88 -65q-16 -10 -25 -17l49 -77q117 66 182 123q66 61 66 116 q-10 70 -62 105q-31 14 -34 41q0 8 8 28q6 12 41 47q178 39 428 144q262 117 293 186q0 27 -15 53q-27 25 -45 25q-20 0 -104 -47q-41 -27 -180 -92q-127 -63 -273 -94q-158 -41 -370 -41q-291 0 -387 96q-86 84 -87 203q0 2 3 8v8v12q0 219 190 553q201 350 662 389 q215 -6 264 -53q51 -45 80 -63q41 0 59 43v4q4 29 4 43q-2 115 -111 170q-100 43 -247 43q-442 -37 -799 -461q-348 -420 -367 -748z" />
<glyph unicode="&#xc8;" horiz-adv-x="1794" d="M70 436q0 -109 30 -192q35 -84 101 -148q133 -127 465 -129q264 0 555 66q289 74 512 180q53 27 69 39q25 18 25 59q0 29 -2 33q0 25 -41 25q-23 0 -103 -41q-70 -29 -151 -60l-49 -18q-84 -31 -287 -78q-160 -37 -344 -37q-285 0 -406 98q-113 100 -112 269 q0 258 219 588q213 324 635 354q199 -6 301 -51q2 -2 14 -7q39 -16 43 -18q23 -10 55 -25l9 -4q45 0 55 37v2q4 12 4 39q-6 121 -133 176q-109 53 -264 54q-401 -31 -789 -416q-387 -399 -411 -795zM401 709q111 0 213 -2l41 -2l50 -3q57 -2 129 -6q10 0 53 -2q16 -2 35 -2 q49 0 137 -6q23 0 65 -2q20 -2 25 -2l70 -2q43 -2 57 -2q131 0 184 53q45 51 45 125q0 25 -4 35q0 27 -61 27q-41 0 -133 -13q-80 -6 -260 -31l-11 -2q-172 -20 -311 -28q-203 -16 -303 -17zM956 2075q8 -63 129 -172q125 -166 193 -179q27 0 39 9q29 16 29 47q0 35 -56 78 q-35 24 -119 180q-4 10 -12 28q-16 39 -24 58q-4 8 -11 20l-4 8q-47 70 -69 70q-41 0 -72 -53q-23 -51 -23 -94z" />
<glyph unicode="&#xc9;" horiz-adv-x="1794" d="M70 436q0 -109 30 -192q35 -84 101 -148q133 -127 465 -129q264 0 555 66q289 74 512 180q53 27 69 39q25 18 25 59q0 29 -2 33q0 25 -41 25q-23 0 -103 -41q-70 -29 -151 -60l-49 -18q-84 -31 -287 -78q-160 -37 -344 -37q-285 0 -406 98q-113 100 -112 269 q0 258 219 588q213 324 635 354q199 -6 301 -51q2 -2 14 -7q39 -16 43 -18q23 -10 55 -25l9 -4q45 0 55 37v2q4 12 4 39q-6 121 -133 176q-109 53 -264 54q-401 -31 -789 -416q-387 -399 -411 -795zM401 709q111 0 213 -2l41 -2l50 -3q57 -2 129 -6q10 0 53 -2q16 -2 35 -2 q49 0 137 -6q23 0 65 -2q20 -2 25 -2l70 -2q43 -2 57 -2q131 0 184 53q45 51 45 125q0 25 -4 35q0 27 -61 27q-41 0 -133 -13q-80 -6 -260 -31l-11 -2q-172 -20 -311 -28q-203 -16 -303 -17zM987 1780q0 -27 27 -47q16 -8 39 -9q66 8 194 138q117 129 129 213q-4 35 -24 65 q-27 82 -72 82q-25 0 -68 -72q-4 -10 -24 -53q-16 -35 -27 -57q-86 -160 -119 -180q-55 -45 -55 -80z" />
<glyph unicode="&#xca;" horiz-adv-x="1794" d="M70 436q0 -109 30 -192q35 -84 101 -148q133 -127 465 -129q264 0 555 66q289 74 512 180q53 27 69 39q25 18 25 59q0 29 -2 33q0 25 -41 25q-23 0 -103 -41q-70 -29 -151 -60l-49 -18q-84 -31 -287 -78q-160 -37 -344 -37q-285 0 -406 98q-113 100 -112 269 q0 258 219 588q213 324 635 354q199 -6 301 -51q2 -2 14 -7q39 -16 43 -18q23 -10 55 -25l9 -4q45 0 55 37v2q4 12 4 39q-6 121 -133 176q-109 53 -264 54q-401 -31 -789 -416q-387 -399 -411 -795zM401 709q111 0 213 -2l41 -2l50 -3q57 -2 129 -6q10 0 53 -2q16 -2 35 -2 q49 0 137 -6q23 0 65 -2q20 -2 25 -2l70 -2q43 -2 57 -2q131 0 184 53q45 51 45 125q0 25 -4 35q0 27 -61 27q-41 0 -133 -13q-80 -6 -260 -31l-11 -2q-172 -20 -311 -28q-203 -16 -303 -17zM764 1849l80 -114q72 61 172 166q70 66 112 114q35 -39 62 -80l10 -6 q113 -137 174 -209l121 138q-203 231 -246 292q-41 49 -75 72q-31 0 -58 -27q-4 -4 -10 -12l2 2q0 2 2 2q-6 -6 -39 -43q-27 -29 -67 -73l-19 -21q-96 -102 -221 -201z" />
<glyph unicode="&#xcb;" horiz-adv-x="1794" d="M70 436q0 -109 30 -192q35 -84 101 -148q133 -127 465 -129q264 0 555 66q289 74 512 180q53 27 69 39q25 18 25 59q0 29 -2 33q0 25 -41 25q-23 0 -103 -41q-70 -29 -151 -60l-49 -18q-84 -31 -287 -78q-160 -37 -344 -37q-285 0 -406 98q-113 100 -112 269 q0 258 219 588q213 324 635 354q199 -6 301 -51q2 -2 14 -7q39 -16 43 -18q23 -10 55 -25l9 -4q45 0 55 37v2q4 12 4 39q-6 121 -133 176q-109 53 -264 54q-401 -31 -789 -416q-387 -399 -411 -795zM401 709q111 0 213 -2l41 -2l50 -3q57 -2 129 -6q10 0 53 -2q16 -2 35 -2 q49 0 137 -6q23 0 65 -2q20 -2 25 -2l70 -2q43 -2 57 -2q131 0 184 53q45 51 45 125q0 25 -4 35q0 27 -61 27q-41 0 -133 -13q-80 -6 -260 -31l-11 -2q-172 -20 -311 -28q-203 -16 -303 -17zM887 2103q0 -162 2 -178q0 -10 2 -24v-9q6 -43 57 -67q47 -16 80 -17q37 0 49 29 q6 12 6 47v141v41q-2 10 -2 17q-4 27 -4 31q-12 8 -65 32l-6 2q-6 2 -29 9q-12 6 -29 10h-10q-33 0 -43 -25q-8 -4 -8 -39zM1198 2103q0 -162 2 -178q0 -10 2 -24v-9q6 -47 60 -67q41 -16 75 -17q47 0 52 33q6 12 6 43v141v39q-6 43 -13 54q-8 6 -59 28l-6 2q-16 4 -49 15 q-8 2 -17 4q-37 0 -47 -29q-6 -4 -6 -35z" />
<glyph unicode="&#xcc;" horiz-adv-x="1445" d="M94 1565q0 -31 37 -121q43 -100 176 -107h4q135 2 219 11q129 2 211 10q143 14 183 16q10 2 24 2q49 4 74 6l-6 2h-8v-438q0 -78 -13 -223q-2 -23 -12 -111q-2 -6 -4 -26q-10 -72 -14 -137q-4 -35 -15 -93q-2 -23 -6 -43q-4 -39 -12 -84q-6 -29 -14 -61l-5 -23 q0 -6 -4 -22q-8 2 -18 4q-14 4 -25 6q-43 10 -90 25q-33 8 -84 30q-53 18 -88 25q-2 0 -8 2q-51 8 -84 8q-39 2 -133 2h-39q-47 -10 -73.5 -17t-49.5 -18l-10 -8q-37 -31 -51.5 -45t-26.5 -35q-14 -27 -18.5 -50t-4.5 -52q0 -45 9 -94l35 -35q14 2 59 25q18 10 31 16 q27 14 110 39l6 2q59 16 90 22q41 10 107 11l22 -2q70 -8 105 -13q35 -4 117 -12l32 -4q33 -4 170 -23l99 -12q41 -8 66.5 -16t47.5 -21q20 -6 50 -14q12 -4 21 -6t42 -4q35 14 48 25.5t13 31.5q0 16 -8 39q-10 20 -23.5 28.5t-39.5 16.5q-35 12 -62 27q-29 10 -79 24 q-70 20 -119 39q37 121 61 227q27 121 43 211q20 92 29 166q6 35 14 109q4 35 8 69q23 178 29 367q2 33 6 94q2 51 2 64q96 18 119 33q41 23 41 65q0 37 -29 47q-4 0 -8 2h-18l-15 -2h-8q-37 -4 -51 -8q-4 -2 -16 -2q-4 0 -15 -2q-4 -2 -6 -4q-6 53 -65 82q-47 31 -113 37 q-41 0 -51 -56q-4 -18 -4 -78q-182 6 -314 19q-47 4 -106 14q-104 10 -166 23l-94 16l-95 16q-72 16 -90 17q-33 0 -41 -23q-8 -8 -8 -28zM535 2083q12 -84 129 -213q119 -123 194 -137q12 0 33 4q4 2 6 2q27 16 27 49q0 35 -56 80q-37 23 -118 182q-4 8 -15 31 q-10 25 -12 26q-12 27 -25 52q-36 71 -71 71q-37 0 -74 -55q-18 -51 -18 -92z" />
<glyph unicode="&#xcd;" horiz-adv-x="1452" d="M76 1567q0 -31 37 -121q49 -100 176 -107h4q133 2 219 11q127 2 213 10q139 14 180 16q43 4 103 6q-6 2 -19 2v-436q0 -82 -12 -223q-2 -25 -12 -100l-4 -39q-4 -31 -7 -56q-6 -59 -8 -79q-4 -35 -14 -93q-2 -23 -6 -43q-2 -27 -13 -71q-6 -43 -18 -94q0 -6 -4 -23 q-6 2 -8 2q-23 4 -35 6t-49 12q-33 8 -41 11q-4 2 -21 6q-41 14 -61 24q-33 14 -84 25q-2 2 -6 2q-41 8 -90 10q-39 2 -136 2h-41q-51 -12 -76.5 -20t-43.5 -17l-4 -2q-39 -33 -55.5 -48t-28.5 -36q-14 -27 -18.5 -50t-4.5 -52q0 -45 8 -94l35 -35q16 2 59 25q25 14 31 16 q37 18 111 39l4 2q27 8 65 16q23 4 27 6q29 6 109 11q8 0 32 -4q63 -6 93 -11q23 -2 83 -10q63 -6 66 -6q33 -4 170 -23l98 -12q41 -8 66.5 -16t50.5 -21q20 -6 47 -14q12 -4 21.5 -6t42.5 -4q35 14 48 25.5t13 31.5q0 16 -8 39q-10 18 -22.5 26.5t-37.5 16.5q-39 14 -63 29 q-29 10 -80 24q-74 18 -121 37q41 145 62 242q27 115 43 198q18 84 30 164l9 62q8 84 12 118q23 178 29 367q0 18 6 98q2 49 2 58q92 18 119 35q41 23 41 65q0 45 -37 45h-2q-4 2 -7 2h-10l-12 -2q-31 0 -61 -6q-16 -4 -31 -4q-2 -4 -6 -4q-6 53 -66 82q-51 31 -110 37 q-43 0 -54 -56q-4 -18 -4 -78q-182 6 -313 19q-25 2 -107 12q-68 8 -129 19l-37 4l-94 18l-94 17q-72 16 -90 16q-16 0 -25.5 -15.5t-15.5 -37.5q-4 0 -8 2zM547 1790q0 -33 26 -49q6 -2 9 -2q18 -4 28 -4q74 8 195 137q117 123 131 213q0 29 -21 90q-33 57 -73 57 q-23 0 -68 -100q-18 -25 -53 -84q-88 -160 -119 -180q-55 -43 -55 -78z" />
<glyph unicode="&#xce;" horiz-adv-x="1466" d="M86 1569q0 -41 37 -121q43 -100 176 -107h4q162 4 217 9q4 0 68 2q111 4 147 8q131 16 180 16l25 2q47 4 74 6q-8 2 -17 2v-436q0 -82 -12 -223q0 -25 -10 -111q0 -4 -4 -28q-10 -74 -15 -135q-6 -39 -12 -86q-4 -25 -8 -48q-6 -33 -12 -75q-8 -39 -19 -97q0 -6 -4 -22 q-14 4 -43 12q-14 4 -35 8q-39 8 -53 13q-47 14 -86 32q-53 18 -88 25q-33 10 -90 12q-39 2 -137 2h-39q-53 -12 -79 -20t-44 -16q-23 -20 -25 -23q-27 -23 -39 -35t-22 -29q-14 -27 -18.5 -51t-4.5 -51q0 -49 8 -98l35 -31q12 2 54 23q27 14 36 18q31 16 111 39l4 2 q27 8 66 16q23 4 26 7q45 8 107 10q12 -2 49 -6q47 -6 78 -9q78 -10 149 -18q6 0 10 -2q127 -14 256 -31q43 -10 69 -18t48 -21q29 -6 49 -12q14 -4 22.5 -6t43.5 -4q31 14 44 25.5t13 29.5q0 14 -8 37q-10 20 -22.5 28.5t-38.5 18.5q-37 14 -62 29q-20 6 -67 20 q-82 23 -131 41q37 133 61 227q23 106 43 213q20 96 29 164q6 35 14 109q4 33 8 69q20 162 27 369q8 113 8 156q102 18 121 35q39 20 39 63q0 37 -29 47q-4 0 -8 2h-19l-12 -2q-37 -4 -57 -8q-6 0 -23 -2l-10 -2q-2 0 -4 -2q0 -2 -2 -2q-2 55 -66 84q-51 29 -112 35 q-39 0 -54 -56q-4 -33 -4 -78q-182 6 -311 19q-14 2 -68 10q-18 2 -38 4q-37 4 -68 8q-78 10 -98 15l-95 18l-96 17q-59 14 -88 14q-45 0 -45 -29q-4 -12 -4 -20zM332 1860l82 -113q74 63 172 164q76 76 112 117l9 -9q16 -25 24 -34l27 -33q33 -43 149 -178q8 -8 37 -41 l121 137q-182 207 -248 291q-61 74 -86 73q-18 0 -49 -30l-2 -2q0 -4 -4 -9l2 2q0 2 2 3q-8 -12 -84 -91q-37 -37 -45 -49q-86 -88 -219 -198z" />
<glyph unicode="&#xcf;" horiz-adv-x="1452" d="M80 1571q0 -39 35 -121q51 -102 176 -107h4q164 4 219 9q6 0 66 2q111 4 149 8q94 12 180 16q6 0 29 2q37 4 72 6q-6 2 -19 3v-437q0 -82 -12 -223q-4 -63 -16 -139q-2 -25 -7 -62q-4 -43 -8 -73q-10 -88 -20 -136q-2 -25 -13 -73q-4 -23 -10 -64l-6 -30q-2 -6 -2 -13 q0 -6 -2 -12q-12 2 -43 12q-14 4 -35 8q-39 8 -53 13q-45 14 -88 33q-55 20 -86 24q-41 10 -92 12q-39 2 -136 2h-40q-47 -12 -74 -20t-47 -16q-18 -14 -23 -19q-31 -25 -43 -37t-22 -30q-23 -49 -23 -103q0 -49 8 -98l35 -31q16 2 60 25q25 14 30 16q33 16 111 39l4 2 q27 8 74 18l20 5q45 8 107 10q12 -2 49 -6q47 -6 78 -9q57 -8 149 -18q137 -16 266 -33q45 -12 70 -19t47 -20q27 -6 47 -12q12 -4 22.5 -6t41.5 -4q2 0 2 2q35 12 47 22.5t12 28.5q0 16 -8 39q-10 20 -23.5 28.5t-38.5 18.5q-37 14 -61 29q-31 10 -65 18q-82 23 -136 43 q41 135 62 230l4 20q31 125 39 178q18 90 31 176q2 14 8 66q8 66 12 113q23 182 29 368q8 113 8 156q102 18 121 35q39 20 39 63q0 37 -29 47q-4 0 -8 2h-19l-14 -2q-37 -4 -55 -8q-8 0 -33 -4q-2 0 -4 -2q0 -2 -2 -2q-2 55 -68 82q-44 31 -110 37q-45 0 -54 -58 q-4 -33 -4 -75q-186 6 -311 18q-12 2 -72 10l-35 4l-55 6q-86 12 -110 17l-97 18l-94 17q-59 14 -90 14q-43 0 -43 -25q-4 -8 -4 -24zM446 2116q0 -76 3 -156v-25q4 -16 4 -32q10 -47 59 -66q43 -16 78 -16q37 0 49 30q6 16 6 45v142v43q-6 35 -6 41q-4 6 -37 24l-14 8 l-19 7q-4 2 -20 6q-14 6 -21 6q-16 4 -22 6q-27 0 -43 -14q-16 0 -17 -49zM758 2116q0 -76 2 -156v-25q4 -16 4 -32q10 -47 57 -66q43 -16 78 -16q41 0 51 30q6 16 6 45v142v43q-6 35 -6 41q-4 6 -37 24l-14 8l-18 7q-8 2 -21 6q-12 2 -14 4q-12 2 -27 8h-4q-27 0 -51 -31 q-6 -9 -6 -32z" />
<glyph unicode="&#xd0;" horiz-adv-x="1794" d="M14 1434q12 -53 37 -80q37 -37 68 -37q29 0 112 47q43 23 158 57l-4 -489l-203 -17l-39 -110h242l-14 -643q-63 6 -105 28q-70 31 -98 33q-47 0 -47 -37v-8q-2 -10 -2 -16q0 -109 82 -148q70 -47 241 -47q375 0 815 238q461 242 504 770q-8 332 -295 485 q-279 147 -682 148q-84 0 -104 -2q-16 0 -37 -2l-20 -5q-6 25 -66 54q-70 33 -111 33q-8 0 -24 -7q-16 0 -25 -12q-12 -14 -12 -49l-2 -35q-143 -20 -240 -59q-123 -55 -129 -90zM549 150l2 2l31 653q82 0 106 -2q104 0 137 -4q76 0 129 -4h43q47 -2 84 -2q47 0 107 32 q63 35 65 107q0 16 -6 35q-10 33 -45 39q-20 0 -63 -9q-33 0 -105 -8l-33 -4q-12 -2 -51 -6q-51 -4 -92 -10l-59 -6q-68 -6 -133 -13l-25 -2l-49 -4v-20q4 82 8 114q0 39 10 158q6 109 13 158q0 18 4 65v17l2 10q2 8 2 10h-19q45 4 119 8q10 2 21 2q86 8 143 9 q350 -6 479 -160q123 -147 123 -395q-27 -487 -344 -633q-303 -137 -578 -137h-26z" />
<glyph unicode="&#xd1;" horiz-adv-x="2039" d="M-61 -135q6 -29 77 -101q76 -53 119 -59h8h4q53 0 158 207q84 188 240 885q20 90 45 229q14 96 33 188l-2 -4q-2 -10 -7 -18l795 -1098q66 -72 109 -102q31 -25 67 -25q12 -4 21 -4q76 0 141 213q55 182 61 950v304q-12 76 -77 129q-74 47 -136 49q-37 0 -45 -9 q-23 0 -22 -63q82 -125 112 -412q29 -270 29 -630q-2 -156 -27 -244q-18 -68 -38 -68q-6 0 -17 6q-8 4 -12 13l-897 1339q-45 55 -148 82q-94 25 -168 25q-31 0 -43 -13q-18 -8 -18 -37t70 -79q43 -31 147 -201q-37 -262 -92 -469q-49 -195 -115 -383q-88 -260 -168 -418 q-55 -141 -88 -141q-4 0 -16 6l-4 2q-18 8 -47 8q-25 0 -39 -18q-10 -16 -10 -39zM774 1845q0 -12 6 -28v-2q10 -27 45 -27q27 6 95 88q37 53 96 66q68 -12 133 -56q78 -61 164 -65q68 8 145 90q68 86 72 133q-6 39 -21 45q-12 14 -39 14q-16 0 -71 -71q-33 -43 -76 -43 q-47 0 -109 49q-72 61 -163 73q-133 -12 -207 -122q-70 -107 -70 -144z" />
<glyph unicode="&#xd2;" horiz-adv-x="2039" d="M82 510q4 -274 176 -410q168 -133 449 -133q537 12 888 332q350 326 363 737q-2 254 -148 398q-145 156 -405 155q-274 -6 -477 -125q-215 -131 -223 -266q0 -47 18 -59q18 -21 47 -21q31 4 78 68q12 23 74 108l2 2l6 7q57 63 139 108q94 45 231 45q201 -2 312 -135 q121 -137 123 -373q-2 -332 -222 -590q-219 -201 -641 -206q-133 0 -231 24q-96 25 -168 70q-137 98 -143 332q29 446 303 714q279 268 487 275q51 0 60 22v35q6 -2 6 -6q0 37 -35 59h-2q-8 2 -16 2q-20 6 -37 7q-244 -12 -615 -347q-367 -334 -399 -829zM1081 2075 q12 -84 129 -213q119 -123 195 -138q25 0 45 11q18 12 18 45q0 35 -51 80q-41 18 -119 151q-4 10 -12 37q-10 31 -18 53q-18 37 -23 47q-36 74 -71 74q-37 0 -74 -55q-18 -51 -19 -92z" />
<glyph unicode="&#xd3;" horiz-adv-x="2039" d="M82 510q4 -274 176 -410q168 -133 449 -133q537 12 888 332q350 326 363 737q-2 254 -148 398q-145 156 -405 155q-274 -6 -477 -125q-215 -131 -223 -266q0 -47 18 -59q18 -21 47 -21q31 4 78 68q12 23 74 108l2 2l6 7q57 63 139 108q94 45 231 45q201 -2 312 -135 q121 -137 123 -373q-2 -332 -222 -590q-219 -201 -641 -206q-133 0 -231 24q-96 25 -168 70q-137 98 -143 332q29 446 303 714q279 268 487 275q51 0 60 22v35q6 -2 6 -6q0 37 -35 59h-2q-8 2 -16 2q-20 6 -37 7q-244 -12 -615 -347q-367 -334 -399 -829zM1112 1780 q0 -25 23 -47q20 -8 47 -9q66 12 188 138q117 123 131 213q0 37 -22 94q-37 53 -70 53q-29 0 -70 -70q-12 -25 -24 -53q-4 -10 -12 -24q-11 -25 -17 -33q-84 -160 -119 -182q-55 -45 -55 -80z" />
<glyph unicode="&#xd4;" horiz-adv-x="2039" d="M82 510q4 -274 176 -410q168 -133 449 -133q537 12 888 332q350 326 363 737q-2 254 -148 398q-145 156 -405 155q-274 -6 -477 -125q-215 -131 -223 -266q0 -47 18 -59q18 -21 47 -21q31 4 78 68q12 23 74 108l2 2l6 7q57 63 139 108q94 45 231 45q201 -2 312 -135 q121 -137 123 -373q-2 -332 -222 -590q-219 -201 -641 -206q-133 0 -231 24q-96 25 -168 70q-137 98 -143 332q29 446 303 714q279 268 487 275q51 0 60 22v35q6 -2 6 -6q0 37 -35 59h-2q-8 2 -16 2q-20 6 -37 7q-244 -12 -615 -347q-367 -334 -399 -829zM887 1849l78 -114 q78 66 176 163q37 35 125 134q-12 -6 -21 -9q6 -6 35 -41q27 -35 33 -43q31 -41 186 -219l121 138q-150 168 -248 294q-8 8 -16 19q-16 18 -25 24q-27 25 -35 27q-27 0 -45 -16q-4 0 -10 -8q-2 -4 -4 -9q-6 -8 -10 -12q-4 -6 -21 -23q-18 -20 -39 -43l-61 -61 q-68 -76 -219 -201z" />
<glyph unicode="&#xd5;" horiz-adv-x="2039" d="M82 510q4 -274 176 -410q168 -133 449 -133q537 12 888 332q350 326 363 737q-2 254 -148 398q-145 156 -405 155q-274 -6 -477 -125q-215 -131 -223 -266q0 -47 18 -59q18 -21 47 -21q31 4 78 68q12 23 74 108l2 2l6 7q57 63 139 108q94 45 231 45q201 -2 312 -135 q121 -137 123 -373q-2 -332 -222 -590q-219 -201 -641 -206q-133 0 -231 24q-96 25 -168 70q-137 98 -143 332q29 446 303 714q279 268 487 275q51 0 60 22v35q6 -2 6 -6q0 37 -35 59h-2q-8 2 -16 2q-20 6 -37 7q-244 -12 -615 -347q-367 -334 -399 -829zM899 1845 q0 -29 12 -39l-6 9q0 -27 45 -27q29 6 92 88q41 57 101 66q70 -12 131 -56q82 -61 162 -65q70 8 147 90q72 88 72 131t-25 49q-12 12 -33 12q-20 0 -75 -71q-31 -39 -74 -43q-47 0 -109 51q-71 59 -161 71q-135 -12 -211 -122q-68 -104 -68 -144z" />
<glyph unicode="&#xd6;" horiz-adv-x="2039" d="M82 510q4 -274 176 -410q168 -133 449 -133q537 12 888 332q350 326 363 737q-2 254 -148 398q-145 156 -405 155q-274 -6 -477 -125q-215 -131 -223 -266q0 -47 18 -59q18 -21 47 -21q31 4 78 68q12 23 74 108l2 2l6 7q57 63 139 108q94 45 231 45q201 -2 312 -135 q121 -137 123 -373q-2 -332 -222 -590q-219 -201 -641 -206q-133 0 -231 24q-96 25 -168 70q-137 98 -143 332q29 446 303 714q279 268 487 275q51 0 60 22v35q6 -2 6 -6q0 37 -35 59h-2q-8 2 -16 2q-20 6 -37 7q-244 -12 -615 -347q-367 -334 -399 -829zM1010 2103 q0 -145 4 -178q0 -10 2 -24v-9q6 -47 57 -67q41 -17 76 -17q47 0 51 31q8 18 8 45v141v41q-2 10 -4 23q-2 18 -4 18l-2 4q-2 6 -6 9q-10 10 -45 22l-19 8l-6 2q-23 4 -24 7q-12 2 -27 8h-4q-39 0 -49 -29q-8 -8 -8 -35zM1321 2103q0 -139 4 -172q2 -18 2 -39q6 -47 57 -67 q43 -16 78 -17q45 0 49 31q8 18 9 45v141v41q0 6 -2 23q0 18 -2 18q0 8 -13 13q-10 10 -43 22l-18 8q-10 2 -33 9l-8 2l-27 6q-35 0 -45 -29q-8 -8 -8 -35z" />
<glyph unicode="&#xd7;" horiz-adv-x="1351" d="M166 158l78 -90l428 493l432 -493l76 90l-428 495l428 490l-80 94l-428 -492l-428 492l-78 -94l428 -490z" />
<glyph unicode="&#xd8;" horiz-adv-x="2039" d="M82 512q0 -193 84 -313q78 -121 209 -172q-8 -8 -13 -15q-25 -35 -24 -55q0 -27 14 -43q14 -20 49 -20q16 0 56 38q18 29 47 58q-4 0 -8 -2h-4q49 -10 92 -15q55 -6 123 -6q537 12 888 332q350 326 363 737q-6 227 -98 340q-70 104 -166 148h4q25 43 26 57q0 31 -14 47 q-8 20 -49 21q-29 0 -57 -39l-19 -25q-4 -6 -12 -14q-12 4 -27 4l-16 4q-18 4 -23 4q-43 6 -102 6q-274 -6 -477 -125q-215 -131 -223 -266q0 -47 18 -59q18 -21 47 -21q31 4 78 68q12 23 74 108l2 2l6 7q57 63 139 108q94 45 231 45q61 0 117 -16q25 -4 49 -15l-940 -1208 q-82 27 -135 115q-61 98 -61 246q29 446 303 714q279 268 487 275q51 0 60 22v35q6 -2 6 -6q0 37 -35 59h-2q-8 2 -16 2q-20 6 -37 7q-244 -12 -615 -347q-367 -334 -399 -827zM647 170l924 1194q72 -59 112 -152q49 -115 52 -264q-2 -332 -222 -590q-219 -201 -641 -206 q-96 0 -143 8q-31 2 -82 10z" />
<glyph unicode="&#xd9;" horiz-adv-x="1794" d="M156 383q0 -215 75 -309q78 -106 215 -107q248 2 480 299q197 240 344 676q27 -205 49 -364.5t51 -341.5q20 -133 21 -138q25 -98 44 -143t42 -61q16 0 28 2q53 2 125 45q88 47 94 100q-6 41 -51 49q-10 0 -28 23q-18 25 -30.5 43t-22 42.5t-18.5 57.5t-22 90 q-2 12 -4 35q-27 219 -37 344q-18 215 -24 403q-6 106 -12 207q0 23 -5 84v6q-4 37 -75 82q-66 39 -99 45q-47 0 -47 -55v-10q-2 -25 -2 -41q-14 -389 -243 -809q-221 -401 -435 -436q-102 0 -155 67q-61 72 -62 199q0 129 25 283q39 231 53 299q6 27 25 122q10 47 28 132 l4 30q27 100 29 164q0 74 -74 119q-63 35 -137 41q-29 0 -43 -15q-23 -12 -22 -43q0 -4 12 -30l4 -10v-3q10 -31 10 -81q0 -25 -10 -138q-2 -14 -4 -39q-4 -20 -4 -28l-10 -78q-6 -47 -13 -84q-6 -41 -18 -127q-10 -61 -31 -258q-6 -51 -6 -55q-14 -141 -14 -285zM813 2075 q8 -78 127 -213q121 -125 195 -138q25 0 41 9q25 18 24 47q0 37 -55 80q-39 18 -117 151q-4 10 -12 37q-8 31 -17 53q-6 14 -18 37l-6 12q-37 72 -70 72q-37 0 -74 -55q-18 -51 -18 -92z" />
<glyph unicode="&#xda;" horiz-adv-x="1794" d="M156 383q0 -215 75 -309q78 -106 215 -107q248 2 480 299q197 240 344 676q27 -205 49 -364.5t51 -341.5q20 -133 21 -138q25 -98 44 -143t42 -61q16 0 28 2q53 2 125 45q88 47 94 100q-6 41 -51 49q-10 0 -28 23q-18 25 -30.5 43t-22 42.5t-18.5 57.5t-22 90 q-2 12 -4 35q-27 219 -37 344q-18 215 -24 403q-6 106 -12 207q0 23 -5 84v6q-4 37 -75 82q-66 39 -99 45q-47 0 -47 -55v-10q-2 -25 -2 -41q-14 -389 -243 -809q-221 -401 -435 -436q-102 0 -155 67q-61 72 -62 199q0 129 25 283q39 231 53 299q6 27 25 122q10 47 28 132 l4 30q27 100 29 164q0 74 -74 119q-63 35 -137 41q-29 0 -43 -15q-23 -12 -22 -43q0 -4 12 -30l4 -10v-3q10 -31 10 -81q0 -25 -10 -138q-2 -14 -4 -39q-4 -20 -4 -28l-10 -78q-6 -47 -13 -84q-6 -41 -18 -127q-10 -61 -31 -258q-6 -51 -6 -55q-14 -141 -14 -285zM844 1780 q0 -31 26 -47q16 -8 39 -9q68 10 193 138q117 129 131 213q-4 47 -23 94q-37 53 -71 53q-27 0 -68 -70q-8 -16 -39 -79q-6 -17 -14 -33q-86 -160 -119 -180q-55 -43 -55 -80z" />
<glyph unicode="&#xdb;" horiz-adv-x="1794" d="M156 383q0 -215 75 -309q78 -106 215 -107q248 2 480 299q197 240 344 676q27 -205 49 -364.5t51 -341.5q20 -133 21 -138q25 -98 44 -143t42 -61q16 0 28 2q53 2 125 45q88 47 94 100q-6 41 -51 49q-10 0 -28 23q-18 25 -30.5 43t-22 42.5t-18.5 57.5t-22 90 q-2 12 -4 35q-27 219 -37 344q-18 215 -24 403q-6 106 -12 207q0 23 -5 84v6q-4 37 -75 82q-66 39 -99 45q-47 0 -47 -55v-10q-2 -25 -2 -41q-14 -389 -243 -809q-221 -401 -435 -436q-102 0 -155 67q-61 72 -62 199q0 129 25 283q39 231 53 299q6 27 25 122q10 47 28 132 l4 30q27 100 29 164q0 74 -74 119q-63 35 -137 41q-29 0 -43 -15q-23 -12 -22 -43q0 -4 12 -30l4 -10v-3q10 -31 10 -81q0 -25 -10 -138q-2 -14 -4 -39q-4 -20 -4 -28l-10 -78q-6 -47 -13 -84q-6 -41 -18 -127q-10 -61 -31 -258q-6 -51 -6 -55q-14 -141 -14 -285zM618 1849 l82 -114q72 63 172 163q51 47 113 117q6 -6 25 -28l8 -13l26 -35q29 -35 111 -129q43 -53 76 -90l121 138q-160 182 -248 292q-61 72 -86 72q-20 0 -39 -16q-2 0 -4 -4q-6 -10 -10 -15h-4q-2 -6 -33 -41q-6 -6 -29 -32l-43 -43q-12 -12 -18 -19q-119 -119 -220 -203z" />
<glyph unicode="&#xdc;" horiz-adv-x="1794" d="M156 383q0 -215 75 -309q78 -106 215 -107q248 2 480 299q197 240 344 676q27 -205 49 -364.5t51 -341.5q20 -133 21 -138q25 -98 44 -143t42 -61q16 0 28 2q53 2 125 45q88 47 94 100q-6 41 -51 49q-10 0 -28 23q-18 25 -30.5 43t-22 42.5t-18.5 57.5t-22 90 q-2 12 -4 35q-27 219 -37 344q-18 215 -24 403q-6 106 -12 207q0 23 -5 84v6q-4 37 -75 82q-66 39 -99 45q-47 0 -47 -55v-10q-2 -25 -2 -41q-14 -389 -243 -809q-221 -401 -435 -436q-102 0 -155 67q-61 72 -62 199q0 129 25 283q39 231 53 299q6 27 25 122q10 47 28 132 l4 30q27 100 29 164q0 74 -74 119q-63 35 -137 41q-29 0 -43 -15q-23 -12 -22 -43q0 -4 12 -30l4 -10v-3q10 -31 10 -81q0 -25 -10 -138q-2 -14 -4 -39q-4 -20 -4 -28l-10 -78q-6 -47 -13 -84q-6 -41 -18 -127q-10 -61 -31 -258q-6 -51 -6 -55q-14 -141 -14 -285zM741 2103 q0 -156 2 -172l2 -16t3 -23q6 -47 57 -67q43 -17 76 -17q41 0 51 29q6 12 6 47v141v41q-6 43 -6 50q-20 12 -51 26l-21 8q-6 2 -12 2q-23 4 -25 7q-14 2 -26 8q-20 0 -47 -27q-8 -4 -9 -37zM1053 2103q0 -156 2 -172l2 -16t2 -23q6 -45 55 -67q43 -16 78 -17q41 0 51 29 q6 12 6 47v141v41q-10 47 -14 50q-2 10 -51 28l-13 6q-6 2 -12 2q-23 4 -24 7q-12 2 -25 8q-27 0 -49 -27q-8 -4 -8 -37z" />
<glyph unicode="&#xdd;" horiz-adv-x="1546" d="M16 1698q0 -25 2 -48.5t7 -35.5q18 -12 53 -62.5t90 -160.5q27 -61 50.5 -112.5t49 -100t54 -101.5t67.5 -123q23 -25 51 -61q43 -51 73 -84t71 -74t107.5 -99t166.5 -144q-49 -86 -84 -143.5t-61.5 -96.5t-47 -65.5t-51.5 -63.5q-20 -25 -36 -43l-342 -395 q-20 -16 -21 -37q0 -10 4 -27q10 -25 17 -37q29 -66 45 -116t24 -119q8 72 36 118t71 80q27 4 69 19q35 12 51 16q59 16 94.5 33.5t73.5 44.5q47 31 92.5 46t139.5 20q47 0 129 -37t235 -121q152 -80 267.5 -136.5t236.5 -103.5q86 -33 177 -61.5t208 -63.5q109 -33 139 -43 q117 -41 194 -58t130 -17q61 0 119 24q74 31 134 77t79 118q18 45 18 82q0 35 -14 54t-31 28q-6 4 -14 4q-23 0 -103 -66l-16 -14q-137 -137 -272 -137q-43 0 -84 14q-131 63 -302 141t-378 165t-403.5 158.5t-336.5 104.5q-100 23 -163 23q-41 0 -88.5 -7.5t-112.5 -21.5 q-29 -23 -76 -68q-51 -49 -65 -49q-18 0 -19 60l2 6q0 8 26.5 51t76 115.5t129.5 185.5t108 154q102 143 187 264l28 45q82 123 142.5 220t128 219t114.5 235.5t51 191.5q-6 98 -83 199q-90 94 -134 100q-63 0 -63 -28q0 -20 22 -68q20 -51 21 -129q-2 -145 -86 -372.5 t-225 -481.5q-168 143 -297 298t-211 280.5t-121 202.5t-51 106q-43 63 -91.5 99t-117.5 56q-31 10 -56 11q-4 -4 -4 -37zM621 1806q0 -43 26 -49q14 -8 37 -8q72 10 195 139q119 129 131 213q0 39 -23 84q-27 53 -74 64q-23 -6 -65 -72q-4 -12 -19 -51q-4 -10 -18 -51 q-12 -7 -20 -11q-76 -150 -117 -182q-53 -41 -53 -76z" />
<glyph unicode="&#xde;" horiz-adv-x="1667" d="M-35 1202q0 -35 27 -82q31 -45 65 -45q12 0 105 43q41 29 117 58l-48 -1123q2 -39 86 -82q59 -25 111 -32q31 0 47 14q14 14 14 51v14q-2 39 -2 70v25q-4 106 -4 139v35q-2 82 -2 143q0 123 -2 178v4l-2 109q-2 193 -2 250q-2 72 -2 256q88 23 176 33q104 16 209 18 q266 -2 397 -90q121 -84 121 -238q0 -205 -119 -354q-121 -145 -383 -152q-117 6 -219 33l-24 6q-41 12 -74 19l-29 8q-51 0 -51 -27q-6 -8 -6 -37q4 -63 98 -127q90 -57 215 -57q262 4 549 227q287 227 307 543q0 182 -178 277q-156 86 -544 86q-109 0 -246 -9l-60 -6 q-92 -12 -135 -18q2 16 8 57l2 15v12q0 4 2 43q2 41 3 55q-2 59 -62 105q-55 37 -100 37q-27 0 -33 -7q-12 0 -14 -9t-2 -38v-297q-184 -27 -236 -49q-80 -37 -80 -84z" />
<glyph unicode="&#xdf;" d="M119 1092q0 -242 4 -394q0 -102 2 -223v-108v-39q2 -78 2 -148q0 -47 2 -102v-86q2 -53 2 -246q2 -111 2 -250q0 -66 33 -84q25 -23 63 -22q37 0 47 22v4q2 18 3 43q0 1028 28 1352q27 362 62 487q39 182 102 248q63 57 137 58q63 -2 105 -48q39 -45 39 -118 q0 -88 -43 -172q-41 -74 -99 -131q-10 -12 -30 -35q-43 -45 -68 -76q-53 -53 -53 -123q25 -121 225 -168q154 -27 178 -246q-2 -176 -57 -260q-53 -76 -154 -75q-113 0 -182 45q-94 49 -125 53q-39 0 -49 -23q-14 -14 -14 -47q4 -80 84 -129q74 -51 180 -51q248 14 393 193 q145 184 147 352q-35 279 -239 336q-160 39 -189 104q16 70 148 186q156 143 170 297q0 88 -72 146q-70 117 -209 123q-188 -2 -372 -178q-184 -174 -203 -467z" />
<glyph unicode="&#xe0;" horiz-adv-x="1300" d="M100 231q0 -109 68 -176q74 -70 242 -71q201 2 344 84q113 59 184 137q14 -76 31 -152q23 -109 67 -110q12 0 74 22q2 0 14 6q10 4 13 6q76 45 82 80q0 47 -41 47l-4 2t-5 3q-41 88 -69 342q-31 313 -31 362q-53 -47 -94 -61q-16 -10 -35 -15q-16 20 -53 58 q-64 59 -168 65q-209 -12 -406 -205q-201 -190 -213 -424zM324 295q6 178 102 299q92 125 244 131q72 -2 110 -25q47 -18 76 -41q20 -27 35 -100q14 -61 20 -143q0 -25 -4 -62q-10 -35 -35 -59q-35 -45 -141 -109q-104 -66 -227 -69q-74 0 -127 47t-53 131zM465 1313 q8 -84 127 -215q125 -125 190 -140q39 0 47 9q25 0 25 51q0 43 -55 80q-29 18 -121 176q-6 16 -23 53q-20 51 -24 62q-41 63 -72 71q-39 -8 -70 -57q-25 -45 -24 -90z" />
<glyph unicode="&#xe1;" horiz-adv-x="1300" d="M100 231q0 -109 68 -176q74 -70 242 -71q201 2 344 84q113 59 184 137q14 -76 31 -152q23 -109 67 -110q12 0 74 22q2 0 14 6q10 4 13 6q76 45 82 80q0 47 -41 47l-4 2t-5 3q-41 88 -69 342q-31 313 -31 362q-53 -47 -94 -61q-16 -10 -35 -15q-16 20 -53 58 q-64 59 -168 65q-209 -12 -406 -205q-201 -190 -213 -424zM324 295q6 178 102 299q92 125 244 131q72 -2 110 -25q47 -18 76 -41q20 -27 35 -100q14 -61 20 -143q0 -25 -4 -62q-10 -35 -35 -59q-35 -45 -141 -109q-104 -66 -227 -69q-74 0 -127 47t-53 131zM496 1018 q0 -51 28 -51q14 -8 39 -9q72 14 193 140q117 133 129 217q-4 29 -25 59q-23 63 -74 86q-31 -12 -63 -71q-6 -10 -16 -33q-14 -31 -21 -43q-2 -6 -8 -19l-10 -20q-82 -154 -117 -178q-55 -39 -55 -78z" />
<glyph unicode="&#xe2;" horiz-adv-x="1300" d="M100 231q0 -109 68 -176q74 -70 242 -71q201 2 344 84q113 59 184 137q14 -76 31 -152q23 -109 67 -110q12 0 74 22q2 0 14 6q10 4 13 6q76 45 82 80q0 47 -41 47l-4 2t-5 3q-41 88 -69 342q-31 313 -31 362q-53 -47 -94 -61q-16 -10 -35 -15q-16 20 -53 58 q-64 59 -168 65q-209 -12 -406 -205q-201 -190 -213 -424zM270 1083l80 -110q20 18 86 80q53 53 82 80l6 6q72 68 111 112q4 -6 24 -28q16 -18 37 -43q49 -63 185 -222l120 138l-28 32q-152 172 -215 254q-76 76 -88 76q-29 -10 -45 -26q-4 -10 -21 -25q0 -2 -2 -4 q0 -2 -14 -17q-33 -35 -96 -98q-84 -90 -222 -205zM324 295q6 178 102 299q92 125 244 131q72 -2 110 -25q47 -18 76 -41q20 -27 35 -100q14 -61 20 -143q0 -25 -4 -62q-10 -35 -35 -59q-35 -45 -141 -109q-104 -66 -227 -69q-74 0 -127 47t-53 131z" />
<glyph unicode="&#xe3;" horiz-adv-x="1300" d="M100 231q0 -109 68 -176q74 -70 242 -71q201 2 344 84q113 59 184 137q14 -76 31 -152q23 -109 67 -110q12 0 74 22q2 0 14 6q10 4 13 6q76 45 82 80q0 47 -41 47l-4 2t-5 3q-41 88 -69 342q-31 313 -31 362q-53 -47 -94 -61q-16 -10 -35 -15q-12 18 -61 62 q-51 55 -160 61q-209 -12 -406 -205q-201 -190 -213 -424zM283 1081q0 -2 4 -6q2 -2 2 -4q10 -49 43 -49q29 6 96 86q39 57 98 70q74 -12 131 -58q76 -51 162 -61q78 16 148 92q70 88 71 133q-8 18 -20 37q-18 18 -43 18q-16 -4 -60 -55q0 -2 -6 -6q-4 -6 -6 -10 q-27 -37 -74 -41q-39 0 -108 49q-72 58 -162 70q-133 -12 -207 -121q-70 -111 -69 -144zM324 295q6 178 102 299q92 125 244 131q76 -2 114 -25q55 -25 72 -41q20 -27 35 -100q14 -61 20 -143q0 -25 -4 -62q-10 -35 -35 -59q-35 -45 -141 -109q-104 -66 -227 -69 q-74 0 -127 47t-53 131z" />
<glyph unicode="&#xe4;" horiz-adv-x="1300" d="M100 231q0 -109 68 -176q74 -70 242 -71q201 2 344 84q113 59 184 137q14 -76 31 -152q23 -109 67 -110q12 0 74 22q2 0 14 6q10 4 13 6q76 45 82 80q0 47 -41 47l-4 2t-5 3q-41 88 -69 342q-31 313 -31 362q-53 -47 -94 -61q-16 -10 -35 -15q-16 20 -53 58 q-64 59 -168 65q-209 -12 -406 -205q-201 -190 -213 -424zM324 295q6 178 102 299q92 125 244 131q72 -2 110 -25q47 -18 76 -41q20 -27 35 -100q14 -61 20 -143q0 -25 -4 -62q-10 -35 -35 -59q-35 -45 -141 -109q-104 -66 -227 -69q-74 0 -127 47t-53 131zM395 1341 q0 -164 2 -178q0 -8 2 -20v-17q6 -41 56 -61q33 -16 82 -16q43 0 49 30q6 16 6 43v138v45q-6 41 -6 49q-20 14 -49 22q-6 2 -19 6q-4 2 -6 2q-8 2 -14 5q-14 4 -43 12h-9q-25 0 -40 -21q-10 -8 -11 -39zM707 1341q0 -164 2 -178q0 -8 2 -20v-17q6 -39 57 -61q33 -16 80 -16 q43 0 49 30q6 16 6 43v138v43q-6 43 -12 51q-4 10 -43 22q-4 2 -19 6q-4 2 -6 2q-8 2 -14 5q-14 4 -43 12h-8q-25 0 -41 -21q-10 -8 -10 -39z" />
<glyph unicode="&#xe5;" horiz-adv-x="1300" d="M100 231q0 -109 68 -176q74 -70 242 -71q201 2 344 84q113 59 184 137q14 -76 31 -152q23 -109 67 -110q12 0 74 22q2 0 14 6q10 4 13 6q76 45 82 80q0 47 -41 47l-4 2t-5 3q-41 88 -69 342q-31 313 -31 362q-53 -47 -94 -61q-16 -10 -35 -15q-16 20 -53 58 q-63 59 -168 65q-209 -12 -406 -205q-201 -191 -213 -424zM324 295q6 178 102 299q92 125 244 131q72 -2 110 -25q47 -18 76 -41q20 -27 35 -100q14 -61 20 -143q0 -25 -4 -62q-10 -35 -35 -59q-35 -45 -141 -109q-104 -66 -227 -69q-74 0 -127 47t-53 131zM416 1194 q0 -111 61 -184q61 -76 168 -76q106 0 170 76q66 72 68 186q-4 119 -68 182q-57 74 -170 80q-98 -6 -166 -80q-63 -71 -63 -184zM541 1194q0 53 32 90q29 31 72 39q49 -6 78 -37q33 -43 33 -92q0 -68 -35 -127h-76q-31 0 -72 37q-33 37 -32 90z" />
<glyph unicode="&#xe6;" horiz-adv-x="1914" d="M100 209q0 -139 88 -191q70 -51 220 -51q172 0 303 49q113 39 200 105q33 -70 101 -107q78 -47 229 -47q281 6 465 82q197 92 203 144q0 16 -6 34q-8 27 -45 27q-29 0 -66 -31q-27 -20 -78 -45q-39 -18 -123 -51l-10 -4q-78 -20 -190 -21q-164 0 -238 70q-78 63 -78 207 l-16 -6q229 41 368 63q8 2 82 13q74 8 82 10l35 6q33 4 66 12h6q6 2 12 2q35 29 35 49q0 33 -14 39q-2 14 -21 15q0 176 -72 241q-70 76 -202 76q-147 0 -262 -82q-102 -59 -168 -178q-66 117 -187 172q-135 74 -287 74q-88 0 -229 -45q-141 -56 -153 -181q0 -10 2 -30 q2 -4 2 -11q8 -41 53 -40q41 8 184 88q127 68 246 84q76 0 133 -52q53 -45 80 -190q-57 0 -102 8l-41 2q-84 6 -117 6q-231 0 -352 -71q-137 -74 -138 -244zM324 236q0 86 61 129q63 51 219 51q70 0 166 -10q55 -10 92 -11q0 -4 6 -24q2 -8 2 -9l2 -10v-6q0 -12 2 -20 q2 -25 3 -33q-6 -92 -105 -141q-106 -57 -246 -58q-92 0 -149 39q-53 35 -53 103zM1077 496q4 100 82 166q80 82 197 88q76 0 110 -52q33 -45 33 -137q-92 -23 -223 -37q-131 -23 -199 -28z" />
<glyph unicode="&#xe7;" d="M88 246q0 -152 107 -215q76 -63 225 -64q2 -2 4 -2l2 -2q-18 -37 -18 -61q0 -49 61 -99q35 -23 37 -36q-4 -10 -31 -25q-8 -10 -51 -37l-18 -12l-44 -21l48 -92q115 61 184 125q66 57 68 113q-10 72 -62 106q-31 14 -35 41v2q174 6 344 76q213 78 228 156q0 31 -13 43 q-16 14 -39 14q-25 -4 -155 -82q-127 -72 -291 -72t-248 60q-80 66 -80 180q4 164 113 264q100 100 252 107q125 -6 198 -33q18 -6 60 -18q41 -14 49 -15q33 0 41 31q8 10 8 45q0 63 -53 113q-49 47 -178 49q-242 -12 -465 -187q-231 -184 -248 -452z" />
<glyph unicode="&#xe8;" d="M88 233q4 -186 131 -233q80 -35 197 -35h28q12 2 21 2q244 4 444 60q215 61 232 120q0 23 -8 39q-4 4 -5 4q-20 20 -32 21q-20 0 -64 -21q-2 0 -8 -4q-4 -2 -6 -2q-55 -23 -84 -30q-88 -29 -135 -35q-51 -16 -172 -17q-184 0 -262 62q-66 51 -66 158h4q4 2 6 2 q25 6 47 10q23 4 35 6q18 4 55 12q29 4 58 15q4 2 20 2q10 0 21 2q29 4 61 10h6q18 4 45 8q14 4 31 6q39 8 43 8q2 2 8 3q2 0 6 2q72 14 185 36q16 2 22 5q55 23 56 57q0 14 -13 29q-2 23 -14 22q0 88 -8 129q-16 66 -37 92q-49 70 -199 70q-385 -27 -524 -264 q-125 -219 -125 -351zM303 444q4 109 107 185q102 94 243 100q74 -2 103 -39q29 -41 28 -104q0 -20 -4 -33v-8h-2q-6 -2 -26 -10l-25 -5q-33 -6 -39 -8l-29 -6q-78 -20 -153 -31q-8 -2 -37 -6q-111 -23 -166 -35zM403 1313q6 -82 129 -215q119 -123 189 -140q31 0 45 13 q27 6 27 47t-56 80q-33 18 -121 176q-6 10 -14 33l-12 30l-15 15q-8 6 -10 8q-35 82 -69 100q-53 -16 -74 -59q-18 -43 -19 -88z" />
<glyph unicode="&#xe9;" d="M88 233q4 -186 131 -233q80 -35 197 -35h28q12 2 21 2q244 4 444 60q215 61 232 120q0 23 -8 39q-4 4 -5 4q-20 20 -32 21q-20 0 -64 -21q-2 0 -8 -4q-4 -2 -6 -2q-55 -23 -84 -30q-88 -29 -135 -35q-51 -16 -172 -17q-184 0 -262 62q-66 51 -66 158h4q4 2 6 2 q25 6 47 10q23 4 35 6q18 4 55 12q29 4 58 15q4 2 20 2q10 0 21 2q29 4 61 10h6q18 4 45 8q14 4 31 6q39 8 43 8q2 2 8 3q2 0 6 2q72 14 185 36q16 2 22 5q55 23 56 57q0 14 -13 29q-2 23 -14 22q0 88 -8 129q-16 66 -37 92q-49 70 -199 70q-385 -27 -524 -264 q-125 -219 -125 -351zM303 444q4 109 107 185q102 94 243 100q74 -2 103 -39q29 -41 28 -104q0 -20 -4 -33v-8h-2q-6 -2 -26 -10l-25 -5q-33 -6 -39 -8l-29 -6q-78 -20 -153 -31q-8 -2 -37 -6q-111 -23 -166 -35zM434 1018q0 -41 25 -47q18 -12 41 -13q72 14 192 140 q117 129 129 215q0 41 -20 88q-23 49 -78 59q-27 -18 -61 -100q-25 -37 -56 -86q-82 -152 -119 -176q-53 -39 -53 -80z" />
<glyph unicode="&#xea;" d="M88 233q4 -186 131 -233q80 -35 197 -35h28q12 2 21 2q244 4 444 60q215 61 232 120q0 23 -8 39q-4 4 -5 4q-20 20 -32 21q-20 0 -64 -21q-2 0 -8 -4q-4 -2 -6 -2q-55 -23 -84 -30q-88 -29 -135 -35q-51 -16 -172 -17q-184 0 -262 62q-66 51 -66 158h4q4 2 6 2 q25 6 47 10q23 4 35 6q18 4 55 12q29 4 58 15q4 2 20 2q10 0 21 2q29 4 61 10h6q18 4 45 8q14 4 31 6q39 8 43 8q2 2 8 3q2 0 6 2q72 14 185 36q16 2 22 5q55 23 56 57q0 14 -13 29q-2 23 -14 22q0 88 -8 129q-16 66 -37 92q-49 70 -199 70q-385 -27 -524 -264 q-125 -219 -125 -351zM211 1085l78 -112q23 18 84 80q41 39 80 75l10 11l8 8q80 80 98 100q2 -2 9 -4q10 -4 12 -6q4 -6 20 -29q16 -20 23 -28l22 -27q25 -29 74 -90q39 -47 86 -105l127 138q-178 203 -248 286q-72 76 -82 76h-12q-8 -4 -14 -8q-16 -10 -21 -14 q-4 -4 -10 -13l-2 -4l-2 -4q0 -2 -2 -4q-37 -43 -119 -121q-92 -98 -219 -205zM303 444q4 109 107 185q102 94 243 100q74 -2 103 -39q29 -41 28 -104q0 -20 -4 -33v-8h-2q-6 -2 -26 -10l-25 -5q-33 -6 -39 -8l-29 -6q-78 -20 -153 -31q-8 -2 -37 -6q-111 -23 -166 -35z" />
<glyph unicode="&#xeb;" d="M88 233q4 -186 131 -233q80 -35 197 -35h28q12 2 21 2q244 4 444 60q215 61 232 120q0 23 -8 39q-4 4 -5 4q-20 20 -32 21q-20 0 -64 -21q-2 0 -8 -4q-4 -2 -6 -2q-55 -23 -84 -30q-88 -29 -135 -35q-51 -16 -172 -17q-184 0 -262 62q-66 51 -66 158h4q4 2 6 2 q25 6 47 10q23 4 35 6q18 4 55 12q29 4 58 15q4 2 20 2q10 0 21 2q29 4 61 10h6q18 4 45 8q14 4 31 6q39 8 43 8q2 2 8 3q2 0 6 2q72 14 185 36q16 2 22 5q55 23 56 57q0 14 -13 29q-2 23 -14 22q0 88 -8 129q-16 66 -37 92q-49 70 -199 70q-385 -27 -524 -264 q-125 -219 -125 -351zM303 444q4 109 107 185q102 94 243 100q74 -2 103 -39q29 -41 28 -104q0 -20 -4 -33v-8h-2q-6 -2 -26 -10l-25 -5q-33 -6 -39 -8l-29 -6q-78 -20 -153 -31q-8 -2 -37 -6q-111 -23 -166 -35zM332 1341q0 -158 2 -172q2 -16 2 -43q4 -39 59 -61 q31 -16 78 -16q51 0 51 32q4 10 4 41v138v43q-6 43 -14 55q-18 12 -41 18q-10 6 -16 8q-25 6 -56 13l-12 4h-6q-25 0 -43 -25q-8 -16 -8 -35zM643 1341q0 -158 2 -172q2 -16 2 -43q6 -39 58 -61q31 -16 77 -16q53 0 54 32q4 10 4 41v138v43q-6 43 -15 55l-2 2q-18 12 -35 16 q-14 8 -24 10q-37 6 -68 15q-25 0 -45 -21q-8 -4 -8 -39z" />
<glyph unicode="&#xec;" horiz-adv-x="555" d="M92 1313q12 -86 131 -215q119 -123 189 -140q27 0 43 9q27 0 26 51q0 41 -53 80q-33 18 -121 176q-6 10 -14 33l-12 30q-18 37 -23 49q-41 66 -74 74q-35 -8 -67 -57q-25 -59 -25 -90zM129 836q0 -16 18 -72q10 -51 13 -135v-21v-73v-168q0 -139 4 -316q6 -41 55 -65 q43 -18 76 -19q16 0 33 8q23 10 22 39q0 66 -2 82v31q-2 37 -2 66q0 35 2 83v54q2 27 4 53q4 78 6 102q4 41 4 84q4 33 5 74q2 14 2 66q2 31 2 65q-10 43 -80 74q-66 35 -113 37h-12h-14q-23 -14 -23 -49z" />
<glyph unicode="&#xed;" horiz-adv-x="555" d="M125 1018q0 -23 8 -37t19 -14q14 -8 38 -9q74 14 193 140q117 129 129 215q0 27 -25 61q-22 63 -71 86q-33 -14 -66 -74q-4 -6 -8 -18q-8 -18 -16 -33l-31 -61q-80 -152 -117 -176q-53 -39 -53 -80zM129 836q0 -16 18 -72q10 -51 13 -135v-21v-73v-168q0 -139 4 -316 q6 -41 55 -65q43 -18 76 -19q16 0 33 8q23 10 22 39q0 66 -2 82v31q-2 37 -2 66q0 35 2 83v54q2 27 4 53q4 78 6 102q4 41 4 84q4 33 5 74q2 14 2 66q2 31 2 65q-10 43 -80 74q-66 35 -113 37h-12h-14q-23 -14 -23 -49z" />
<glyph unicode="&#xee;" horiz-adv-x="555" d="M-98 1083l82 -110l2 2q61 55 114 108l56 56q10 10 34 37q53 53 72 75l10 -10q27 -29 54 -63l2 -2q4 -6 8 -11l67 -80q74 -88 107 -127l121 138q-80 92 -197 231l-49 57l-18 19q-56 55 -66 55h-14q-6 -4 -13 -8q-14 -10 -18 -14t-10 -13l-2 -4l-2 -4q0 -2 -2 -4 q-37 -43 -119 -121q-102 -104 -219 -207zM129 836q0 -16 18 -72q10 -51 13 -135v-21v-73v-168q0 -139 4 -316q6 -41 55 -65q43 -18 76 -19q16 0 33 8q23 10 22 39q0 66 -2 82v31q-2 37 -2 66q0 35 2 83v54q2 27 4 53q4 78 6 102q4 41 4 84q4 33 5 74q2 14 2 66q2 31 2 65 q-10 43 -80 74q-66 35 -113 37h-12h-14q-23 -14 -23 -49z" />
<glyph unicode="&#xef;" horiz-adv-x="555" d="M23 1341q0 -164 2 -178q0 -8 2 -20v-17q4 -41 57 -61q31 -16 80 -16q43 0 49 30q6 16 6 43v138v43q-6 43 -12 51q-4 10 -43 22q-8 4 -21 8q-6 2 -26 7l-17 4q-2 4 -16 6h-6q-27 0 -47 -25q-8 -16 -8 -35zM129 836q0 -16 18 -72q10 -51 13 -135v-21v-73v-168 q0 -139 4 -316q6 -41 55 -65q43 -18 76 -19q16 0 33 8q23 10 22 39q0 66 -2 82v31q-2 37 -2 66q0 35 2 83v54q2 27 4 53q4 78 6 102q4 41 4 84q4 33 5 74q2 14 2 66q2 31 2 65q-10 43 -80 74q-66 35 -113 37h-12h-14q-23 -14 -23 -49zM334 1341q0 -158 2 -172q2 -16 2 -43 q4 -39 59 -61q31 -16 78 -16q51 0 51 32q4 10 4 41v138v43q-6 43 -12 51q-4 10 -43 22l-16 8q-8 2 -33 9l-14 2q-2 4 -17 6h-6q-27 0 -47 -25q-8 -17 -8 -35z" />
<glyph unicode="&#xf0;" d="M88 311q0 -178 102 -250q106 -78 283 -77q295 2 453 161q158 158 159 437q-6 266 -96 479q-78 190 -170 315q90 68 131 105q41 41 41 96q0 37 -12 51q-25 20 -51 21q-27 -14 -58 -41q-31 -23 -108 -101l-27 -24q-98 104 -190 166q-104 68 -221 69q-55 0 -95 -16 q-59 -20 -59 -70q0 -53 55 -65q16 -2 115 -41h4q86 -41 148 -88q63 -45 96 -86l-228 -203l17 -107l297 224q141 -178 203 -332q57 -143 75 -270l29 36q-41 53 -96 82q-78 45 -197 45q-236 -2 -412 -139q-184 -141 -188 -377zM285 406q4 123 90 200q80 80 215 86 q145 0 219 -80q78 -74 80 -202q-2 -129 -86 -213q-74 -80 -203 -80q-111 0 -213 78q-96 70 -102 211z" />
<glyph unicode="&#xf1;" d="M150 121q0 -45 43 -70q35 -20 75 -20q43 0 56 49l4 16q2 4 2 15q4 23 8 30q84 238 192 387q96 133 158 134q25 0 37 -21q29 -55 39 -113l6 -24q27 -117 35 -162q29 -143 49 -246l6 -20q10 -41 14 -58q20 -51 70 -51q51 6 103 37q66 55 67 96q-12 27 -39 35q-2 0 -4 2 q-6 6 -8 6q-20 33 -29 103q-16 68 -39 200q0 8 -6 37q0 2 -2 15q-12 74 -33 166q-31 104 -57 137q-6 10 -33 28q-23 17 -78 19q-133 -2 -274 -170q-102 -102 -201 -301q0 -20 6 -94q2 14 5 34q4 35 4 48q6 76 16 159l6 66q4 39 8 69q2 10 2 21q4 25 9 92l2 25q-8 23 -76 69 q-70 29 -100 33q-37 -6 -37 -31q-2 -4 -2 -26q0 -31 8 -82q8 -55 10 -191q-2 -215 -12 -295l-2 -30q-8 -88 -8 -123zM221 1081q0 -20 4 -28q0 -31 47 -31q29 6 93 86q39 53 98 70q70 -12 133 -58q74 -51 164 -61q74 16 143 92q68 80 72 127q0 10 -10 33l-7 12q-4 2 -14 6 q-25 10 -33 10q-18 -14 -67 -106q-27 -6 -74 -6t-113 49q-71 58 -161 70q-129 -12 -207 -121q-68 -106 -68 -144z" />
<glyph unicode="&#xf2;" d="M88 311q0 -178 102 -250q106 -78 283 -77q313 8 465 180q147 160 147 340q-2 158 -106 239q-92 82 -291 84q-236 -2 -412 -139q-184 -141 -188 -377zM285 406q4 123 90 200q78 76 215 82q147 0 219 -76q78 -74 80 -202q-2 -129 -86 -213q-74 -80 -203 -80q-111 0 -213 78 q-96 70 -102 211zM403 1313q6 -82 129 -215q119 -123 189 -140q31 0 45 13q27 6 27 47t-56 80q-33 18 -121 176q-6 10 -14 33l-12 30l-15 15q-8 6 -10 8q-35 82 -69 100q-53 -16 -74 -59q-18 -43 -19 -88z" />
<glyph unicode="&#xf3;" d="M88 311q0 -178 102 -250q106 -78 283 -77q313 8 465 180q147 160 147 340q-2 158 -106 239q-92 82 -291 84q-236 -2 -412 -139q-184 -141 -188 -377zM285 406q4 123 90 200q78 76 215 82q147 0 219 -76q78 -74 80 -202q-2 -129 -86 -213q-74 -80 -203 -80q-111 0 -213 78 q-96 70 -102 211zM434 1018q0 -41 25 -47q18 -12 41 -13q72 14 192 140q117 129 129 215q0 41 -20 88q-23 49 -78 59q-27 -18 -61 -100q-25 -37 -56 -86q-82 -152 -119 -176q-53 -39 -53 -80z" />
<glyph unicode="&#xf4;" d="M88 311q0 -178 102 -250q106 -78 283 -77q313 8 465 180q147 160 147 340q-2 158 -106 239q-92 82 -291 84q-236 -2 -412 -139q-184 -141 -188 -377zM211 1085l78 -112q23 18 84 80q41 39 80 75l10 11l8 8q80 80 98 100q2 -2 9 -4q10 -4 12 -6q4 -6 20 -29q16 -20 23 -28 l22 -27q25 -29 74 -90q39 -47 86 -105l127 138q-178 203 -248 286q-72 76 -82 76h-12q-8 -4 -14 -8q-16 -10 -21 -14q-4 -4 -10 -13l-2 -4l-2 -4q0 -2 -2 -4q-37 -43 -119 -121q-92 -98 -219 -205zM285 406q4 123 90 200q78 76 215 82q147 0 219 -76q78 -74 80 -202 q-2 -129 -86 -213q-74 -80 -203 -80q-111 0 -213 78q-96 70 -102 211z" />
<glyph unicode="&#xf5;" d="M88 311q0 -178 102 -250q106 -78 283 -77q313 8 465 180q147 160 147 340q-2 158 -106 239q-92 82 -291 84q-236 -2 -412 -139q-184 -141 -188 -377zM221 1081q0 -20 4 -28q0 -31 47 -31q29 6 93 86q39 53 98 70q70 -12 133 -58q74 -51 164 -61q74 16 143 92 q68 80 72 127q0 10 -10 33l-7 12q-4 2 -14 6q-25 10 -33 10q-18 -14 -67 -106q-27 -6 -74 -6t-113 49q-72 57 -161 70q-129 -12 -207 -121q-68 -107 -68 -144zM285 406q4 123 90 200q78 76 215 82q147 0 219 -76q78 -74 80 -202q-2 -129 -86 -213q-74 -80 -203 -80 q-111 0 -213 78q-96 70 -102 211z" />
<glyph unicode="&#xf6;" d="M88 311q0 -178 102 -250q106 -78 283 -77q313 8 465 180q147 160 147 340q-2 158 -106 239q-92 82 -291 84q-236 -2 -412 -139q-184 -141 -188 -377zM285 406q4 123 90 200q78 76 215 82q147 0 219 -76q78 -74 80 -202q-2 -129 -86 -213q-74 -80 -203 -80q-111 0 -213 78 q-96 70 -102 211zM332 1341q0 -158 2 -172q2 -16 2 -43q4 -39 59 -61q31 -16 78 -16q51 0 51 32q4 10 4 41v138v43q-6 43 -14 55q-18 12 -41 18q-10 6 -16 8q-25 6 -56 13l-12 4h-6q-25 0 -43 -25q-8 -16 -8 -35zM643 1341q0 -158 2 -172q2 -16 2 -43q6 -39 58 -61 q31 -16 77 -16q53 0 54 32q4 10 4 41v138v43q-6 43 -15 55l-2 2q-18 12 -35 16q-14 8 -24 10q-37 6 -68 15q-25 0 -45 -21q-8 -4 -8 -39z" />
<glyph unicode="&#xf7;" horiz-adv-x="1396" d="M102 578h1186v184h-1186v-184zM543 152q0 -78 45 -117q45 -51 106 -51q68 0 113 51q39 39 45 119q-6 76 -43 118q-43 52 -115 54q-63 -2 -106 -54q-45 -47 -45 -120zM543 1188q0 -74 45 -119q45 -51 106 -51q68 0 113 51q39 39 45 123q-6 74 -43 117q-39 53 -115 55 q-63 -2 -106 -53q-45 -47 -45 -123z" />
<glyph unicode="&#xf8;" d="M88 311q0 -109 47 -190q37 -63 84 -88l4 4q8 8 15 14l-11 -12q-10 -10 -12 -14q-31 -33 -31 -64q0 -27 9 -33q12 -18 38 -18q25 0 64 41q6 10 37 51v-8q23 -4 47 -6q66 -4 94 -4q313 8 465 180q147 160 147 340q-2 139 -69 203q-37 45 -82 67q0 -2 -2 -4l10 14 q8 14 19 37q4 8 8 15q0 12 -6 30l-2 8q-29 25 -50 25q-16 -2 -57 -47q-8 -18 -25 -39q-6 2 -28 6q-25 2 -31 4h-8l-37 2q-29 2 -37 2q-236 -2 -412 -139q-184 -141 -188 -377zM285 406q4 123 90 200q80 80 215 86q45 0 84 -12q10 0 35 -6q4 0 10 -2l-359 -461q-16 18 -38 57 q-33 58 -37 138zM446 150l361 462q29 -27 49 -67q31 -55 33 -135q-2 -129 -86 -213q-74 -80 -203 -80q-59 0 -100 12q-37 10 -54 21z" />
<glyph unicode="&#xf9;" d="M150 236q0 -70 24 -130q29 -100 139 -106q145 8 295 152q119 104 189 256v-11q-2 -8 -2 -10q6 -37 10 -72q8 -45 10 -57q12 -80 27 -145q2 -6 2 -13q0 -6 2 -12q10 -53 28 -100q25 -49 64 -49q20 4 94 47q25 16 33 22l12 10q33 25 37 29q0 6 -2 21l-2 14v8q-10 29 -53 29 q-39 23 -68 225q-39 246 -39 328q0 29 2 33q0 4 2 28v27q-68 0 -116 -19q-41 -12 -64 -84q-49 -203 -168 -342q-109 -141 -215 -147q-37 0 -51 33q-20 39 -21 110q6 111 37 238q18 68 39 145q4 16 4 17q-8 45 -80 88q-41 18 -83 28q-27 0 -36.5 -9t-9.5 -27q-4 -12 -4 -37 q-2 -43 -6 -123v-4q-2 -20 -2 -27q-8 -84 -14 -113q-8 -59 -10 -143v-6v-21l-2 -41q-2 -33 -2 -40zM403 1313q6 -82 129 -215q119 -123 189 -140q31 0 45 13q27 6 27 47t-56 80q-33 18 -121 176q-6 10 -14 33l-12 30l-15 15q-8 6 -10 8q-35 82 -69 100q-53 -16 -74 -59 q-18 -43 -19 -88z" />
<glyph unicode="&#xfa;" d="M150 236q0 -70 24 -130q29 -100 139 -106q145 8 295 152q119 104 189 256v-11q-2 -8 -2 -10q6 -37 10 -72q8 -45 10 -57q12 -80 27 -145q2 -6 2 -13q0 -6 2 -12q10 -53 28 -100q25 -49 64 -49q20 4 94 47q25 16 33 22l12 10q33 25 37 29q0 6 -2 21l-2 14v8q-10 29 -53 29 q-39 23 -68 225q-39 246 -39 328q0 29 2 33q0 4 2 28v27q-68 0 -116 -19q-41 -12 -64 -84q-49 -203 -168 -342q-109 -141 -215 -147q-37 0 -51 33q-20 39 -21 110q6 111 37 238q18 68 39 145q4 16 4 17q-8 45 -80 88q-41 18 -83 28q-27 0 -36.5 -9t-9.5 -27q-4 -12 -4 -37 q-2 -43 -6 -123v-4q-2 -20 -2 -27q-8 -84 -14 -113q-8 -59 -10 -143v-6v-21l-2 -41q-2 -33 -2 -40zM434 1018q0 -41 25 -47q18 -12 41 -13q72 14 192 140q117 129 129 215q0 41 -20 88q-23 49 -78 59q-27 -18 -61 -100q-25 -37 -56 -86q-82 -152 -119 -176q-53 -39 -53 -80z " />
<glyph unicode="&#xfb;" d="M150 236q0 -70 24 -130q29 -100 139 -106q145 8 295 152q119 104 189 256v-11q-2 -8 -2 -10q6 -37 10 -72q8 -45 10 -57q12 -80 27 -145q2 -6 2 -13q0 -6 2 -12q10 -53 28 -100q25 -49 64 -49q20 4 94 47q25 16 33 22l12 10q33 25 37 29q0 6 -2 21l-2 14v8q-10 29 -53 29 q-39 23 -68 225q-39 246 -39 328q0 29 2 33q0 4 2 28v27q-68 0 -116 -19q-41 -12 -64 -84q-49 -203 -168 -342q-109 -141 -215 -147q-37 0 -51 33q-20 39 -21 110q6 111 37 238q18 68 39 145q4 16 4 17q-8 45 -80 88q-41 18 -83 28q-27 0 -36.5 -9t-9.5 -27q-4 -12 -4 -37 q-2 -43 -6 -123v-4q-2 -20 -2 -27q-8 -84 -14 -113q-8 -59 -10 -143v-6v-21l-2 -41q-2 -33 -2 -40zM211 1085l78 -112q23 18 84 80q41 39 80 75l10 11l8 8q80 80 98 100q2 -2 9 -4q10 -4 12 -6q4 -6 20 -29q16 -20 23 -28l22 -27q25 -29 74 -90q39 -47 86 -105l127 138 q-178 203 -248 286q-72 76 -82 76h-12q-8 -4 -14 -8q-16 -10 -21 -14q-4 -4 -10 -13l-2 -4l-2 -4q0 -2 -2 -4q-37 -43 -119 -121q-92 -98 -219 -205z" />
<glyph unicode="&#xfc;" d="M150 236q0 -70 24 -130q29 -100 139 -106q145 8 295 152q119 104 189 256v-11q-2 -8 -2 -10q6 -37 10 -72q8 -45 10 -57q12 -80 27 -145q2 -6 2 -13q0 -6 2 -12q10 -53 28 -100q25 -49 64 -49q20 4 94 47q25 16 33 22l12 10q33 25 37 29q0 6 -2 21l-2 14v8q-10 29 -53 29 q-39 23 -68 225q-39 246 -39 328q0 29 2 33q0 4 2 28v27q-68 0 -116 -19q-41 -12 -64 -84q-49 -203 -168 -342q-109 -141 -215 -147q-37 0 -51 33q-20 39 -21 110q6 111 37 238q18 68 39 145q4 16 4 17q-8 45 -80 88q-41 18 -83 28q-27 0 -36.5 -9t-9.5 -27q-4 -12 -4 -37 q-2 -43 -6 -123v-4q-2 -20 -2 -27q-8 -84 -14 -113q-8 -59 -10 -143v-6v-21l-2 -41q-2 -33 -2 -40zM332 1341q0 -158 2 -172q2 -16 2 -43q4 -39 59 -61q31 -16 78 -16q51 0 51 32q4 10 4 41v138v43q-6 43 -14 55q-18 12 -41 18q-10 6 -16 8q-25 6 -56 13l-12 4h-6 q-25 0 -43 -25q-8 -16 -8 -35zM643 1341q0 -158 2 -172q2 -16 2 -43q6 -39 58 -61q31 -16 77 -16q53 0 54 32q4 10 4 41v138v43q-6 43 -15 55l-2 2q-18 12 -35 16q-14 8 -24 10q-37 6 -68 15q-25 0 -45 -21q-8 -4 -8 -39z" />
<glyph unicode="&#xfd;" d="M37 819q0 -27 33 -51l24 -25q4 -4 8 -10q6 -4 9 -8q121 -162 206 -358q92 -199 142 -363q-43 -55 -164 -227q-131 -188 -143 -252q0 -29 28 -68q25 -31 70 -39q47 8 117 37q45 25 213 72q199 55 274 61q111 18 111 64q0 41 -41 41h-43q-133 0 -170 -4q-82 -12 -160 -25 q-10 -2 -37 -6q-57 -12 -76 -14q-4 -2 -14 -2q-39 -8 -51 -9q12 0 18 -32q0 6 -2 14v6q4 37 64 150q72 135 129 215q231 291 360 467q143 205 156 299q-6 59 -58 114q-53 62 -92 68q-27 0 -36 -6t-9 -17q-4 -6 -4 -39q-2 -127 -94 -331q-76 -178 -199 -344q-18 41 -45 108 l-18 43q-12 33 -43 105l-29 63l-4 10q-16 31 -45 107q-2 6 -6 16q-6 16 -10 23q-6 14 -23 51q-16 33 -18 43q-35 66 -84 92q-61 27 -113 27q-35 0 -72 -13q-53 -12 -59 -53zM434 1018q0 -41 25 -47q18 -12 41 -13q72 14 192 140q117 129 129 215q0 41 -20 88q-23 49 -78 59 q-27 -18 -61 -100q-25 -37 -56 -86q-82 -152 -119 -176q-53 -39 -53 -80z" />
<glyph unicode="&#xfe;" horiz-adv-x="1300" d="M170 1665q0 -2 2 -14q0 -2 2 -21q2 -25 6 -61q2 -29 4 -47q8 -90 15 -361v-1210q-2 -35 -2 -111q-2 -57 -2 -106q-2 -27 -2 -84q-2 -43 -3 -80q-2 -18 -6 -74q0 -20 -2 -26q-2 -16 -2 -50q2 -45 56 -69q47 -27 67 -27q47 0 47 29q4 8 4 41q0 47 13 395q8 322 20 524 q2 70 27 148t80 139q68 72 149 111q98 39 137 39q86 0 148 -60q55 -51 57 -188q0 -186 -82 -289q-78 -96 -241 -96q-125 4 -166 22l-2 2q-14 6 -29 17q-20 8 -31 16q-39 0 -51 -20q-8 -12 -8 -33q0 -66 86 -117q70 -37 178 -37q201 8 379 213q178 197 192 422q0 150 -80 219 q-78 74 -219 78q-182 -2 -333 -92q-135 -76 -226 -197l29 -28q0 29 4 108v25v41q2 74 6 198l2 70q2 23 2 96q0 43 2 97q0 33 2 59q2 70 2 84v14q4 98 9 164q2 25 2 57q-4 45 -76 84q-59 37 -115 39q-33 0 -43 -18l-2 -8q-6 -15 -6 -27z" />
<glyph unicode="&#xff;" d="M37 819q0 -27 33 -51l24 -25q4 -4 8 -10q6 -4 9 -8q121 -162 206 -358q92 -199 142 -363q-43 -55 -164 -227q-131 -188 -143 -252q0 -29 28 -68q25 -31 70 -39q47 8 117 37q45 25 213 72q199 55 274 61q111 18 111 64q0 41 -41 41h-43q-133 0 -170 -4q-82 -12 -160 -25 q-10 -2 -37 -6q-57 -12 -76 -14q-4 -2 -14 -2q-39 -8 -51 -9q12 0 18 -32q0 6 -2 14v6q4 37 64 150q72 135 129 215q231 291 360 467q143 205 156 299q-6 59 -58 114q-53 62 -92 68q-27 0 -36 -6t-9 -17q-4 -6 -4 -39q-2 -127 -94 -331q-76 -178 -199 -344q-18 41 -45 108 l-18 43q-12 33 -43 105l-29 63l-4 10q-16 31 -45 107q-2 6 -6 16q-6 16 -10 23q-6 14 -23 51q-16 33 -18 43q-35 66 -84 92q-61 27 -113 27q-35 0 -72 -13q-53 -12 -59 -53zM332 1341q0 -158 2 -172q2 -16 2 -43q4 -39 59 -61q31 -16 78 -16q51 0 51 32q4 10 4 41v138v43 q-6 43 -14 55q-18 12 -41 18q-10 6 -16 8q-25 6 -56 13l-12 4h-6q-25 0 -43 -25q-8 -16 -8 -35zM643 1341q0 -158 2 -172q2 -16 2 -43q6 -39 58 -61q31 -16 77 -16q53 0 54 32q4 10 4 41v138v43q-6 43 -15 55l-2 2q-18 12 -35 16q-14 8 -24 10q-37 6 -68 15q-25 0 -45 -21 q-8 -4 -8 -39z" />
<glyph unicode="&#x152;" horiz-adv-x="2287" d="M63 461q0 -219 113 -350q111 -141 338 -144q223 0 418 127q156 104 242 236q41 -172 147 -258q115 -104 285 -105q119 0 225 35q115 35 237 107q123 74 144 88q39 35 39 63q0 23 -10 43q-25 12 -37 12q-16 0 -78 -30q-33 -16 -55 -29q-4 -2 -33 -16q-29 -12 -37 -19 q-57 -31 -143 -61q-80 -25 -140 -25q-152 0 -243 107q-92 115 -93 340q6 311 152 565q139 252 399 274q115 -6 160 -32q66 -45 72 -46q25 0 37 35q4 8 4 35q-2 80 -68 137q-63 55 -160 58q-199 -14 -385 -189q-141 -113 -198 -209q-2 168 -95 250q-98 131 -272 131 q-203 -12 -356 -155q-152 -150 -156 -224q0 -6 2 -16q0 -2 2 -8v-4q6 -35 53 -35t64 51q6 23 68 92q53 59 100 90q59 39 133 39q119 0 178 -78q68 -76 70 -315q0 -385 -137 -639q-133 -242 -416 -254q-158 0 -248 96q-94 104 -98 330q23 524 225 762q199 244 348 244 q55 0 70 14q23 12 22 45q0 35 -10 41q-6 18 -51 19q-303 -20 -561 -404q-254 -377 -267 -821zM1382 725q66 0 131 -8l21 -2q49 -4 117 -13q6 -2 10 -2h12q6 0 105 -6l57 -4h59q61 -2 113 -2q61 0 96 88q29 35 29 78q0 47 -31 47l-4 2q-10 2 -16 2h-15l-38 -4q-29 -4 -33 -4 q-2 0 -17 -2q-6 0 -14 -2t-31 -4q-90 -16 -123 -23q-8 0 -55 -6q-63 -8 -119 -14l-39 -4q-96 -11 -194 -15z" />
<glyph unicode="&#x153;" horiz-adv-x="2039" d="M100 297q0 -178 113 -256q111 -82 287 -82q137 0 278 53q117 33 187 101q8 -61 100 -93q84 -53 262 -53q213 6 434 92q231 92 250 177q0 33 -10 38l-6 7q-16 10 -27 10q-31 0 -82 -35q-29 -18 -108 -61q-47 -29 -144 -70q-84 -23 -184 -23q-162 0 -238 66q-68 59 -67 176 l643 145q2 0 8 3q10 6 14 6h9q20 23 20 49q0 31 -20 51h-25h10q0 154 -73 221q-68 80 -209 80q-143 -2 -265 -80q-92 -47 -151 -141q-31 88 -127 121q-106 61 -236 61q-240 -6 -436 -153q-195 -152 -207 -410zM311 401q4 158 101 238q95 84 245 86q127 -2 207 -80 q84 -80 84 -219q0 -154 -88 -236q-88 -86 -231 -86q-164 6 -242 86q-76 84 -76 211zM1145 465q0 92 80 174q74 98 215 111q72 0 119 -35q36 -37 36 -107q0 -20 -8 -30q-8 -12 -45 -23q-57 -18 -151 -37q-39 -8 -99 -20q-92 -20 -147 -33z" />
<glyph unicode="&#x178;" horiz-adv-x="1546" d="M16 1698q0 -25 2 -48.5t7 -35.5q18 -12 53 -62.5t90 -160.5q27 -61 50.5 -112.5t49 -100t54 -101.5t67.5 -123q23 -25 51 -61q43 -51 73 -84t71 -74t107.5 -99t166.5 -144q-49 -86 -84 -143.5t-61.5 -96.5t-47 -65.5t-51.5 -63.5q-20 -25 -36 -43l-342 -395 q-20 -16 -21 -37q0 -10 4 -27q10 -25 17 -37q29 -66 45 -116t24 -119q8 72 36 118t71 80q27 4 69 19q35 12 51 16q59 16 94.5 33.5t73.5 44.5q47 31 92.5 46t139.5 20q47 0 129 -37t235 -121q152 -80 267.5 -136.5t236.5 -103.5q86 -33 177 -61.5t208 -63.5q109 -33 139 -43 q117 -41 194 -58t130 -17q61 0 119 24q74 31 134 77t79 118q18 45 18 82q0 35 -14 54t-31 28q-6 4 -14 4q-23 0 -103 -66l-16 -14q-137 -137 -272 -137q-43 0 -84 14q-131 63 -302 141t-378 165t-403.5 158.5t-336.5 104.5q-100 23 -163 23q-41 0 -88.5 -7.5t-112.5 -21.5 q-29 -23 -76 -68q-51 -49 -65 -49q-18 0 -19 60l2 6q0 8 26.5 51t76 115.5t129.5 185.5t108 154q102 143 187 264l28 45q82 123 142.5 220t128 219t114.5 235.5t51 191.5q-6 98 -83 199q-90 94 -134 100q-63 0 -63 -28q0 -20 22 -68q20 -51 21 -129q-2 -145 -86 -372.5 t-225 -481.5q-168 143 -297 298t-211 280.5t-121 202.5t-51 106q-43 63 -91.5 99t-117.5 56q-31 10 -56 11q-4 -4 -4 -37zM518 2128q0 -160 2 -174l2 -10q2 -17 2 -23q0 -39 58 -72q37 -14 77 -14q43 0 50 33q6 16 6 43v139v39q-2 25 -8 45v2q-10 18 -68 37q-37 14 -70 14 q-45 0 -45 -26q-6 -8 -6 -33zM829 2128q0 -160 2 -174l3 -15q2 -14 2 -20q6 -47 57 -70q41 -14 76 -14q53 0 53 37q4 20 4 39v139v39q-2 25 -8 45v2q-10 16 -66 37q-41 14 -73 14q-14 0 -26.5 -16.5t-16.5 -36.5q-7 -2 -7 -6z" />
<glyph unicode="&#x2c6;" horiz-adv-x="555" d="M-98 1083l82 -110l2 2q61 55 114 108l56 56q10 10 34 37q53 53 72 75l10 -10q27 -29 54 -63l2 -2q4 -6 8 -11l67 -80q74 -88 107 -127l121 138q-80 92 -197 231l-49 57l-18 19q-56 55 -66 55h-14q-6 -4 -13 -8q-14 -10 -18 -14t-10 -13l-2 -4l-2 -4q0 -2 -2 -4 q-37 -43 -119 -121q-102 -104 -219 -207z" />
<glyph unicode="&#x2dc;" horiz-adv-x="555" d="M-88 1081q0 -18 6 -34q18 -25 47 -25q35 6 92 88q41 55 99 68q76 -12 129 -58q78 -53 166 -61q74 16 143 92q68 80 72 127q0 12 -15 39q-2 4 -4 6q-33 16 -43 16q-18 -2 -69 -69q-27 -39 -78 -43q-37 0 -107 49q-76 57 -164 70q-131 -12 -209 -121q-65 -113 -65 -144z " />
<glyph unicode="&#x2000;" horiz-adv-x="1124" />
<glyph unicode="&#x2001;" horiz-adv-x="2249" />
<glyph unicode="&#x2002;" horiz-adv-x="1124" />
<glyph unicode="&#x2003;" horiz-adv-x="2249" />
<glyph unicode="&#x2004;" horiz-adv-x="749" />
<glyph unicode="&#x2005;" horiz-adv-x="562" />
<glyph unicode="&#x2006;" horiz-adv-x="374" />
<glyph unicode="&#x2007;" horiz-adv-x="374" />
<glyph unicode="&#x2008;" horiz-adv-x="281" />
<glyph unicode="&#x2009;" horiz-adv-x="449" />
<glyph unicode="&#x200a;" horiz-adv-x="124" />
<glyph unicode="&#x2010;" horiz-adv-x="927" d="M70 489q0 -35 14 -53q24 -65 104 -69h111q96 2 158 2q137 0 159 2h78h23h59q72 16 80 37q0 20 -12 69q-16 63 -60 64q-84 0 -125 -2q-78 -4 -225 -4q-141 0 -219 4q-23 2 -80 2h-26q-39 -14 -39 -52z" />
<glyph unicode="&#x2011;" horiz-adv-x="927" d="M70 489q0 -35 14 -53q24 -65 104 -69h111q96 2 158 2q137 0 159 2h78h23h59q72 16 80 37q0 20 -12 69q-16 63 -60 64q-84 0 -125 -2q-78 -4 -225 -4q-141 0 -219 4q-23 2 -80 2h-26q-39 -14 -39 -52z" />
<glyph unicode="&#x2012;" horiz-adv-x="927" d="M70 489q0 -35 14 -53q24 -65 104 -69h111q96 2 158 2q137 0 159 2h78h23h59q72 16 80 37q0 20 -12 69q-16 63 -60 64q-84 0 -125 -2q-78 -4 -225 -4q-141 0 -219 4q-23 2 -80 2h-26q-39 -14 -39 -52z" />
<glyph unicode="&#x2013;" d="M0 367h1171v168h-1171v-168z" />
<glyph unicode="&#x2014;" horiz-adv-x="2287" d="M72 367h2214v168h-2214v-168z" />
<glyph unicode="&#x2018;" horiz-adv-x="483" d="M90 1563q0 -37 12 -84q12 -43 37 -111q12 -35 29 -72q8 -16 16 -41q2 -6 4 -10q14 -39 39 -106q37 -100 49 -127q37 -49 64 -49l8 2l4 2q35 4 35 45q0 2 -2 12t-2 16q-20 127 -45 248q0 2 -6 35q-10 57 -15 90q-2 18 -14 66q-6 29 -6 30q0 14 -6 27q-18 63 -45 90 q-27 31 -62 31q-14 0 -26 -4q-49 -14 -66 -62v-12q-2 -12 -2 -16z" />
<glyph unicode="&#x2019;" horiz-adv-x="483" d="M90 1563q0 -37 12 -84q12 -43 37 -111q12 -35 29 -72q8 -16 16 -41q2 -6 4 -10q14 -39 39 -106q37 -100 49 -127q37 -49 64 -49l8 2l4 2q35 4 35 45q0 2 -2 12t-2 16q-20 127 -45 248q0 2 -6 35q-10 57 -15 90q-2 18 -14 66q-6 29 -6 30q0 14 -6 27q-18 63 -45 90 q-27 31 -62 31q-14 0 -26 -4q-49 -14 -66 -62v-12q-2 -12 -2 -16z" />
<glyph unicode="&#x201a;" horiz-adv-x="614" d="M96 -346l66 -84q176 115 258 235q78 111 78 256q0 139 -64 197q-61 61 -143 61q-86 -6 -125 -57q-37 -42 -37 -112q0 -76 41 -115q41 -35 104 -35h31h33q10 0 14 -4v-14q-2 -86 -65 -158q-82 -94 -191 -170z" />
<glyph unicode="&#x201c;" horiz-adv-x="802" d="M66 1542q0 -31 16 -90q23 -59 61 -145q41 -82 60 -129q4 -10 6 -13q16 -39 29 -59q10 -23 24 -62q8 -23 10 -26q35 -63 76 -64q2 0 6 2h6q49 10 50 43q0 23 -27 52q0 2 -4 16q-23 100 -37 160q-8 27 -31 123l-4 16q-8 47 -35 133q0 4 -2 10v7q-45 96 -77 106q-27 6 -46 6 h-12q-8 -2 -12 -2q-43 -12 -53 -57q-4 -10 -4 -27zM377 1548q0 -31 16 -75q33 -104 60 -166q45 -92 59 -129l6 -13q53 -119 66 -147q35 -63 71 -64q2 0 4 2h7q45 10 45 50q0 18 -11 45q-27 78 -49 176q-2 8 -6 33q-2 12 -6 32q-6 23 -12 49q-4 18 -6 29q-4 16 -17 57l-20 70 l-6 23q-37 88 -74 102q-27 8 -49 8q-15 0 -25 -4q-41 -20 -51 -59v-6q-2 -8 -2 -13z" />
<glyph unicode="&#x201d;" horiz-adv-x="802" d="M66 1542q0 -31 16 -90q23 -59 61 -145q41 -82 60 -129q4 -10 6 -13q16 -39 29 -59q10 -23 24 -62q8 -23 10 -26q35 -63 76 -64q2 0 6 2h6q49 10 50 43q0 23 -27 52q0 2 -4 16q-23 100 -37 160q-8 27 -31 123l-4 16q-8 47 -35 133q0 4 -2 10v7q-45 96 -77 106q-27 6 -46 6 h-12q-8 -2 -12 -2q-43 -12 -53 -57q-4 -10 -4 -27zM377 1548q0 -31 16 -75q33 -104 60 -166q45 -92 59 -129l6 -13q53 -119 66 -147q35 -63 71 -64q2 0 4 2h7q45 10 45 50q0 18 -11 45q-27 78 -49 176q-2 8 -6 33q-2 12 -6 32q-6 23 -12 49q-4 18 -6 29q-4 16 -17 57l-20 70 l-6 23q-37 88 -74 102q-27 8 -49 8q-15 0 -25 -4q-41 -20 -51 -59v-6q-2 -8 -2 -13z" />
<glyph unicode="&#x201e;" horiz-adv-x="802" d="M-4 -297q0 -23 8 -33l4 -6q6 -2 15 -6q8 -6 18 -6q55 23 176 242q113 211 131 319q0 41 -35 98q-47 51 -84 51q-31 0 -47 -26q0 -2 -2 -8q-6 -14 -8 -27q-10 -37 -16 -63q-39 -145 -62 -218q-31 -113 -53 -174q-2 -4 -2 -10q-12 -31 -19 -53q-10 -25 -12 -31 q-12 -29 -12 -49zM297 -297q0 -12 10 -29l6 -12q-10 0 -10 14q31 -25 49 -24q55 29 172 242q117 217 131 319q0 47 -34 98q-43 51 -82 51q-27 0 -43 -20q-9 -8 -19 -39q-20 -86 -65 -242l-11 -41q-41 -135 -57 -174q-12 -41 -20 -61q-6 -47 -11 -59q-2 2 -4 2l-4 4 q-8 -23 -8 -29z" />
<glyph unicode="&#x2022;" horiz-adv-x="1370" d="M334 963q0 -156 92 -273q98 -113 254 -119q162 6 258 121q92 119 94 271q-2 150 -94 268q-98 123 -258 131q-156 -8 -254 -131q-92 -117 -92 -268z" />
<glyph unicode="&#x2026;" horiz-adv-x="2287" d="M289 82q0 -47 61 -78q47 -20 103 -20q37 0 49 16q10 10 10 47v215q-2 43 -57 72q-45 25 -111 28q-43 0 -49 -32q-2 -6 -2 -8q-4 -17 -4 -27v-213zM1030 82q0 -47 62 -78q49 -20 102 -20q35 0 47 14q14 12 14 49v217q-10 45 -59 70q-47 25 -109 28q-51 0 -51 -28 q-6 -8 -6 -39v-213zM1772 82q0 -53 63 -78q47 -20 100 -20q37 0 50 16q10 10 10 47v215q-2 43 -58 72q-45 25 -110 28q-43 0 -49 -32q-2 -6 -2 -8q-4 -17 -4 -27v-213z" />
<glyph unicode="&#x202f;" horiz-adv-x="449" />
<glyph unicode="&#x2039;" horiz-adv-x="802" d="M121 473l416 -463l100 99l-320 358l342 311l-92 107z" />
<glyph unicode="&#x203a;" horiz-adv-x="802" d="M135 115l94 -105l447 408l-416 469l-96 -105l319 -354z" />
<glyph unicode="&#x205f;" horiz-adv-x="562" />
<glyph unicode="&#x2122;" horiz-adv-x="2287" d="M104 1513q0 -14 2 -36q49 -2 89 -2q72 -4 94 -5q8 0 24 3h29l94 -9l-33 -739q0 -23 -2 -70q-2 -27 -2 -41v-20q2 -14 2 -21q16 -39 43 -67q4 -2 11 -6q39 -20 57 -25q25 -14 61 -16h82q49 12 84 22.5t82 24.5q35 12 43 14q-92 18 -139 31.5t-77 31t-43 46t-17 78.5 l-4 745l34 -2q49 0 90.5 4t88.5 16l75 35q4 4 17 13l14 98l-172 -25l-315 13q-87 10 -193 51l-69 31l-43 -72q0 -37 -5 -74q-2 -16 -2 -27zM907 1593q33 -20 76 -47q66 -37 90 -59q16 -37 19 -76v-702q0 -70 4 -97.5t20 -50.5l27 -35l84 -61l143 -33q-53 51 -80.5 81 t-44 56.5t-26 57t-15.5 84.5v495l297 -692h66l299 696l-2 -348q12 -84 17 -116.5t7 -75.5q2 -23 6 -41.5t17 -67.5l43 -47l59 -39l246 17q-139 25 -181 57.5t-42 103.5v25q2 18 2 29v682q0 10 -2 22v16q0 23 4 35.5t12 28.5l2 4q2 4 6 8q23 27 43.5 45.5t75.5 53.5l-39 51 l-72 -15l-36 -6q-47 -10 -66.5 -24.5t-40.5 -42.5q-16 -20 -31 -37q-25 -41 -83 -165t-220 -478q-14 -31 -22 -49l-330 761l-92 60z" />
<glyph unicode="&#xe000;" horiz-adv-x="901" d="M0 0v901h901v-901h-901z" />
</font>
</defs>
</svg>
